<svg version="1.2" xmlns="http://www.w3.org/2000/svg" viewBox="0 0 28 28" width="28" height="28"><style>.a{fill:#fff}</style><path class="a" d="m1.6 27.3c-0.4 0-0.7-0.3-0.7-0.7v-18.4c0-0.3 0.3-0.6 0.7-0.6h18.4c0.3 0 0.6 0.3 0.6 0.6v18.4c0 0.4-0.3 0.7-0.6 0.7z"/><path  d="m20 6.9h-18.4c-0.7 0-1.3 0.6-1.3 1.3v18.4c0 0.7 0.6 1.3 1.3 1.3h18.4c0.7 0 1.3-0.6 1.3-1.3v-18.4c0-0.7-0.6-1.3-1.3-1.3zm0 19.7h-18.4v-18.4h18.4z"/><path class="a" d="m1.6 7.8c-0.3 0-0.5-0.2-0.6-0.4-0.1-0.2 0-0.5 0.1-0.7l5.3-5.2q0.2-0.2 0.4-0.2h18.6c0.3 0 0.5 0.2 0.6 0.4 0.1 0.3 0 0.5-0.1 0.7l-5.2 5.2q-0.2 0.2-0.5 0.2z"/><path  d="m25.4 0.7h-18.6c-0.3 0-0.6 0.1-0.9 0.4l-5.2 5.1c-0.4 0.4-0.5 1-0.3 1.4 0.2 0.5 0.7 0.8 1.2 0.8h18.6c0.3 0 0.7-0.1 0.9-0.4l5.2-5.1c0.2-0.3 0.4-0.6 0.4-0.9 0-0.7-0.6-1.3-1.3-1.3zm0 2.5zm0-1.2l-5.2 5.2h-18.6l5.2-5.2zm0 0"/><path class="a" d="m21 26.9q-0.2 0-0.3 0c-0.2-0.1-0.4-0.3-0.4-0.6v-18.4q0-0.2 0.2-0.4l5.2-5.2q0.2-0.2 0.4-0.2 0.2 0 0.3 0c0.2 0.1 0.4 0.3 0.4 0.6v18.4q0 0.3-0.2 0.5l-5.2 5.2q-0.2 0.1-0.4 0.1z"/><path fill-rule="evenodd" d="m26.6 1.5c0.5 0.2 0.8 0.7 0.8 1.2v18.4c0 0.4-0.1 0.7-0.4 0.9l-5.1 5.2c-0.3 0.3-0.6 0.4-0.9 0.4q-0.3 0-0.5-0.1c-0.5-0.2-0.8-0.7-0.8-1.2v-18.4c0-0.3 0.1-0.6 0.4-0.9l5.1-5.2c0.3-0.2 0.6-0.4 1-0.4q0.2 0 0.4 0.1zm-5.6 6.4v18.4l5.2-5.2v-18.4zm-13 10.6c-0.1 0-0.3-0.1-0.4 0.2q0.2 0.6 0.5 1.2c0.3 0.3 0.7 0.6 0.9 0.9 0 0.2-0.1 0.2-0.1 0.3-0.3 0.2-0.6 0.6-1.1 0.6-0.2 0.1-0.3 0.3-0.6 0.3 0 0-0.1-0.1-0.1-0.1q-0.2-0.4-0.5-0.7c-0.1-0.1-0.2-0.2-0.3-0.3q-0.1-0.1-0.2-0.3-0.4-0.8-0.6-1.7-0.1-0.1-0.1-0.3-0.5 0-1 0c-0.3 0-0.5 0-0.8-0.1q0 0-0.1 0c-0.2 0.2-0.4 0.1-0.7 0.1q-0.1 0-0.2 0c-0.5 0.1-1.1-0.1-1.6 0-0.2 0-0.3-0.1-0.5-0.1v-1.7c0.2 0 0.4 0 0.6-0.1 0.5-0.2 1-0.2 1.5-0.2q0 0 0.1 0.1c-0.2 0.1-0.3 0.2-0.5 0.3 0.3 0.2 0.5 0.3 0.7 0.1 0.2-0.2 0.4-0.2 0.6-0.2q0.2-0.1 0.3-0.1c0.5-0.3 1-0.3 1.4 0q0.1 0 0.1 0c0.1-0.1 0.1-0.2 0.1-0.2q0.3-1.8 1.6-3.1 0.2-0.3 0.5-0.5c0.3-0.1 0.5-0.3 0.7-0.5q0.3-0.2 0.6-0.4 0.7-0.3 1.4-0.4c0.2-0.1 0.4 0 0.6-0.2h0.6q-0.1 0.5-0.2 0.9-0.1 0.3-0.1 0.6 0 0.1 0.1 0.1c0.1 0 0.1-0.1 0.2-0.2q0.1-0.5 0.2-1 0-0.2 0-0.4h0.5c0.1 0.1 0.2 0.2 0.2 0.3 0.2 0.3 0.5 0.4 0.8 0.2 0.1-0.1 0.1-0.2 0.2-0.2q1.4 0.5 2.5 1.5c0.3 0.3 0.6 0.6 0.6 1 0.4 0.1 0.5 0.4 0.6 0.8 0 0.1 0.1 0.3 0.2 0.5 0.1 0.1 0.1 0.3 0.2 0.5 0.1 0.2 0 0.4 0.2 0.5q0.1 0 0.2 0c0.3 0 0.6 0 0.8 0.2v1q-0.1 0.1-0.2 0.3c-0.1 0.1-0.3 0-0.3 0.2 0 0.1 0.2 0.1 0.3 0.2q-0.4 0.2-0.8 0.2-0.2 0-0.5 0c-0.1 0-0.1 0.1-0.1 0.2 0.1 0.1 0.3 0.1 0.4 0.3q-0.4 1.6-1.6 2.7-0.2 0.2-0.5 0.4-0.4 0.2-0.6 0.5-0.2 0.2-0.4 0.3c-0.7 0.3-1.4 0.6-2.2 0.7-0.2 0-0.3-0.1-0.4-0.2-0.7 0.3-1.2 0.1-1.8-0.2-0.1 0-0.1 0.1-0.2 0.1q-0.1-0.1-0.2-0.2-0.2-0.2-0.5-0.2-0.4 0-0.7-0.2c-0.3-0.2-0.5-0.3-0.7-0.5q0.1-0.2 0.2-0.3c0.5-0.3 1-0.6 1.5-0.8q0.4-0.1 0.6 0.1c0.2 0.2 0.3 0.2 0.5 0.2 0.4 0 0.7 0.1 1 0.1q1.2 0 2.1-0.6c0.2-0.1 0.3-0.2 0.5-0.2q0.2-0.3 0.4-0.5c1.1-1.2 1.4-2.9 0.7-4.4 0-0.2-0.1-0.3-0.1-0.5q0-0.2-0.3-0.3-0.2-0.1-0.3-0.3-1-1-2.3-1.2-0.2 0-0.3-0.1c-0.1 0-0.1-0.2-0.3-0.2-0.1 0-0.2 0.2-0.4 0.2-0.3 0.1-0.7 0.2-1 0.2-0.2 0-0.2-0.1-0.3-0.2q0 0.1-0.1 0.1 0 0.1-0.1 0.2c-0.1 0.3-0.1 0.3-0.4 0.3-0.3 0.4-0.6 0.6-0.9 1-0.2-0.2-0.4-0.3-0.7-0.3-0.1 0.1-0.2 0.1-0.4 0.2-0.2 0-0.5 0.1-0.6 0.4 0 0.1 0.2 0.1 0.3 0.1 0.2-0.1 0.5-0.2 0.7-0.3q0.3-0.1 0.5 0.1c-0.2 0.4-0.4 0.7-0.5 1.2 0.1 0 0.2 0 0.3 0 0.3 0 0.6 0 0.9 0.1 0.2 0.1 0.4 0.1 0.5 0q0.1 0 0.2 0c0.3 0.2 0.7 0.2 1.1 0.4 0.1 0.1 0.3 0.1 0.5 0-0.2-0.2-0.4-0.2-0.6-0.5 0.4 0.1 0.8 0.2 1.1 0.3 0 0.2-0.2 0.2-0.3 0.3 0 0.2 0.2 0.2 0.3 0.4 0 0.3 0.1 0.6 0.1 0.9q-0.3 0.3-0.7 0.2-0.2 0-0.4 0c-0.1-0.1-0.2-0.1-0.2-0.1-0.4 0.2-0.8 0.1-1.2 0.1-0.4 0-0.8-0.2-1-0.6-0.3-0.4-0.6-0.4-0.9-0.5-0.1 0.2-0.1 0.2 0 0.3q0.2 0.2 0.5 0.5c0.1 0 0.2 0.1 0.2 0.2zm3.6-5.5c0.1 0.1 0.1 0.1 0.2 0 0-0.1 0-0.2-0.1-0.3-0.2 0.1-0.2 0.2-0.1 0.3zm-3.3 8.1q0.1 0.2 0.2 0.1c0.2-0.1 0.2-0.2 0.2-0.4-0.2 0-0.3 0.2-0.4 0.3zm-1.2-5.5c-0.3 0-0.4 0.1-0.4 0.4 0.2 0 0.4-0.1 0.4-0.4zm2.4 6.9c-0.1 0.1-0.1 0.1-0.2 0.3 0.3 0.2 0.3 0.2 0.5 0q-0.2-0.1-0.3-0.3zm-7.4-5.3c-0.2-0.1-0.3-0.2-0.6-0.1-0.1 0-0.1 0-0.1 0.2 0.3 0.1 0.5 0.1 0.7-0.1zm7 1q-0.2-0.3-0.5-0.3c-0.1 0-0.2 0-0.2 0.2 0.2 0.1 0.4 0.3 0.7 0.1zm7.1 0.1c0.2 0.1 0.5 0.2 0.7 0.1 0.1 0 0.2 0 0.3-0.1q-0.1-0.1-0.1-0.1c-0.3-0.2-0.6 0-0.9 0.1zm-13.3-0.1c0 0.2-0.1 0.2 0 0.2 0.1 0.1 0.2 0.1 0.3 0-0.1-0.1-0.2-0.2-0.3-0.2z"/></svg>