<svg version="1.2" xmlns="http://www.w3.org/2000/svg" viewBox="0 0 29 28" width="29" height="28">
	<title>Path 68</title>
	<style>
		.s0 { fill: #020203;stroke: #000000;stroke-width: .4 } 
		.s1 { fill: #ffffff } 
	</style>
	<path id="Path 68" class="s0" d="m1.6 12.9v1.8l12.1 12.1h1.8l12.2-12.1v-1.8l-12.2-12.1h-1.8z"/>
	<path id="Path 70" class="s1" d="m14.7 7.7c0.1 0 0.2 0 0.3-0.1q0 0 0 0-0.1-0.1-0.1-0.1 0 0 0-0.1 0.2-0.1 0.4 0c0.2 0.2 0.5 0.2 0.8 0.3q0.1 0 0.3 0 0.1 0 0.1 0.1 0.2 0.1 0.2 0.2 0.1 0.2 0.3 0.3 0.2 0.2 0.5 0.5 0.4 0.5 0.5 1.1 0.1 0.3 0.1 0.5 0 0.3 0 0.5 0 0.2 0 0.3-0.3 0.6-0.6 1.1-0.1 0.2-0.3 0.4-0.2 0.2-0.5 0.3-0.1 0-0.3 0.1-0.1 0-0.1 0-0.1 0-0.1-0.1c0 0 0 0 0-0.1q-0.1 0-0.1 0.1-0.4 0.1-0.7 0.2-0.4 0.1-0.7 0.1-0.1 0-0.1 0-0.1 0-0.1 0 0 0 0 0.1 0.1 0 0.1 0 0 0.1-0.1 0.1-0.1 0-0.2 0 0-0.1-0.1-0.1-0.1 0-0.2 0 0 0-0.1 0 0 0.1 0.1 0.1 0 0 0 0 0 0.1 0 0.1-0.1 0-0.1 0-0.1 0-0.1 0.1 0 0 0.1 0 0 0.1 0.1 0.1 0 0 0 0.1 0 0 0 0c-0.1 0.1-0.1 0.1-0.2 0q-0.1 0-0.1-0.1-0.1 0-0.1 0 0 0-0.1 0 0 0.1-0.1 0.1-0.2-0.1-0.4-0.2-0.2-0.1-0.4-0.1-0.3-0.1-0.5-0.3 0-0.1-0.1-0.1 0 0-0.1 0 0 0 0 0 0.1 0.1 0.2 0.2 0.1 0.2 0.1 0.3 0 0.1 0.1 0.1 0.2 0.1 0.5 0.2 0.1 0.2 0.3 0.3 0.1 0.1 0.2 0.1 0.1 0.1 0.2 0.1 0.1 0.1 0.2 0.1 0 0.1 0 0.1 0 0.1 0 0.1-0.1 0-0.2-0.1 0 0-0.1 0-0.1-0.1-0.2-0.1 0 0.2 0 0.3 0 0 0 0 0.2 0 0.3 0.1 0.1 0 0.2 0.1 0.1 0 0.2 0.1 0 0.2 0.1 0.3 0 0.1-0.1 0.1-0.2 0.2-0.6 0.2-0.3 0-0.6-0.2 0 0-0.1-0.1 0.1-0.1 0.2-0.1 0.1 0 0.2 0 0.2 0 0.3 0 0 0 0.1 0 0 0-0.1-0.1-0.1-0.1-0.4-0.2-0.2 0-0.3-0.2-0.2-0.2-0.4-0.3-0.2-0.1-0.4-0.4-0.3-0.2-0.4-0.5-0.1-0.1-0.1-0.2-0.1 0-0.1-0.1 0.1 0 0.2 0 0 0 0 0 0.1 0 0.1 0 0 0 0-0.1-0.1-0.2-0.3-0.4-0.1-0.1-0.2-0.3 0-0.1 0-0.1c0.2 0 0.3 0.2 0.4 0.2q0 0 0 0 0-0.2-0.1-0.3 0-0.1-0.1-0.1 0-0.1 0-0.2-0.1-0.1 0.1-0.2c0 0 0 0 0-0.1q0-0.2-0.1-0.3-0.1-0.2-0.2-0.3 0 0 0 0c0.1-0.2 0.1-0.3-0.1-0.5q0 0 0 0 0.1-0.1 0.2 0 0.1 0.1 0.1 0.2 0.1 0.2 0.2 0.4 0 0.3 0.2 0.7 0 0.1 0.1 0.2 0.1 0 0.1 0.1 0 0 0-0.1 0.1-0.1 0.1 0 0.1 0 0.1 0.1c0.1 0 0.1 0 0.1 0q0 0 0 0-0.1-0.4-0.3-0.7-0.1-0.4-0.2-0.8 0-0.2 0-0.4 0.1-0.4 0.2-0.8 0.1-0.4 0.4-0.7 0.3-0.3 0.6-0.5 0.1 0 0.1 0 0 0 0 0-0.1 0.3-0.2 0.4-0.1 0.2-0.2 0.3 0 0 0 0.1 0 0 0 0 0.1-0.1 0.2-0.2 0.2-0.3 0.4-0.4 0.3-0.2 0.6-0.4 0.3-0.2 0.6-0.3 0 0 0.1 0 0 0-0.1 0-0.1-0.1-0.3 0 0 0-0.1 0-0.2 0.1-0.4 0.1c-0.1 0-0.3 0-0.4 0q0 0 0 0 0.1-0.2 0.4-0.3 0 0 0.1 0 0.3 0 0.6-0.2 0.1-0.1 0.3-0.1 0.1 0 0.2 0 0.1 0 0.1 0c0 0.1-0.1 0-0.1 0.1q0 0.1 0 0.2zm-0.2 1.1q0-0.1-0.1 0-0.2 0-0.4 0.2-0.1 0.1-0.2 0.2-0.2 0.1-0.4 0.3-0.2 0.2-0.3 0.5 0 0.3 0 0.7 0 0.2 0.1 0.5 0.3 0.4 0.8 0.6 0 0.1 0.1 0.1 0 0 0 0.1c0 0.1 0 0.1 0 0.1q0.5 0.2 1 0.1 0.7-0.1 1.1-0.7 0 0 0 0c-0.1-0.1 0-0.2 0-0.2q0-0.1 0-0.1 0.1-0.1 0.1-0.3 0.2-0.4 0-0.8-0.1-0.1-0.1-0.3-0.1-0.1 0-0.3 0 0 0 0 0 0-0.1 0-0.2-0.1-0.3-0.2-0.3-0.2-0.7-0.2-0.3 0-0.7 0 0 0-0.1 0 0-0.1 0-0.1 0-0.1 0.1-0.1 0 0 0 0 0.1 0 0.1-0.1z"/>
	<path id="Path 71" class="s1" d="m16.9 15.6q0-0.1 0.1-0.1 0-0.1 0-0.1 0.1-0.1 0.1-0.2-0.1 0-0.2 0-0.2 0.1-0.3 0.2-0.2 0-0.5 0-0.1 0-0.2 0.1-0.1 0-0.2 0-0.1 0-0.2 0.1 0 0 0 0.1 0 0.1-0.1 0.1-0.4 0-0.8 0.1-0.3 0-0.6-0.1 0 0 0 0 0-0.1 0.1-0.1 0.1 0 0.1 0 0.3 0.1 0.5-0.1 0.1-0.1 0.2-0.2 0.2-0.1 0.4-0.1 0.1 0 0.1 0 0.3 0 0.6-0.1 0.2 0 0.4-0.1 0 0 0.1 0 0-0.1-0.1-0.1 0-0.1-0.1-0.1 0 0-0.1 0-0.3 0.1-0.7 0.1-0.1 0-0.1 0-0.1-0.1-0.2-0.1-0.2 0-0.4 0-0.2 0-0.3 0 0 0 0-0.1c0 0 0 0 0.1 0q0.1 0 0.2 0 0.2-0.1 0.4-0.1 0 0 0-0.1 0 0 0 0-0.1 0-0.1 0-0.3 0-0.6-0.1-0.2 0-0.4-0.1-0.1 0-0.2-0.1c0 0 0 0-0.1-0.1q0.1-0.1 0.3-0.1 0.2 0 0.4 0.1 0 0 0 0c0 0.1 0 0.1 0.1 0.2q0.1 0 0.3 0 0.2 0 0.5 0 0 0 0.1 0 0.1 0 0.1 0.1 0 0 0.1 0.1 0.4-0.1 0.7-0.4-0.1-0.1-0.2 0-0.1 0-0.1 0.1-0.2 0-0.4 0-0.1 0-0.1 0 0-0.1 0-0.1 0-0.1 0-0.1 0.1 0 0.1 0 0.3-0.1 0.6-0.3 0 0 0.1 0 0.1-0.1 0.2-0.1 0.2 0 0.3-0.1 0.2-0.1 0.3-0.3 0.4-0.3 0.7-0.5 0.4-0.3 0.5-0.8 0.2-0.4 0.2-0.9 0-0.2 0-0.5 0-0.2 0-0.4 0-0.1-0.1-0.1 0 0 0 0-0.1-0.1 0-0.1 0.1-0.2 0.1-0.3 0-0.4-0.2-0.6 0-0.1-0.1-0.1 0 0-0.1 0 0 0 0 0-0.1-0.2-0.2-0.4-0.6-0.9-1.7-1.3-0.3-0.1-0.6-0.2-0.1 0-0.1 0-0.1 0.1-0.1 0.1-0.2 0-0.3 0-0.5 0-1 0.2-0.1 0-0.2 0-0.3 0-0.4 0.1-0.3 0-0.6 0.2-0.3 0.2-0.6 0.4-0.2 0.1-0.3 0.2 0 0.1-0.1 0.1-0.1 0-0.1 0-0.1 0-0.1 0.1-0.1 0.1-0.1 0.3-0.1 0.3-0.2 0.6-0.1 0.3-0.2 0.5 0 0.1-0.1 0.1-0.1-0.1-0.1-0.2 0 0 0.1 0 0-0.1-0.1-0.2 0 0 0-0.1-0.1 0 0-0.1 0-0.1 0.1-0.2 0-0.1 0.1-0.2 0-0.2 0.2-0.3 0 0 0 0 0.1 0 0.1 0-0.1-0.1-0.1-0.1-0.1 0-0.1 0.1-0.1 0-0.1 0.1 0 0-0.1 0-0.1 0.1-0.1 0-0.1 0-0.1 0 0-0.1-0.1-0.1c-0.1 0.2-0.2 0.5-0.1 0.6q0 0 0-0.1 0-0.1 0.1-0.1 0-0.1 0.1-0.2 0 0 0 0 0 0 0 0 0 0.2 0 0.4-0.1 0.2-0.2 0.3 0 0-0.1 0 0 0.1 0.1 0.1 0 0.3 0 0.6 0 0.3 0 0.6 0 0.3 0 0.5 0 0.3 0.2 0.5 0 0.1 0 0.2 0 0.1 0 0.1-0.1 0-0.2-0.1 0 0 0 0-0.2-0.4-0.2-0.8 0-0.3 0-0.6 0 0 0-0.1 0-0.1-0.1-0.1 0 0 0-0.1-0.1 0 0-0.1 0 0 0 0 0.1-0.1 0.1-0.3-0.1-0.2-0.1-0.4 0-0.1 0-0.1 0-0.1-0.1-0.1 0 0 0 0-0.1 0-0.1-0.1 0-0.2 0.1-0.4 0-0.1 0.1-0.2 0-0.1 0-0.1-0.1 0-0.1 0.1 0 0 0 0.1 0 0-0.1 0.1 0 0.1-0.2 0.1 0-0.1 0-0.1 0-0.1 0.1-0.2 0 0 0.1-0.1 0-0.1 0-0.3 0 0 0 0 0.3-0.1 0.3-0.4 0-0.1 0.1-0.2 0-0.1 0.1-0.1 0.1-0.1 0.2 0 0 0 0 0 0.1 0.1 0.2 0.1 0.1-0.1 0.2-0.2 0.1-0.1 0.1-0.2-0.1 0-0.1 0.1 0 0-0.1 0 0 0.1-0.1 0.1-0.1 0-0.1-0.1 0 0 0-0.1-0.1 0 0-0.1 0 0 0 0 0.1 0 0.2-0.2 0 0 0.1-0.1 0.1-0.2 0.3-0.4 0.1-0.1 0.2-0.1 0 0 0 0 0-0.1 0-0.1-0.1 0-0.1-0.1 0-0.1 0.1-0.1 0.1 0 0.2 0 0 0 0.1-0.1 0 0 0 0c-0.1-0.1-0.1-0.2 0-0.3q0 0 0.1 0 0.2 0 0.4-0.1 0.1 0 0.2-0.1 0.1 0 0.2-0.1 0.1-0.1 0.3 0c0 0.1 0 0.1 0.1 0q0.2-0.1 0.4-0.2 0.3 0 0.6 0 0.3 0.1 0.5 0.1 0.2 0 0.5 0 0 0 0 0.1c0 0-0.1 0-0.2 0q0 0.1 0.1 0.2 0.1 0 0.3 0 0.4 0 0.7 0.1 0.8 0.2 1.4 0.6 0.4 0.4 0.8 0.9 0.2 0.3 0.4 0.7 0.2 0.3 0.4 0.7 0.2 0.3 0.1 0.7 0 0.1 0 0.1-0.1 0-0.1-0.1 0 0 0 0-0.1-0.2-0.1-0.3-0.2-0.2-0.2-0.5-0.1-0.4-0.4-0.8-0.3-0.4-0.6-0.8-0.2-0.2-0.5-0.2 0 0 0 0 0 0 0 0 0.1 0.3 0.4 0.4 0.1 0.1 0.3 0.2 0.1 0.2 0.3 0.4 0 0.1 0 0.1-0.1 0.1-0.1 0.2 0.1 0.1 0.1 0.2 0.1 0 0.1 0.1-0.4-0.4-0.9-0.7 0 0.1 0 0.1 0.1 0.1 0.2 0.1 0 0.1 0 0.2 0.1 0.1 0.1 0.2 0 0 0 0-0.1 0.1 0 0.2 0.1 0 0.1 0 0.1 0 0.1 0 0-0.2 0.1-0.1 0.1 0 0.1 0.1 0 0 0 0.1 0.1 0.2 0.2 0.3 0.1 0.2 0.1 0.4 0 0.1 0 0.2 0 0.1 0.1 0.2 0.1 0.1 0 0.2 0 0.1 0 0.2 0 0 0.1 0 0 0 0 0 0 0 0-0.1 0.1 0 0.1 0 0.1 0 0.1 0.1 0 0.1 0 0.2 0 0.5-0.1 0.9 0 0.1-0.1 0.2c0 0 0-0.1 0-0.1q0-0.1-0.1-0.1 0 0 0 0-0.1 0.3-0.1 0.5-0.2 0.7-0.6 1.3-0.2 0.2-0.4 0.4-0.1 0.2-0.3 0.3-0.1 0-0.1 0.1-0.1 0 0 0 0 0.1 0.1 0.1 0.1 0 0.2-0.1 0.2-0.1 0.4-0.3 0.3-0.4 0.6-0.8 0.3-0.5 0.5-1 0-0.2 0.1-0.5 0-0.1 0.1-0.2 0.1-0.1 0.1-0.2 0-0.1 0-0.2-0.1 0 0 0 0-0.1 0.1-0.1 0.1 0.1 0.1 0.1 0 0.2-0.1 0.3 0 0.4-0.1 0.8-0.1 0.2-0.2 0.5-0.1 0.3-0.2 0.5 0 0 0 0.1 0 0 0.1 0 0 0 0.1-0.1 0-0.1 0-0.1 0.3-0.5 0.4-1.1 0.1-0.4 0.2-0.8 0-0.1 0-0.1 0.1-0.1 0.1-0.1 0.1 0 0.1-0.1 0 0 0-0.1 0-0.1 0.2-0.2 0 0 0 0 0 0.1 0 0.2 0 0.4-0.1 0.8 0 0.3-0.1 0.6-0.1 0.1-0.2 0.3-0.1 0-0.1 0 0.1 0.3 0 0.5-0.2 0.3-0.3 0.6-0.2 0.3-0.3 0.6-0.1 0.1-0.1 0.2-0.1 0-0.2 0 0 0.1-0.1 0.1-0.2 0.2-0.1 0.4 0 0 0 0.1 0 0.1-0.1 0.1 0 0 0 0.1-0.1 0-0.2 0 0 0.1 0 0.1 0 0.1 0 0.1 0 0.1 0 0.1-0.1 0.1-0.2 0.1-0.1 0.1-0.2 0-0.1-0.1-0.1 0-0.1 0.1-0.1 0.1 0 0.1-0.1 0.1 0 0.1-0.1 0.1-0.2 0.1-0.4 0.2 0 0-0.1 0.1-0.1 0-0.2 0zm-0.9-9.5q0 0.1 0 0.1 0 0 0 0 0.2 0.1 0.5 0.2 0.3 0.1 0.7 0.1 0 0 0 0 0 0 0 0-0.1-0.1-0.2-0.1-0.2-0.1-0.3-0.1-0.2-0.1-0.3-0.2 0-0.1-0.1-0.1-0.1 0.1-0.3 0.1zm-4.2 1.9q0.2 0.1 0.3-0.1 0.1-0.2 0.3-0.4 0.1 0 0.1-0.1 0-0.1 0-0.2c0 0-0.1-0.1-0.2 0q-0.2 0.1-0.2 0.3c-0.1 0.1-0.2 0.3-0.3 0.5q0 0 0 0zm1.2-1.5q0 0 0.1 0 0.1 0 0.1-0.1 0.1 0 0.2 0 0.1 0 0.3-0.1 0.2 0 0.5 0 0.1 0 0.3 0 0.1-0.1 0.2-0.2-0.1 0-0.2 0 0-0.1 0-0.2-0.1 0-0.1 0-0.2 0.1-0.5 0.2-0.2 0-0.5 0.1-0.2 0.1-0.4 0.2 0 0.1 0 0.1zm3 8.2q0 0.1 0.1 0 0 0 0.1 0 0.2 0 0.5 0 0.1 0 0.2-0.1 0-0.1 0.1-0.1 0.3 0 0.5-0.2 0.1-0.1 0.2-0.2 0.3-0.1 0.6-0.3 0.2 0 0.3-0.3 0-0.1-0.1-0.1c-0.7 0.7-1.5 1.1-2.5 1.3zm-3.3-7.3q0.1 0 0.1 0 0.1 0 0.2-0.1 0.5-0.2 1-0.4 0 0 0 0 0.1-0.1 0.2-0.1 0.1 0.1 0.2 0.1 0.1 0 0.1 0 0.1-0.1 0.2 0 0.1 0.1 0.2 0.1 0.1 0 0.2 0 0 0 0 0 0.2-0.2 0.3-0.1 0.1 0 0.2 0 0.1 0.1 0.1 0 0.1 0 0.1 0 0.1-0.1 0.1-0.1 0.1 0.1 0.2 0.1 0.2 0.1 0.3 0.1 0.1 0 0.1 0 0 0 0 0-0.1-0.1-0.2-0.1-0.1-0.1-0.2-0.2-0.1 0-0.2-0.1 0-0.1 0-0.1 0.1 0 0.1 0-0.1-0.1-0.2-0.1-0.2-0.1-0.4-0.1-0.1 0-0.1 0c0 0.1 0 0.1 0.1 0.1q0.1 0 0.1 0.1-0.1 0.1-0.1 0.1-0.1 0-0.2 0-0.1-0.1-0.3-0.1-0.3 0-0.5 0.1-0.3 0-0.5 0.1-0.4 0.2-0.8 0.2-0.1 0-0.2 0.1-0.1 0-0.2 0.1 0 0.2 0 0.3 0 0 0 0zm2.5-1.4q-0.1-0.2-0.2-0.2-0.1 0-0.2 0.1 0 0-0.1 0 0 0 0 0c0.2 0.1 0.3 0.1 0.5 0.1z"/>
	<path id="Path 72" fill-rule="evenodd" class="s1" d="m9.6 9.5q0.1 0 0.1 0 0.1 0 0.2 0 0.1-0.1 0.1-0.1 0-0.1 0-0.1 0.1-0.1 0.1-0.1 0.1-0.1 0.1 0 0.1 0.1 0 0.1 0 0.1 0 0.1-0.1 0.2-0.2 0.5 0 0.2 0 0.4 0 0.1-0.1 0.3 0 0.3 0 0.7 0 0.2 0 0.5 0 0.1-0.1 0.2 0 0.1-0.1 0-0.1-0.2-0.1-0.3-0.1-0.2-0.1-0.4 0-0.1 0-0.2-0.1-0.2 0-0.2 0.1 0 0.1-0.1 0-0.1-0.1-0.1-0.1 0-0.1-0.1-0.1-0.1-0.1-0.3 0-0.1 0-0.2 0-0.2 0-0.5 0-0.1 0-0.2 0 0 0-0.1-0.2 0-0.2 0.2 0 0.1 0 0.2 0 0 0 0.1 0.1 0 0 0.1 0 0 0 0-0.1 0-0.1 0 0-0.2-0.1-0.4 0-0.3 0.1-0.6 0-0.1 0-0.1 0-0.1 0.2-0.1 0 0 0 0 0-0.1 0.1-0.1 0-0.3 0.2-0.6 0-0.2 0.2-0.3 0.1-0.1 0.1-0.2 0-0.1 0-0.2 0-0.1 0.1-0.1 0.1 0 0.1 0 0.1 0 0.1-0.1 0.2-0.3 0.4-0.5 0.3-0.3 0.5-0.5 0-0.1 0-0.1 0.1 0.1 0.2 0.2 0 0 0 0.1-0.1 0-0.1 0.1-0.1 0.1-0.2 0.2-0.1 0.1-0.3 0.2-0.1 0-0.2 0.2 0 0 0 0.1-0.2 0.4-0.3 0.7-0.2 0.4-0.2 0.8-0.1 0.3-0.1 0.6 0 0.2-0.2 0.3 0 0 0 0zm10.3 2.9c0.1-0.1 0.2-0.1 0.3-0.2q0 0 0 0 0 0.3 0 0.5-0.1 0.4-0.3 0.7-0.1 0.1-0.2 0.1 0 0.1-0.1 0 0 0 0 0-0.1-0.1 0-0.2 0 0 0.1 0 0.1-0.1 0.2-0.2 0.1-0.2 0.1-0.4-0.1-0.1-0.1-0.3 0 0 0 0z"/>
</svg>