<svg version="1.2" xmlns="http://www.w3.org/2000/svg" viewBox="0 0 28 28" width="28" height="28"><style>.a{fill:#fff}</style><path  d="m13.7 27.5c7 0 12.7-5.6 12.7-12.6 0-6.9-5.7-12.6-12.7-12.6-6.9 0-12.6 5.7-12.6 12.6 0 7 5.7 12.6 12.6 12.6z"/><path class="a" d="m14 0.8c-7.5 0-13.6 6-13.6 13.6 0 7.5 6.1 13.6 13.6 13.6 7.6 0 13.6-6.1 13.6-13.6 0-7.6-6-13.6-13.6-13.6zm0 25.4c-6.5 0-11.8-5.3-11.8-11.8 0-6.5 5.3-11.8 11.8-11.8 6.5 0 11.8 5.3 11.8 11.8 0 6.5-5.3 11.8-11.8 11.8z"/><path class="a" d="m14.1 4.4c-5.5 0-10 4.5-10 10 0 5.5 4.5 9.9 10 9.9 5.5 0 9.9-4.4 9.9-9.9 0-5.5-4.4-10-9.9-10zm0 18.1c-4.5 0-8.2-3.6-8.2-8.1 0-4.5 3.7-8.2 8.2-8.2 4.5 0 8.1 3.7 8.1 8.2 0 4.5-3.6 8.1-8.1 8.1z"/><path class="a" d="m14 8c-3.5 0-6.3 2.9-6.3 6.4 0 3.5 2.8 6.3 6.3 6.3 3.5 0 6.4-2.8 6.4-6.3 0-3.5-2.9-6.4-6.4-6.4zm0 10.9c-2.5 0-4.5-2-4.5-4.5 0-2.5 2-4.6 4.5-4.6 2.5 0 4.6 2.1 4.6 4.6 0 2.5-2.1 4.5-4.6 4.5z"/></svg>