<svg version="1.2" xmlns="http://www.w3.org/2000/svg" viewBox="0 0 31 28" width="31" height="28"><style></style><path  d="m15.8 6.2c0.3 0.1 0.5 0 0.7 0 0-0.2-0.1-0.2-0.1-0.2-0.1-0.1-0.2-0.1-0.2-0.2q0-0.1 0.1-0.2c0.3-0.1 0.7-0.2 1 0 0.6 0.4 1.3 0.5 2 0.6q0.4 0.1 0.7 0.2 0.2 0 0.4 0.1 0.4 0.2 0.5 0.6c0.2 0.4 0.4 0.6 0.7 0.9 0.4 0.3 0.8 0.7 1.2 1.1q1.2 1.2 1.5 2.9 0.1 0.6 0.1 1.3 0 0.6 0 1.2 0.1 0.4-0.1 0.8c-0.4 0.9-0.8 1.9-1.3 2.8q-0.3 0.5-0.8 1-0.5 0.6-1.4 0.8-0.3 0.1-0.7 0.3-0.2 0.1-0.4 0c-0.2 0-0.2-0.1-0.2-0.3 0.1-0.1 0.1-0.1 0-0.2 0 0-0.1 0-0.2 0.1-0.6 0.2-1.2 0.4-1.9 0.6q-0.9 0.2-1.8 0.2-0.1 0-0.2 0-0.1-0.1-0.2 0c0 0.1 0 0.1 0.1 0.2 0.1 0.1 0.2 0.1 0.2 0.2-0.1 0.1-0.2 0.1-0.3 0.1q-0.2 0-0.4-0.1-0.2 0-0.4-0.1-0.3-0.1-0.5 0c0 0-0.1 0.1-0.1 0.1 0 0.1 0 0.1 0.1 0.2 0 0 0.1 0 0.1 0.1 0 0.1-0.1 0.1-0.2 0.1q-0.1 0-0.2 0.1-0.1 0-0.1 0.1 0 0.1 0.1 0.2 0.1 0.1 0.2 0.2 0.1 0 0.2 0.1 0 0-0.1 0c-0.2 0.3-0.3 0.3-0.6 0q-0.1 0-0.2-0.1c-0.1-0.1-0.2-0.1-0.3 0q0 0 0 0-0.2 0.2-0.4 0.1-0.5-0.2-1.1-0.4-0.5-0.2-1-0.4-0.6-0.2-1.1-0.7-0.2-0.1-0.4-0.2 0-0.1-0.2-0.1c0 0 0 0.1 0.1 0.1q0.2 0.3 0.3 0.6 0.3 0.3 0.4 0.7 0 0.2 0.1 0.2 0.7 0.2 1.3 0.6 0.4 0.4 0.9 0.8 0.2 0.2 0.4 0.3 0.4 0.1 0.7 0.2 0.2 0.1 0.3 0.3 0.1 0.1 0.2 0.2-0.1 0.1-0.1 0.1-0.3 0-0.5-0.1-0.2-0.1-0.3-0.1c-0.2-0.1-0.3-0.1-0.5-0.1-0.1 0.2-0.1 0.4-0.1 0.5 0 0.1 0.1 0.1 0.1 0.1q0.4 0.1 0.7 0.2c0.2 0.1 0.4 0.3 0.7 0.4 0.1 0 0.2 0 0.4 0.1q0 0.5 0.2 1-0.1 0.1-0.1 0.1c-0.5 0.4-1 0.6-1.6 0.6q-0.9 0.1-1.5-0.5-0.2-0.2-0.3-0.4c0.1-0.1 0.3-0.1 0.4-0.1q0.3 0 0.6 0 0.4 0 0.7 0c0.1-0.1 0.2-0.1 0.2-0.1 0-0.1 0-0.1-0.1-0.1-0.3-0.3-0.6-0.5-1-0.6q-0.6-0.1-1-0.6-0.3-0.4-0.8-0.7-0.6-0.4-1.1-0.9-0.7-0.7-1.1-1.4-0.2-0.2-0.3-0.4c0-0.1-0.1-0.2 0-0.3 0.1-0.1 0.2-0.1 0.3-0.1q0.1 0 0.2 0c0 0 0.1 0 0.2 0 0-0.1-0.1-0.1-0.1-0.2q-0.3-0.5-0.6-1-0.3-0.4-0.5-1-0.1 0 0-0.1c0.3 0.1 0.6 0.4 0.9 0.6 0.1 0 0-0.1 0-0.2q-0.1-0.3-0.3-0.6-0.1-0.2-0.2-0.4-0.1-0.2-0.1-0.4c0-0.3 0-0.4 0.2-0.5 0.2-0.1 0.2-0.1 0.1-0.3q-0.1-0.4-0.3-0.8-0.2-0.4-0.5-0.7 0 0-0.1 0c0.3-0.6 0.3-0.7-0.1-1.3q0 0 0.1-0.1 0.2-0.2 0.4 0 0.2 0.3 0.3 0.7 0.2 0.5 0.4 1 0.2 0.8 0.6 1.6 0.1 0.3 0.3 0.6 0.1 0.2 0.2 0.2c0.1 0 0.1-0.1 0.1-0.1q0.1-0.2 0.3-0.1 0.1 0.1 0.2 0.2c0.1 0.1 0.1 0.1 0.2 0.2 0.1-0.1 0-0.1 0-0.2q-0.4-0.9-0.8-1.8-0.3-0.9-0.4-1.9 0-0.6 0-1.1 0.1-1.1 0.4-2c0.3-0.6 0.6-1.3 1-1.8 0.4-0.6 1-1 1.7-1.3q0 0 0.1 0c0 0 0 0.1-0.1 0.1q-0.2 0.6-0.5 1-0.2 0.3-0.4 0.6-0.1 0.2-0.1 0.3c0 0 0.1 0 0.1 0q0.2-0.2 0.4-0.5c0.3-0.4 0.7-0.8 1.2-1.1 0.4-0.3 1-0.6 1.5-0.9q0.6-0.5 1.5-0.6 0.1-0.1 0.3-0.1c-0.1-0.1-0.1-0.1-0.2-0.1q-0.4-0.2-0.8-0.1-0.2 0.1-0.3 0.2-0.5 0.2-1 0.2c-0.4 0-0.8 0-1.1 0.1-0.1 0-0.1-0.1 0-0.1 0.2-0.4 0.5-0.6 1-0.6q0.1-0.1 0.3-0.1c0.6-0.1 1.1-0.3 1.6-0.6 0.2-0.1 0.4-0.3 0.7-0.3q0.3-0.1 0.6 0 0.1 0 0.2 0c-0.1 0.2-0.3 0.2-0.4 0.3 0.2 0.1 0.2 0.3 0.2 0.4zm-0.5 3c-0.1-0.1-0.1-0.2-0.3-0.1-0.4 0-0.8 0.2-1.1 0.5q-0.2 0.3-0.4 0.5c-0.4 0.3-0.8 0.6-1.1 0.9q-0.6 0.5-0.7 1.2-0.1 0.9 0 1.8 0 0.6 0.3 1.2c0.4 0.8 1 1.4 1.8 1.7q0.2 0.1 0.3 0.2 0.1 0.1 0.1 0.2c-0.1 0.2-0.1 0.2 0.1 0.2 0.8 0.4 1.6 0.6 2.5 0.4q1.8-0.3 2.7-1.7 0.1-0.1 0.1-0.2c-0.2-0.2-0.2-0.4-0.1-0.6q0.1 0 0.1-0.1 0.2-0.3 0.3-0.7 0.3-1.1-0.1-2.1-0.1-0.4-0.3-0.8c0-0.2-0.1-0.4 0-0.7q0 0 0 0 0-0.1-0.1-0.1-0.5-0.3-0.9-0.6c-0.6-0.4-1.1-0.4-1.8-0.4-0.5 0.1-1.1 0-1.6 0q-0.2 0-0.3 0-0.2-0.1-0.1-0.3 0-0.1 0.2-0.2 0.1 0 0.2 0 0.1-0.1 0.2-0.2z"/><path  d="m21.4 26.4c0-0.1 0.1-0.1 0.1-0.2q0.1-0.1 0.2-0.3 0.1-0.1 0.1-0.3-0.2-0.1-0.4 0-0.4 0.1-0.9 0.3-0.5 0.2-1.1 0.2c-0.2 0-0.3 0.1-0.5 0.1q-0.3 0.1-0.6 0.1-0.3 0-0.4 0.2-0.1 0.2-0.2 0.3 0 0.1-0.2 0.2c-0.7 0.1-1.4 0.2-2.1 0.2q-0.7 0.1-1.4-0.1 0 0-0.1 0 0.1-0.3 0.4-0.3 0.1 0 0.2 0.1 0.7 0.2 1.2-0.3 0.2-0.3 0.5-0.5 0.5-0.4 1.1-0.4 0.1 0 0.3 0 0.7 0.1 1.4-0.1 0.6-0.2 1.1-0.3 0.1 0 0.1 0 0-0.2-0.1-0.4-0.1-0.1-0.2-0.1-0.1 0-0.2 0.1-0.9 0.2-1.8 0.2-0.3 0-0.4-0.2-0.2-0.1-0.4-0.1c-0.4 0.1-0.8 0-1.2 0q-0.3 0-0.7 0-0.1-0.1 0-0.3c0.1-0.1 0.1-0.1 0.2-0.1q0.4 0 0.7 0 0.4-0.1 0.8-0.3 0 0 0 0 0.1-0.1 0.1-0.2c-0.1 0-0.3 0-0.4 0-0.5 0.1-1 0.1-1.4-0.1-0.3-0.2-0.6-0.2-0.9-0.3q-0.3-0.1-0.6-0.2c-0.1-0.1-0.1-0.1-0.2-0.2q0.3-0.3 0.6-0.3c0.4-0.1 0.7 0 1 0q0.2 0.1 0.2 0.2c0 0.3 0 0.3 0.3 0.4q0.3 0 0.6 0 0.6 0.1 1.3 0.1 0.1-0.1 0.2 0 0.3 0 0.4 0.2 0 0.1 0.1 0.2c0.7-0.2 1.4-0.4 1.9-0.9-0.1-0.1-0.3-0.1-0.5-0.1q-0.2 0.1-0.4 0.2-0.4 0.2-0.9 0.1-0.1-0.1-0.2-0.1-0.2 0-0.2-0.2 0.1-0.1 0.2-0.2 0.1-0.1 0.2-0.1c0.5-0.1 1-0.4 1.4-0.6q0.2-0.1 0.3-0.2 0.3-0.2 0.7-0.2 0.4 0 0.7-0.3c0.3-0.1 0.5-0.4 0.8-0.6 0.6-0.5 1.1-1 1.8-1.4 0.6-0.5 1-1.2 1.3-1.9q0.3-1.2 0.4-2.4 0.1-0.6 0.1-1.2-0.1-0.5-0.1-1.1 0-0.1-0.2-0.2 0 0-0.1-0.1-0.1-0.1 0-0.3 0.2-0.3 0.3-0.7 0.1-0.9-0.5-1.6-0.1-0.1-0.3-0.1 0 0-0.1 0-0.2 0-0.2-0.2-0.3-0.4-0.5-0.9-1.5-2.4-4.2-3.3-0.8-0.3-1.7-0.5c-0.1 0-0.2 0-0.3 0.1q-0.1 0.1-0.2 0.1-0.4 0.1-0.8 0.1c-0.8 0-1.6 0.1-2.4 0.4q-0.3 0.1-0.7 0.2c-0.3 0-0.7 0-1 0.1q-0.7 0.1-1.3 0.5-0.8 0.5-1.6 1-0.5 0.3-0.8 0.6-0.1 0.2-0.3 0.2-0.1 0-0.3 0-0.2 0.1-0.3 0.3-0.2 0.3-0.2 0.7-0.2 0.8-0.5 1.6-0.3 0.6-0.6 1.3c0 0 0 0.1-0.1 0.2q-0.3-0.1-0.2-0.5 0 0 0.1-0.1c0-0.1 0-0.2-0.1-0.4q-0.1-0.1-0.1-0.2-0.1-0.2-0.1-0.3 0.2-0.3 0.3-0.5 0.1-0.3 0.2-0.6 0.2-0.4 0.7-0.6 0-0.1 0.1-0.1 0 0 0 0-0.1-0.2-0.2-0.2-0.2-0.1-0.3 0.1-0.1 0.1-0.2 0.3-0.1 0.1-0.2 0.1c-0.1 0.2-0.2 0.2-0.4 0q-0.1-0.1-0.2-0.2 0 0-0.1-0.1c-0.4 0.4-0.6 1.3-0.4 1.6 0-0.1 0.1-0.2 0.1-0.3 0.1-0.1 0.1-0.3 0.2-0.4q0.1-0.2 0.3-0.3 0 0 0.1 0 0 0 0 0c-0.1 0.3-0.1 0.7-0.2 1q-0.1 0.4-0.5 0.7 0 0-0.1 0 0 0.1 0 0.2 0.2 0.8 0.1 1.5-0.1 0.8-0.1 1.6c0.1 0.5 0.1 0.9 0.1 1.4q0.2 0.7 0.5 1.3c0.1 0.1 0.2 0.2 0.1 0.3q0 0.2-0.1 0.3-0.2 0.1-0.4-0.1 0-0.1 0-0.1c-0.4-0.7-0.6-1.4-0.6-2.2 0-0.4 0-0.9 0-1.3q0-0.2 0-0.3 0-0.2-0.1-0.4-0.1 0-0.2-0.1-0.2-0.2 0-0.3 0 0 0-0.1c0.3-0.2 0.4-0.4 0.3-0.8-0.1-0.3-0.1-0.7-0.1-1q0-0.1 0-0.1-0.1-0.3-0.3-0.4-0.1 0-0.1 0-0.1 0-0.1-0.2c-0.1-0.3 0-0.6 0.1-0.9q0.1-0.4 0.3-0.7 0-0.1 0-0.3-0.2 0.1-0.3 0.3 0 0.1 0 0.3-0.1 0.1-0.1 0.3-0.2 0.4-0.6 0.3-0.1-0.2 0-0.4 0.1-0.2 0.2-0.4 0.1-0.1 0.2-0.2c0.1-0.3 0.2-0.5 0.1-0.7q0-0.1 0.1-0.1 0.6-0.4 0.7-1 0-0.4 0.2-0.7 0.1 0 0.1-0.1 0.3-0.3 0.6-0.1 0.1 0.1 0.2 0.2 0.1 0.1 0.3 0 0.4-0.1 0.7-0.5 0.1-0.1 0.1-0.3c-0.1 0-0.1 0-0.2 0.1q-0.1 0-0.2 0.1-0.2 0.1-0.3 0.2c-0.2 0.1-0.4 0-0.4-0.2q0-0.2 0-0.3 0-0.1 0-0.2 0 0 0.1 0 0.3-0.1 0.5-0.5 0.1-0.1 0.2-0.3c0.2-0.4 0.4-0.8 0.8-1q0.2-0.2 0.5-0.3 0 0 0.1-0.1c0-0.1 0-0.1-0.1-0.2-0.1 0-0.2 0-0.2-0.2q0-0.3 0.2-0.3 0.2-0.1 0.5-0.1c0.1 0 0.3 0 0.4 0 0-0.1 0-0.1-0.1-0.1-0.2-0.3-0.1-0.5 0-0.7 0.1-0.1 0.2-0.1 0.2-0.1q0.5 0 1-0.1 0.4-0.2 0.7-0.4 0.1-0.1 0.3-0.2 0.4-0.2 0.8 0c0.2 0.1 0.2 0.1 0.4 0 0.2-0.3 0.6-0.4 1-0.4q0.8-0.1 1.6-0.1 0.6 0.1 1.2 0.1 0.6 0.1 1.2 0.1 0.1 0 0.2 0.1c-0.2 0.2-0.5 0.1-0.6 0.2q0 0.3 0.2 0.4 0.4 0.2 0.8 0.1c0.6-0.1 1.2 0 1.8 0.1q1.9 0.5 3.5 1.7 1.2 1 2.1 2.2 0.5 0.8 1 1.7 0.5 1 1 2 0.5 0.8 0.4 1.7 0 0.2-0.1 0.3-0.2 0-0.3-0.2-0.1-0.1-0.1-0.2 0-0.3-0.2-0.6c-0.3-0.4-0.4-0.8-0.5-1.3q-0.3-1.2-1-2.1-0.8-1-1.5-2c-0.3-0.3-0.7-0.5-1.1-0.6q-0.1 0-0.2 0c0 0.1 0 0.1 0.1 0.2q0.3 0.6 0.9 1 0.4 0.2 0.7 0.5 0.5 0.4 0.9 1c0.1 0.1 0.1 0.2-0.1 0.3-0.1 0.1-0.1 0.2 0 0.4q0.1 0.2 0.2 0.4c0 0.1 0.1 0.2 0.1 0.3q-1-0.9-2.1-1.7c-0.1 0.1 0 0.1 0 0.2 0 0.1 0.1 0.3 0.2 0.4q0.2 0.1 0.3 0.3 0.2 0.3 0.1 0.6 0 0.1-0.1 0.1 0 0.3 0.2 0.4 0.1 0.1 0.2 0.1c0.1 0 0.1-0.1 0.2-0.2q0.1-0.4 0.4-0.1 0.1 0.1 0.2 0.2 0 0.1 0.1 0.2 0.1 0.5 0.4 0.8c0.2 0.3 0.3 0.7 0.2 1q0 0.3 0 0.5 0 0.3 0.2 0.5c0.2 0.2 0.2 0.4 0.1 0.6q0 0.2 0.1 0.4c0 0.1 0 0.2 0.1 0.2 0 0 0.1-0.1 0.1-0.2q0 0 0 0c0.1-0.1 0.1-0.2 0.2-0.2 0.1 0.1 0.1 0.1 0.2 0.2q0.1 0.3 0.1 0.5 0 1.3-0.3 2.5-0.1 0.3-0.3 0.5c-0.1-0.1-0.1-0.2-0.1-0.3 0-0.1 0-0.3 0-0.4-0.1 0.1-0.1 0.1-0.1 0.2-0.1 0.4-0.2 0.9-0.4 1.3q-0.5 1.7-1.5 3.1-0.5 0.6-1 1.2c-0.2 0.3-0.4 0.5-0.8 0.6q-0.2 0.1-0.3 0.3c0 0.1 0 0.1 0.1 0.2q0.1 0.1 0.3 0.1 0.3-0.1 0.5-0.2 0.6-0.3 1-0.8 0.8-1 1.5-2c0.5-0.8 1-1.7 1.2-2.6q0.2-0.6 0.4-1.2 0-0.3 0.2-0.6 0.2-0.3 0.2-0.6 0-0.2 0-0.3 0-0.1 0-0.2c0.1-0.1 0.3-0.1 0.4-0.1 0.1 0 0.2 0.2 0.1 0.3q0 0.3 0 0.6c-0.2 0.7-0.3 1.3-0.4 2-0.2 0.5-0.4 1-0.5 1.5q-0.2 0.6-0.4 1.2-0.1 0.1-0.1 0.2c0 0 0.1 0 0.1 0q0.2-0.1 0.3-0.2 0.1-0.2 0.2-0.3 0.6-1.3 1-2.8 0.2-1 0.5-2.1 0-0.1 0.1-0.2 0-0.2 0.2-0.2 0.1-0.1 0.2-0.2 0-0.2 0-0.3c0-0.3 0.2-0.4 0.4-0.6q0 0 0.1 0.1 0 0.2 0 0.5c0.1 0.7 0 1.4-0.2 2q-0.2 0.7-0.5 1.4c-0.1 0.3-0.2 0.6-0.4 0.8q-0.1 0-0.1 0.1c0 0.4-0.1 0.8-0.2 1.2q-0.3 0.9-0.8 1.6c-0.2 0.5-0.5 1.1-0.7 1.6q-0.1 0.2-0.3 0.3-0.2 0.1-0.3 0.2-0.2 0.2-0.4 0.3-0.4 0.3-0.3 0.8 0 0.2 0 0.4 0.1 0.1-0.1 0.2-0.1 0.1-0.2 0.2-0.2 0-0.3 0.1-0.2 0.1-0.1 0.3 0 0.2 0 0.3 0 0.1-0.1 0.2-0.1 0.2-0.3 0.3-0.3 0.1-0.5-0.1-0.3-0.3-0.5 0.1-0.1 0-0.1 0.1-0.1 0.3-0.2 0.4-0.2 0.2-0.4 0.3-0.5 0-0.9 0.4c-0.2 0-0.3 0.1-0.4 0.2-0.1 0-0.2 0-0.4-0.1zm-2.5-24.1q0.1 0.1 0.1 0.1 0 0 0.1 0.1 0.6 0.3 1.2 0.4c0.6 0.2 1.1 0.3 1.7 0.3 0 0 0.1 0.1 0.1 0q0 0-0.1-0.1-0.2-0.1-0.5-0.2-0.3-0.1-0.7-0.2c-0.3-0.1-0.6-0.3-0.8-0.6q0 0-0.1 0-0.5 0.1-1 0.2zm-10.7 4.8q0.5 0.4 0.8-0.2 0.3-0.7 0.9-1.1c0.1 0 0.1-0.1 0.1-0.1 0.1-0.2 0.1-0.4 0-0.5 0-0.2-0.3-0.3-0.4-0.2q-0.4 0.3-0.6 0.7c-0.3 0.4-0.5 0.9-0.8 1.4q0 0 0 0zm3.2-3.9c0.1 0.1 0.1 0.1 0.2 0q0.2-0.1 0.3-0.2 0.2-0.1 0.4-0.1 0.5 0 0.9-0.1 0.6-0.1 1.2 0 0.4 0 0.8-0.1 0.2-0.1 0.4-0.4c-0.1 0-0.2-0.1-0.3-0.2-0.1-0.1-0.1-0.3-0.2-0.4q-0.1 0-0.1 0.1-0.6 0.2-1.2 0.4-0.7 0.1-1.3 0.3-0.6 0.1-1.1 0.6 0 0 0 0.1zm7.8 21c0 0.1 0 0.2 0.1 0.2q0.1-0.1 0.2-0.1 0.7 0 1.4-0.1c0.2 0 0.3 0 0.3-0.2q0.1-0.3 0.4-0.3c0.5 0 0.9-0.2 1.2-0.4q0.4-0.2 0.7-0.5c0.5-0.3 0.9-0.6 1.4-0.8 0.4-0.1 0.7-0.4 0.8-0.7 0.1-0.2 0-0.3-0.2-0.4-1.7 1.8-3.9 2.8-6.3 3.3zm-8.5-18.5q0.1 0 0.1-0.1 0.4-0.1 0.7-0.3c0.8-0.3 1.5-0.7 2.4-0.9q0.1-0.1 0.2-0.2 0-0.2 0.3-0.1 0.2 0.1 0.5 0.1 0.2 0 0.4 0 0.2-0.1 0.4 0.1 0.3 0.1 0.6 0.2 0.2 0 0.3 0 0.2 0.1 0.3-0.1 0.3-0.3 0.7-0.2 0.3 0.1 0.5 0.2 0.1 0.1 0.2 0 0.1-0.1 0.3-0.2 0.1-0.1 0.2-0.1 0.3 0.1 0.6 0.2 0.4 0.1 0.8 0.2c0 0 0.1 0 0.1 0q0 0 0 0-0.2-0.2-0.5-0.3-0.3-0.1-0.6-0.3-0.2-0.2-0.4-0.4c0-0.1 0-0.1 0.1-0.2 0 0 0.1 0 0.1-0.1q-0.3-0.1-0.6-0.2-0.5-0.2-1-0.2c0 0-0.1 0-0.1 0 0.1 0.1 0.1 0.1 0.2 0.1 0.2 0.1 0.3 0.2 0.2 0.4q-0.1 0.1-0.3 0.1-0.2 0-0.3 0-0.4 0-0.8 0-0.7 0-1.4 0-0.7 0.1-1.3 0.3c-0.6 0.3-1.3 0.5-1.9 0.6q-0.3 0-0.6 0.2-0.3 0.1-0.4 0.4-0.1 0.3 0 0.7 0 0 0 0.1zm6.4-3.8c-0.2-0.2-0.4-0.3-0.6-0.3q-0.2 0-0.5 0-0.1 0-0.2 0.1 0 0 0 0c0.4 0.2 0.8 0.3 1.3 0.2z"/><path fill-rule="evenodd" d="m2.6 10.9q0.2 0.1 0.4 0 0.2 0 0.4-0.1 0.2 0 0.2-0.2 0.1-0.1 0.2-0.3 0-0.2 0.2-0.2 0.2-0.1 0.3 0 0.1 0.2 0 0.4 0 0.1-0.1 0.2c-0.3 0.4-0.4 0.8-0.4 1.2q-0.1 0.6-0.1 1.1-0.1 0.3-0.2 0.6-0.1 1-0.1 1.9 0.1 0.6 0.1 1.3 0 0.3-0.2 0.5-0.2 0.2-0.4-0.1-0.2-0.3-0.3-0.7-0.2-0.4-0.2-0.9-0.1-0.3-0.1-0.7 0-0.3 0.2-0.4 0.1-0.1 0.2-0.2 0-0.2-0.2-0.3-0.2-0.1-0.4-0.3-0.2-0.2-0.2-0.6 0-0.3 0-0.6 0-0.6 0-1.3 0-0.2 0-0.5 0-0.1-0.1-0.2c-0.2 0-0.3 0.1-0.4 0.3q-0.1 0.3 0 0.6 0.1 0.1 0.1 0.3 0 0.1 0 0.2-0.1 0.2-0.2 0.1-0.1-0.1-0.1-0.2-0.2-0.4-0.3-0.9-0.1-0.8 0.1-1.6 0.1-0.1 0.1-0.2c0.1-0.2 0.2-0.3 0.5-0.3q0 0 0.1 0c0.1-0.1 0.1-0.1 0.1-0.2 0.2-0.5 0.3-0.9 0.5-1.4q0.2-0.5 0.6-0.9 0.2-0.2 0.3-0.5 0-0.2 0.1-0.4 0-0.3 0.3-0.3 0 0 0.1 0c0.1 0 0.2-0.1 0.3-0.2 0.3-0.6 0.7-1 1.1-1.5q0.5-0.6 1.1-1.3 0 0 0.1-0.1 0.2 0.1 0.4 0.4 0.1 0.1 0 0.3-0.1 0.1-0.2 0.2-0.3 0.3-0.6 0.6-0.2 0.3-0.6 0.5-0.4 0.1-0.5 0.4-0.1 0.2-0.2 0.4-0.3 0.9-0.7 1.8c-0.3 0.7-0.4 1.4-0.5 2.1q-0.2 0.7-0.2 1.3c-0.1 0.4-0.2 0.7-0.5 0.8q-0.1 0.1-0.1 0.1zm26.4 7.3c0.2-0.1 0.5-0.2 0.7-0.4 0.1 0 0.1 0.1 0.1 0.2q0.1 0.6 0 1.2-0.2 0.9-0.8 1.7-0.2 0.2-0.4 0.3-0.1 0.1-0.3 0.1 0-0.1-0.1-0.1c-0.2-0.2-0.2-0.4 0-0.5q0.1-0.1 0.2-0.2c0.2-0.1 0.4-0.3 0.6-0.5q0.3-0.4 0.2-1-0.1-0.3-0.2-0.6c0 0 0-0.1 0-0.2z"/></svg>