<svg version="1.2" xmlns="http://www.w3.org/2000/svg" viewBox="0 0 28 28" width="28" height="28"><style></style><path  d="m14.5 27.8q-0.5 0-1 0-0.2 0-0.4-0.1c-0.2 0-0.3 0-0.4 0-0.3 0-0.5-0.1-0.7-0.1q-0.1-0.1-0.2-0.1c-0.2 0-0.4 0-0.5-0.1q-0.1 0-0.1 0c-0.3 0-0.5-0.2-0.8-0.2-0.2-0.1-0.4-0.2-0.6-0.3-0.2 0-0.3-0.1-0.5-0.1-0.1-0.1-0.3-0.2-0.5-0.3q-0.2 0-0.3 0.1-0.4 0.4-0.9 0.7-0.2 0.1-0.4 0.2c-0.2 0.1-0.4 0.1-0.6 0.3q0 0 0 0c-0.6 0.1-1.2 0.2-1.8 0.1-0.2 0-0.4-0.1-0.5-0.1q-0.1 0-0.1 0c-0.1-0.1-0.4-0.1-0.5-0.2-0.1-0.1-0.3-0.2-0.4-0.2q-0.8-0.4-1.3-1.2-0.3-0.3-0.5-0.8-0.3-0.6-0.4-1.2-0.1-0.5 0-1 0-0.4 0.1-0.8 0.1-0.3 0.2-0.6 0.2-0.3 0.4-0.6c0.2-0.4 0.5-0.7 0.8-1q0.3-0.1 0.5-0.3 0.2-0.1 0.5-0.3c0.2-0.1 0.4-0.1 0.6-0.2q0 0 0 0c0.6-0.1 1.1-0.3 1.6-0.2 0.2 0.1 0.5 0.1 0.7 0.2q0.3 0.1 0.6 0.2 0.3 0.1 0.5 0.2 0.2 0.2 0.5 0.3 0.2 0.2 0.5 0.5c0.2 0.3 0.4 0.5 0.6 0.9q0.2 0.3 0.3 0.7c0.2 0.6 0.3 1.2 0.2 1.8q0 0.3-0.1 0.7 0 0.1-0.1 0.2-0.1 0.3 0.2 0.4 0.3 0.1 0.6 0.2 0 0 0.1 0c0.2 0.1 0.4 0.2 0.6 0.3 0.3 0.1 0.6 0.1 0.9 0.2q0 0 0 0c0.4 0 0.9 0.2 1.3 0.2 0.4 0 0.8 0.1 1.3 0.1q0.5 0 1.1-0.1 0.1 0 0.3 0c0.2 0 0.4 0 0.5-0.1q0.1 0 0.1 0c0.4 0 0.7-0.2 1.1-0.2 0.3-0.1 0.5-0.1 0.7-0.3q0.1 0 0.1 0c0.2 0 0.4-0.1 0.6-0.2q0.3-0.1 0.5-0.2 0.2-0.2 0.5-0.3 0.2 0 0.3-0.1 0.5-0.3 0.9-0.6 0.4-0.3 0.9-0.6 0.4-0.4 0.7-0.7 0.5-0.4 0.9-0.9 0.3-0.4 0.5-0.8 0.3-0.4 0.6-0.8 0.2-0.4 0.4-0.7c0.1-0.2 0.1-0.4 0.2-0.5q0.1-0.2 0.2-0.4 0.1-0.3 0.2-0.6c0.1-0.3 0.1-0.5 0.2-0.8q0.1 0 0.1 0c0-0.3 0.1-0.6 0.2-1 0-0.2 0.1-0.5 0.1-0.7q0.1-1.1 0-2.1 0-0.4 0-0.7c0-0.2-0.1-0.4-0.1-0.5 0-0.4-0.2-0.7-0.2-1.1-0.1-0.2-0.1-0.5-0.3-0.7q0-0.2 0-0.3c0-0.2 0.1-0.2 0.2-0.3q0.3-0.3 0.7-0.6c0.2-0.1 0.3-0.1 0.4 0.2 0.1 0.2 0.1 0.4 0.2 0.6q0.1 0.1 0.1 0.1 0 0.3 0.1 0.5 0.1 0.1 0.1 0.2c0 0.1 0 0.2 0.1 0.3q0 0.1 0 0.1c0 0.4 0.1 0.7 0.2 1 0 0.3 0 0.6 0 0.9q0.2 0.9 0.1 1.7c-0.1 0.5-0.1 0.9-0.2 1.4 0 0.3-0.1 0.5-0.1 0.8q0 0.1 0 0.2-0.1 0.1-0.1 0.2 0 0.2-0.1 0.4-0.1 0-0.1 0c0 0.3-0.1 0.5-0.2 0.8 0 0.2-0.1 0.4-0.2 0.6q-0.1 0.2-0.2 0.4c-0.1 0.2-0.2 0.5-0.4 0.8q-0.1 0.3-0.3 0.7-0.3 0.4-0.6 0.8-0.2 0.3-0.5 0.7-0.4 0.4-0.8 0.9-0.5 0.4-0.9 0.9-0.5 0.3-0.9 0.7-0.4 0.3-0.9 0.5-0.3 0.2-0.6 0.4-0.2 0.1-0.5 0.2-0.2 0.1-0.5 0.3-0.2 0.1-0.5 0.2-0.1 0-0.3 0.1c-0.2 0-0.4 0.2-0.6 0.2q0 0-0.1 0c-0.2 0.1-0.5 0.1-0.8 0.2q0 0.1-0.1 0.1c-0.5 0-0.9 0.2-1.4 0.2q-0.1 0-0.2 0c-0.1 0.1-0.3 0.1-0.5 0.1q-0.4 0-0.9 0zm-9.1-1.4c0.3 0 0.6 0 0.9-0.2q0.1 0 0.1 0c0.2 0 0.3-0.1 0.5-0.2q0.2-0.1 0.3-0.2 0-0.1 0-0.2-0.3-0.2-0.7-0.4-0.6-0.4-1.1-0.9-0.7-0.7-1.3-1.5c-0.1 0-0.1-0.1-0.1-0.1 0.1-0.1 0.2-0.2 0.3-0.2q0.2 0.1 0.4 0.2 0.2 0.1 0.4 0.2 0.1 0.1 0.2 0.2 0.3 0.1 0.5 0.2c0.3 0.1 0.6 0.2 0.8 0.3 0.2 0 0.5 0.1 0.6 0.2q0.4 0.3 0.7 0.5c0.1 0.1 0.2 0 0.3-0.1 0-0.5 0.1-1-0.1-1.5q-0.2-0.5-0.5-0.9-0.4-0.5-0.9-0.7c-0.1-0.1-0.3-0.1-0.4-0.2q-0.2-0.1-0.4-0.1c-0.5 0-1-0.1-1.5 0.1q-0.3 0.1-0.5 0.3-0.3 0.2-0.6 0.5-0.2 0.2-0.4 0.5-0.1 0.2-0.2 0.5-0.1 0.3-0.1 0.5 0 0.4 0 0.8c0 0.3 0.1 0.5 0.2 0.8q0.3 0.5 0.7 0.9c0.3 0.2 0.6 0.4 1 0.5q0 0 0.1 0.1 0.1 0 0.2 0 0.3 0.1 0.6 0.1z"/><path  d="m1 14.6c0-0.5 0-0.9 0.1-1.4 0-0.4 0-0.7 0.1-1.1 0.1-0.4 0.1-0.7 0.2-1q0.1-0.1 0.1-0.3 0-0.1 0.1-0.3 0 0 0 0c0-0.3 0.1-0.5 0.2-0.7q0.1-0.3 0.2-0.6 0.1-0.2 0.2-0.4 0.2-0.4 0.4-0.8 0.2-0.3 0.4-0.6 0.1-0.2 0.2-0.3 0.4-0.8 1-1.5 0.5-0.5 1-1 0.6-0.6 1.2-1 0.4-0.3 0.7-0.6 0.3-0.2 0.7-0.3 0.3-0.3 0.7-0.4 0.2-0.2 0.5-0.3 0.3-0.1 0.5-0.2 0 0 0.1 0c0.2-0.1 0.4-0.2 0.6-0.3 0.3 0 0.5-0.1 0.7-0.2q0.1 0 0.2 0c0.2-0.1 0.3-0.1 0.4-0.2q0.1 0 0.1 0c0.3 0 0.6-0.1 0.9-0.1 0.8-0.1 1.5-0.2 2.2-0.2 0.4 0 0.8 0.1 1.2 0.1 0.2 0 0.5 0 0.7 0.1 0.2 0 0.5 0 0.8 0.1 0.2 0.1 0.5 0.1 0.8 0.3q0 0 0 0c0.3 0 0.5 0.1 0.8 0.2q0.3 0.1 0.5 0.2 0.3 0.2 0.6 0.2 0.1 0.1 0.1 0.1 0.2 0.2 0.4 0 0.4-0.3 0.8-0.5c0.2-0.2 0.5-0.3 0.7-0.4 0.6-0.2 1.1-0.2 1.7-0.2q0.2 0 0.4 0 0.1 0.1 0.2 0.1c0 0 0.2 0 0.2 0 0.2 0.1 0.4 0.1 0.5 0.2q0.3 0.1 0.5 0.2 0.6 0.4 1.1 0.9 0.3 0.3 0.5 0.7 0.1 0.2 0.2 0.4c0.1 0.2 0.2 0.4 0.3 0.5q0 0 0 0.1c0.2 0.6 0.2 1.3 0.1 2 0 0.2-0.1 0.3-0.1 0.5q0 0.1 0 0.2-0.1 0-0.1 0c-0.1 0.3-0.2 0.6-0.4 0.8q-0.3 0.6-0.8 1-0.4 0.4-0.9 0.6-0.2 0.1-0.5 0.3c-0.3 0.1-0.5 0.1-0.8 0.2q-0.1 0-0.3 0-0.4 0-0.7 0-0.3 0-0.5-0.1 0 0-0.1 0c-0.3 0-0.6-0.2-0.9-0.3q-0.8-0.3-1.4-1-0.4-0.4-0.6-0.9c-0.2-0.3-0.3-0.6-0.4-0.9q-0.1-0.1-0.1-0.2 0-0.2 0-0.4-0.2-0.6 0-1.1 0-0.1 0-0.2c0-0.3 0.2-0.5 0.2-0.8q0 0 0-0.1c0.1-0.2 0.1-0.3-0.1-0.3-0.3-0.1-0.7-0.3-1-0.4-0.3-0.1-0.5-0.1-0.7-0.2-0.2-0.1-0.5-0.1-0.7-0.2-0.4-0.1-0.8-0.1-1.1-0.2q-0.9 0-1.8 0c-0.3 0-0.6 0-0.8 0q-0.6 0.1-1.1 0.2c-0.2 0.1-0.4 0.1-0.6 0.2-0.3 0.1-0.5 0.1-0.7 0.2q-0.3 0.1-0.7 0.2-0.3 0.1-0.5 0.2-0.2 0.1-0.4 0.2-0.3 0.2-0.6 0.3-0.3 0.2-0.6 0.4-0.4 0.2-0.7 0.5-0.4 0.3-0.7 0.6-0.5 0.5-1 1-0.5 0.5-0.9 1.1-0.3 0.4-0.5 0.8-0.2 0.4-0.4 0.8-0.1 0.2-0.3 0.4c0 0.2-0.1 0.4-0.2 0.6q0 0 0 0.1c0 0.2-0.2 0.4-0.2 0.6-0.1 0.3-0.1 0.6-0.3 0.9q0 0 0 0.1c0 0.3-0.1 0.7-0.2 1 0 0.9-0.1 1.7 0 2.5q0 0.2 0 0.4c0 0.4 0.1 0.8 0.2 1.2 0.1 0.3 0.1 0.5 0.2 0.8 0.1 0.2 0.1 0.3 0.2 0.5q0.1 0.1-0.1 0.2-0.5 0.3-0.9 0.7-0.2 0.1-0.3 0-0.1-0.1-0.1-0.2c-0.1-0.3-0.2-0.6-0.3-0.9q0 0 0 0c0-0.4-0.2-0.7-0.2-1q0-0.1 0-0.2c-0.1-0.1-0.1-0.3-0.1-0.5q-0.1-0.4-0.1-0.8c-0.1-0.3-0.1-0.6-0.1-0.9zm22.5-12c-0.4-0.1-0.7 0-1.1 0.2q-0.2 0-0.4 0.1-0.1 0.1 0 0.3 0.3 0.2 0.7 0.5c0.4 0.3 0.6 0.7 1 1.1q0.2 0.3 0.4 0.5 0.3 0.5 0.6 1 0.1 0.1 0 0.2c-0.1 0.1-0.1 0.1-0.2 0q-0.1 0-0.2 0-0.1-0.1-0.2-0.1-0.3-0.2-0.6-0.4-0.3-0.2-0.6-0.4-0.3-0.2-0.6-0.4-0.2-0.2-0.5-0.3-0.4-0.3-0.7-0.6c-0.1 0-0.2-0.1-0.2 0-0.1 0.2-0.2 0.3-0.2 0.5q0 0.4 0 0.8c0 0.1 0 0.3 0.1 0.5 0 0.2 0.1 0.4 0.2 0.6q0.2 0.3 0.4 0.6 0.3 0.3 0.7 0.5 0.3 0.2 0.7 0.3 0.7 0.1 1.4 0 0.1 0 0.2 0c0.1-0.1 0.3-0.2 0.5-0.3q0.4-0.2 0.7-0.6 0.3-0.2 0.4-0.5 0.2-0.3 0.2-0.6 0.1-0.4 0.1-0.9c0-0.3-0.1-0.7-0.2-1q-0.2-0.4-0.5-0.7c-0.3-0.4-0.7-0.7-1.2-0.8q0 0-0.1 0-0.2-0.1-0.4-0.1-0.2 0-0.4 0z"/></svg>