<svg version="1.2" xmlns="http://www.w3.org/2000/svg" viewBox="0 0 28 28" width="28" height="28"><style>.a{fill:#8f2e26}</style><path class="a" d="m14.1 8c-3.1 0-5.7 2.6-5.7 5.8 0 3.2 2.6 5.7 5.7 5.7 3.2 0 5.8-2.5 5.8-5.7 0-3.2-2.6-5.8-5.8-5.8zm0 8.6c-1.5 0-2.8-1.3-2.8-2.8 0-1.6 1.3-2.8 2.8-2.8 1.6 0 2.9 1.2 2.9 2.8 0 1.5-1.3 2.8-2.9 2.8z"/><path class="a" d="m25.3 13c-0.4-5.5-4.9-10-10.4-10.3v-2.5h-1.5v2.5c-5.6 0.3-10 4.8-10.4 10.4h-2.5v1.4h2.5c0.4 5.6 4.8 10 10.4 10.4v2.5h1.5v-2.5c5.5-0.4 10-4.8 10.4-10.4h2.4v-1.5zm-11.1 9c-4.5 0-8.2-3.7-8.2-8.2 0-4.5 3.7-8.2 8.2-8.2 4.5 0 8.2 3.7 8.2 8.2 0 4.5-3.7 8.2-8.2 8.2z"/><path fill-rule="evenodd" class="a" d="m2.7 5.9l-1.4 1.5v-6.5h6.3l-1.4 1.5h-3.5zm19.3-3.5l-1.5-1.5h6.5v6.4l-1.5-1.5v-3.4zm3.5 19.1l1.5-1.5v6.4h-6.4l1.5-1.4h3.4z"/><path class="a" d="m2.8 25v-3.5l-1.5-1.4v4.9 1.4h1.5 5l-1.5-1.4z"/></svg>