<svg version="1.2" xmlns="http://www.w3.org/2000/svg" viewBox="0 0 41 28" width="41" height="28"><defs><clipPath clipPathUnits="userSpaceOnUse" id="cp1"><path d="m9.69 0.23l-9.43 9.43v8.35l9.43 9.43h28.19l3.04-3.05v-21.12l-3.04-3.04z"/></clipPath></defs><style>.a{fill:#8f2e26}.b{fill:#fff}</style><path  d="m9.7 0.2l-9.4 9.5v8.3l9.4 9.4h28.2l3-3v-21.1l-3-3.1z"/><g clip-path="url(#cp1)"><path class="a" d="m40.9 26.6c-7.1 0-14-6-14-13.1 0-7.1 6.9-12.5 14-12.5"/><path fill-rule="evenodd" class="b" d="m40.9 2.2c-0.1 0-0.4 0-0.4-0.1q-0.1 0-0.1 0-0.2 0-0.3 0-0.1 0-0.1 0-0.1 0.1-0.3 0.1-0.4 0-0.8 0c-0.1 0-0.2 0-0.3 0.1 0 0 0 0-0.1 0q-0.2 0-0.4 0.1-0.1 0-0.1 0c0 0.1-0.2 0-0.3 0q-0.1 0-0.1 0.1c-0.1 0-0.2 0-0.2 0-0.1 0-0.2 0-0.2 0.1q-0.1 0-0.2 0c-0.1 0-0.1 0-0.2 0-0.1 0.2-0.3 0.1-0.4 0.2q-0.1 0-0.2 0.1-0.1 0-0.2 0.1-0.1 0-0.2 0-0.1 0-0.1 0c-0.1 0.2-0.2 0.1-0.3 0.2 0 0.1-0.1 0.1-0.2 0.1q-0.1 0-0.2 0.1c0 0.1-0.1 0-0.2 0.1 0 0-0.1 0-0.1 0-0.1 0.1-0.2 0.2-0.2 0.2q-0.2 0-0.3 0.2 0 0-0.1 0-0.2 0.1-0.3 0.2c0 0.1-0.1 0-0.1 0.1 0 0-0.1 0-0.1 0.1q-0.1 0-0.1 0c-0.1 0-0.2 0.1-0.3 0.2q0 0 0 0.1c-0.1 0-0.2 0.1-0.3 0.2q-0.1 0-0.2 0.1-0.1 0.1-0.2 0.2c-0.1 0.1-0.2 0.2-0.3 0.3q-0.2 0.1-0.4 0.3c-0.1 0.1-0.1 0.2-0.2 0.3q-0.1 0-0.1 0c0.1 0.1 0 0.1-0.1 0.1 0 0.1 0 0-0.1 0q-0.2-0.1-0.4-0.3c-0.1-0.1-0.3 0-0.4 0 0.1 0 0.2 0.2 0.3 0.3 0.1 0 0.2 0.1 0.3 0.2 0 0 0.1 0 0.1 0 0 0.1 0 0.1 0 0.1q-0.1 0.1-0.1 0.2c0 0.1-0.1 0.2-0.2 0.2q0 0.1-0.1 0.2-0.1 0-0.1 0.1 0 0 0 0.1c-0.1 0-0.1 0.1-0.2 0.2 0 0.1 0 0-0.1 0.1q0 0.1-0.1 0 0 0-0.1 0-0.1 0-0.2 0-0.1 0-0.1-0.2 0-0.1-0.1-0.2-0.1 0-0.1-0.1c-0.1-0.2-0.2-0.3-0.3-0.4q0 0 0 0-0.1-0.2-0.2-0.4 0-0.1 0-0.1 0.1-0.1 0.1-0.1 0.1-0.2 0.3-0.3 0 0 0-0.1c0-0.2 0.2-0.2 0.2-0.3q0.2-0.1 0.2-0.3c0.1 0 0.1-0.1 0.2-0.1q0.1-0.1 0.2-0.2 0.1-0.1 0.1-0.2c0.1-0.1 0.2-0.2 0.3-0.2q0.2 0 0.2-0.1 0-0.1 0-0.2 0.1-0.1 0.2-0.2c0.1-0.1 0.2-0.2 0.4-0.3 0 0 0.1-0.1 0.1-0.1 0.1-0.1 0.2-0.1 0.2-0.2 0 0 0.1-0.1 0.1-0.1 0.1 0.1 0.2-0.1 0.3-0.1q0.1-0.2 0.2-0.2 0.1 0 0.1-0.1c0.1-0.1 0.1-0.1 0.2-0.1q0.2-0.1 0.3-0.2c0.1-0.1 0.2-0.2 0.4-0.2 0.1-0.2 0.4-0.2 0.5-0.4 0 0 0.1 0 0.1 0q0.2-0.1 0.5-0.2 0.1-0.1 0.2-0.1c0.1 0 0.1-0.1 0.2-0.1 0 0 0.1 0 0.2-0.1q0 0 0 0 0.2 0 0.4-0.1c0-0.1 0.1-0.1 0.2-0.1 0.1 0 0.1 0 0.1-0.1q0 0 0.1 0c0.1 0 0.2-0.1 0.3-0.1q0.1 0.1 0.2 0c0 0 0.1 0 0.1 0q0.2-0.1 0.4-0.2c0.1 0 0.2 0 0.2 0 0.1 0 0.2 0 0.2-0.1 0 0 0.1 0 0.1 0 0.2 0 0.3 0 0.4-0.1q0 0 0.1 0 0.1 0 0.3 0c0.1 0 0.2 0 0.3-0.1q0 0 0.1 0 0.3 0 0.7 0 0.1 0 0.2 0c0.1-0.1 0.2-0.1 0.3-0.1 0.2 0 0.4 0.1 0.6 0q0.1 0 0.2 0c0.1 0 0.1-0.1 0.2-0.1m0 27.2c-0.5 0-0.9 0-1.3 0q0-0.1-0.1-0.1 0 0-0.1 0-0.3 0-0.7 0-0.1 0-0.2-0.1-0.1 0-0.2 0-0.1 0-0.3 0c0 0-0.1 0-0.2-0.1-0.1 0-0.2 0-0.3 0-0.1 0-0.2 0-0.2-0.1 0 0-0.1 0-0.2 0-0.1 0-0.2 0-0.3-0.1q0 0 0 0-0.2 0-0.3-0.1c-0.1 0-0.1-0.1-0.2 0q-0.1 0-0.2-0.1 0 0-0.1 0 0 0 0 0c-0.1-0.1-0.2-0.1-0.2-0.1-0.2 0-0.3-0.1-0.4-0.2q-0.2-0.1-0.4-0.1-0.1 0-0.1-0.1-0.1 0-0.1 0c-0.2-0.1-0.3-0.1-0.5-0.2-0.1 0-0.2-0.1-0.2-0.2q-0.1 0-0.1 0c-0.1 0-0.2-0.1-0.3-0.2-0.1 0-0.2-0.1-0.3-0.1-0.1-0.1-0.2-0.2-0.4-0.2 0 0 0-0.1 0-0.1-0.1 0-0.2-0.1-0.3-0.2q-0.1 0-0.1-0.1 0 0-0.1 0c-0.1 0-0.2-0.2-0.3-0.2q0-0.1-0.1-0.1c-0.1-0.1-0.3-0.1-0.3-0.3q-0.1 0-0.1-0.1c-0.1 0-0.2-0.1-0.3-0.1q0 0 0 0-0.2-0.3-0.4-0.5-0.1-0.1-0.2-0.2-0.2-0.1-0.3-0.3-0.1-0.1-0.2-0.2-0.1-0.1-0.2-0.1c-0.1-0.1-0.1-0.2-0.2-0.4-0.1-0.1-0.1-0.1-0.2-0.2q-0.1-0.1-0.2-0.2c0-0.1-0.1-0.2-0.2-0.3q0 0-0.1-0.1 0-0.1 0-0.1-0.1 0-0.1-0.1c0-0.1-0.1-0.2-0.2-0.3-0.1 0-0.1-0.1-0.1-0.2q-0.1-0.1-0.2-0.3c-0.1 0-0.1-0.1-0.1-0.1 0-0.1-0.1-0.2-0.1-0.2q0-0.1 0-0.1-0.1-0.1-0.1-0.2c0-0.1-0.1-0.1-0.1-0.2 0-0.1-0.2-0.2-0.2-0.4 0 0 0-0.1-0.1-0.1-0.1-0.1-0.1-0.3-0.2-0.5 0 0 0-0.1 0-0.1q-0.1 0-0.1-0.1 0 0 0-0.1c0-0.1-0.1-0.1-0.1-0.2q0-0.1-0.1-0.3 0 0 0 0c0-0.1-0.1-0.3-0.1-0.4q0.1 0 0-0.1c-0.1 0-0.1-0.1-0.1-0.1 0-0.1 0-0.3-0.1-0.3q0 0 0-0.1 0-0.1 0-0.2 0-0.1-0.1-0.3 0 0 0-0.1 0.1-0.1 0-0.3-0.1 0-0.1-0.1 0-0.2 0-0.4c0 0 0.1-0.1 0-0.2-0.1 0-0.1-0.1-0.1-0.1q0-0.3 0-0.5 0.1-0.1 0-0.2-0.1-0.1-0.1-0.2-0.1-0.1-0.1-0.1-0.2-0.1-0.4-0.1-2.4 0-4.9 0-0.2 0-0.3-0.1-0.1-0.1-0.3-0.1-0.4 0-0.9 0c0 0-0.1 0-0.2-0.1q0 0-0.1 0-0.4 0-0.8 0c-0.1 0-0.1 0-0.1 0.1 0 0-0.1 0-0.1 0-0.1 0-0.2 0-0.3 0q-0.1 0.1-0.1 0.1c0 0-0.1-0.1-0.2 0-0.1 0-0.2 0.1-0.3 0.1q-0.4 0-0.9 0c-0.1 0-0.2-0.1-0.3-0.1 0 0-0.1 0-0.1-0.1q0-0.1 0.1-0.1c0.1 0 0.1 0 0.1-0.1 0-0.1-0.1 0-0.1 0q-0.1 0-0.1 0c-0.1 0.1-0.2 0.2-0.4 0.3-0.1 0-0.2 0-0.2 0.1q-0.1 0-0.2 0-1.3 0-2.7 0c0 0-0.1 0-0.1-0.1q0 0 0-0.1c0.1-0.1 0.2-0.1 0.2-0.2q0 0 0-0.1c0.1-0.1 0.1-0.1 0.2-0.1q0.9 0 1.8 0 0.1 0 0.2 0 0 0 0 0c0.1-0.1 0.2-0.1 0.2-0.1q0.2 0 0.3 0 5.3 0 10.6 0c0.2 0 0.3-0.1 0.4-0.2q0.1 0 0.1 0c0-0.1 0-0.2 0.1-0.2q0-0.1 0-0.2c0-0.1 0.1-0.3 0-0.5 0-0.1 0-0.2 0.1-0.2q0-0.1 0-0.2 0-0.2 0-0.4 0-0.1 0.1-0.2 0.1-0.1 0-0.2 0-0.1 0-0.1 0.1-0.2 0.1-0.3c0-0.1 0-0.2 0.1-0.2q0 0 0-0.1 0-0.1 0.1-0.3c0 0 0-0.1 0-0.1q0.1 0 0-0.1c0-0.1 0.1-0.2 0.1-0.3 0.1-0.2 0.1-0.3 0.1-0.5 0 0 0.1 0 0.1-0.1q0.1-0.1 0.2-0.3 0 0 0 0 0.1 0 0.1 0c0.1 0 0.1-0.1 0.1-0.1-0.1-0.1-0.1-0.3 0-0.4q0-0.1 0-0.1 0-0.1 0.1-0.2c0.1 0 0-0.1 0.1-0.1q0-0.2 0.1-0.3 0.1-0.1 0.2-0.3c0-0.1 0-0.1 0.1-0.2 0-0.1 0.1-0.1 0.1-0.2q0.1-0.1 0.1-0.1c0-0.1 0.1-0.2 0.2-0.3q0 0 0 0 0.1 0 0 0c0 0.1 0.1 0.1 0.1 0.2q0.1 0.2 0.3 0.4 0 0 0 0 0.1 0.1 0.2 0.2 0 0 0 0.1c0 0.2 0.1 0.3 0.2 0.4 0.1 0.1 0.1 0.3 0.1 0.4 0.1 0.2 0 0.3-0.1 0.4q0 0.1 0 0.2-0.1 0.1-0.2 0.3c-0.1 0.1-0.1 0.2-0.2 0.3q-0.2 0.1-0.4-0.1 0 0-0.1-0.1c0 0-0.1 0.1-0.1 0.1q-0.1 0.1 0 0.1c0 0.2 0 0.2-0.1 0.2-0.2 0-0.3 0-0.4-0.1-0.1-0.1-0.3-0.1-0.4 0q-0.1 0-0.1 0-0.1 0.1-0.1 0.2 0.1 0.1 0.2 0.1 0.1 0 0.2 0.1c0.1 0 0.1 0 0.2 0q0.1 0.1 0.2 0.1 0.3 0 0.6 0c0.1 0 0.1 0 0.1 0.1 0 0.2-0.2 0.3-0.2 0.6q0.1 0 0 0c-0.1 0.1 0 0.3-0.2 0.5 0 0 0 0 0 0.1 0 0.1 0 0.2 0 0.3-0.1 0.1 0 0.2 0 0.3 0 0.1 0 0.2-0.1 0.3 0 0-0.1 0.1-0.1 0.2q0 0.3 0 0.6c0 0.1 0.1 0.2 0 0.2q-0.1 0.1 0 0.1 0 0.5 0 1.1-0.1 0 0 0c0.1 0.1 0 0.2 0 0.3q0.1 0.3 0 0.6 0 0.1 0.1 0.3 0.1 0 0.1 0.1 0 0.1 0 0.3 0 0 0 0.1c0.1 0.1 0 0.2 0 0.3 0 0.1 0 0.1 0.1 0.2q0.1 0.1 0.1 0.2c0 0.1-0.1 0.2 0 0.3q0.1 0 0 0c0 0.2 0.1 0.3 0.1 0.4 0 0 0.1 0 0.1 0.1q0 0.1 0.1 0.2c0 0.1 0 0.3 0.1 0.4q0.1 0 0.1 0 0 0.2 0.1 0.4 0 0 0 0.1 0.1 0.1 0.1 0.1 0.1 0.2 0.2 0.4 0.1 0.2 0.2 0.4 0 0.1 0 0.1 0.1 0.1 0.1 0.1 0.1 0.1 0.2 0.3 0 0.1 0.1 0.1 0.2 0.3 0.3 0.6 0.1 0 0.1 0 0.1 0.1 0.2 0.3 0 0.1 0.1 0.1 0.2 0.2 0.3 0.3 0 0.1 0.1 0.2c0.1 0.2 0.3 0.3 0.4 0.4q0.1 0.2 0.2 0.3c0.1 0.1 0.2 0.2 0.3 0.2q0.1 0 0.1 0c0.1 0.1 0.2 0.2 0.3 0.4q0 0 0 0 0.2 0 0.3 0.2 0 0 0.1 0 0 0.1 0.2 0.2 0.1 0 0.2 0.1c0.1 0.1 0.2 0.1 0.3 0.2 0 0.1 0.2 0.1 0.2 0.2 0 0 0.1 0 0.1 0q0.2 0.1 0.4 0.2c0.1 0.1 0.2 0.1 0.3 0.2 0 0 0.1 0 0.1 0 0.2 0.1 0.3 0.2 0.4 0.2 0.1 0 0.1 0.1 0.1 0.1q0.1 0.1 0.3 0.1 0-0.1 0.1 0c0 0 0.1 0.1 0.1 0.1 0.1 0 0.1 0 0.1 0.1 0.1 0 0.1 0 0.1 0q0.1 0 0.2 0c0.1 0 0.2 0 0.3 0.1 0 0.1 0.1 0 0.2 0.1q0.1 0 0.2 0c0 0.1 0.1 0.1 0.2 0.1q0.1-0.1 0.2 0c0 0.1 0.1 0.1 0.1 0.1q0.1 0 0.2 0 0.2 0 0.3 0.1c0.1 0 0.2 0 0.3 0q0 0 0.1 0 0.2 0.1 0.4 0.1 0.4 0 0.8 0c0 0 0.1-0.1 0.1 0q0 0.1 0.1 0.1c0.1-0.1 0.2 0 0.3 0 0.2 0.1 0.5-0.2 0.6-0.1m-38.6-11.9q0.1 0 0.2 0 1.3 0 2.7 0c0.1 0 0.1 0 0.2-0.1 0 0 0.1 0 0.1 0q1.3 0 2.6 0c0.1 0 0.2 0 0.2 0.1 0.1 0 0.1 0 0.2 0q0.8 0 1.5 0c0.1 0 0.2 0 0.2-0.1 0 0 0.1 0 0.1 0q0.5 0 1 0c0.1 0 0.2 0.1 0.3 0.2q0.1 0 0 0c0 0 0 0.1-0.1 0q-0.1 0-0.2 0 0 0.1-0.1 0.1c-0.1 0-0.2 0-0.2 0.1q0 0-0.1 0-0.1 0-0.1 0.1-0.1 0-0.1 0-0.2 0-0.3 0.1 0 0 0 0c-0.1 0-0.2 0.1-0.4 0.1q-0.1 0-0.2 0-0.2 0-0.3-0.1c-0.1-0.1-0.1 0-0.1-0.1q0 0 0 0 0-0.1-0.1-0.1-0.2 0-0.4 0-0.1 0-0.1 0c0 0.1-0.2 0.1-0.2 0.1q-0.2 0-0.3 0.1 0 0-0.1 0-0.1 0-0.2 0 0 0-0.1 0c-0.1 0.1-0.1-0.1-0.2 0-0.1 0.1-0.2 0-0.2 0.1q-0.1 0-0.1 0-0.3 0-0.7 0-0.1 0-0.1-0.1 0-0.1-0.2-0.1-0.1 0-0.1 0-0.2 0-0.2 0.1-0.1 0-0.1 0-0.2 0-0.4 0c-0.1 0-0.1-0.1-0.1-0.1 0-0.1-0.1-0.1-0.1-0.1q1 0-1.2 0c-0.1 0-0.3 0-0.4-0.1 0 0 0 0-0.1 0q-0.4 0-0.9 0-0.1 0-0.3-0.1 0-0.1-0.1 0c-0.1 0-0.1 0-0.1-0.1zm3 0.3q0 0 0.1 0-0.1 0-0.1 0zm0.1 0q0 0 0 0 0 0 0 0z"/><path fill-rule="evenodd" class="b" d="m11.2 13.5c0 0 0.1 0 0.2 0.1 0 0 0.1 0 0.1 0q0.1 0 0.1 0.1 0.1 0.1 0 0.1c0 0.1-0.1 0.1-0.1 0 0 0-0.1 0-0.1 0q-0.2 0-0.3-0.1-0.1 0-0.1-0.1 0-0.1 0-0.1 0.1 0 0.2 0zm-1 0.7q0 0-0.1 0c0 0 0-0.1 0-0.1 0.1-0.1 0.2-0.1 0.3 0 0 0 0 0.1 0 0.1q-0.1 0-0.2 0zm10.3 0h-0.8c0.1-0.1 0.7-0.1 0.8 0z"/></g></svg>