<svg version="1.2" xmlns="http://www.w3.org/2000/svg" viewBox="0 0 28 28" width="28" height="28">
	<title>Path 9</title>
	<style>
		.s0 { fill: #000000 } 
	</style>
	<path id="Path 9" class="s0" d="m27.8 14.4c0 0.1 0 0.2-0.1 0.2q-1 0.3-2 0.7c-0.6 0.2-1.1 0.3-1.7 0.5q-1.4 0.4-2.7 1.2-1.5 0.9-2.8 2.2-1.2 1.3-2 2.8-0.6 1.2-1 2.6-0.2 0.9-0.5 1.7-0.3 0.8-0.6 1.6c0 0 0 0.1-0.1 0.1-0.1 0-0.1-0.1-0.1-0.1-0.2-0.2-0.2-0.4-0.2-0.6-0.3-0.5-0.4-1-0.6-1.6-0.3-0.7-0.4-1.4-0.6-2.1q-0.6-1.6-1.7-3-1.1-1.7-2.7-2.9-1.1-0.8-2.4-1.3-0.9-0.5-1.9-0.8c-0.5-0.1-0.9-0.2-1.4-0.3q-0.5-0.3-1.1-0.4c-0.3-0.1-0.5-0.2-0.8-0.3q-0.1 0-0.2-0.1c0-0.2 0.1-0.2 0.2-0.2 0.4-0.1 0.8-0.3 1.2-0.4 0.5-0.2 1-0.5 1.6-0.6 1.5-0.4 2.9-1 4.2-1.8q1.7-1.2 3-2.8 0.9-1.3 1.5-2.7 0.5-1.1 0.8-2.2c0.1-0.4 0.3-0.8 0.4-1.1q0.2-0.6 0.4-1.1c0.1-0.2 0.2-0.4 0.2-0.7q0-0.1 0.2-0.1c0.1 0 0.1 0.1 0.1 0.2q0.3 0.8 0.6 1.7c0.2 0.5 0.4 1.1 0.6 1.7q0.1 0.5 0.3 0.9c0.2 0.5 0.3 1 0.6 1.4q0.8 1.6 2 2.9 1.1 1.2 2.5 2.1 1 0.6 2.1 1c0.6 0.3 1.3 0.4 2 0.6 0.3 0.1 0.6 0.3 1 0.4q0.5 0.2 1.1 0.4 0.3 0.1 0.5 0.2 0.1 0 0.1 0.1zm-19.5-0.6q0.4 0 0.7 0.1 1.3 0.1 2.6 0.2 0.7 0.1 1.3 0.2c0.1 0 0.2 0 0.2 0.1 0 0.1-0.1 0.2-0.2 0.2q-0.2 0-0.4 0c-0.6 0.1-1.2 0.2-1.8 0.2-0.7 0.1-1.4 0.2-2.1 0.3-0.3 0-0.7 0-1 0.1-0.1 0-0.1 0-0.1 0.1 0 0.1 0 0.1 0.1 0.1q1.2 0.7 2.3 1.6 1.5 1.2 2.6 2.9 0.5 0.6 0.8 1.2c0 0.1 0.1 0.2 0.2 0.2 0-0.1 0-0.1 0.1-0.2q0-0.2 0-0.3 0.1-0.8 0.2-1.7c0.1-0.6 0.2-1.2 0.3-1.9 0-0.5 0.1-0.9 0.1-1.4 0-0.1 0.1-0.2 0.2-0.2 0.1 0 0.1 0.1 0.2 0.2 0 0.7 0.2 1.3 0.3 2 0.1 0.9 0.3 1.8 0.3 2.7 0.1 0.1 0.1 0.2 0.2 0.2 0.1 0.1 0.1-0.1 0.2-0.1q0-0.1 0-0.1c0.4-0.6 0.8-1.2 1.3-1.7 1.1-1.3 2.3-2.5 3.8-3.2 0.1 0 0.1 0 0.1-0.1 0-0.1-0.1-0.1-0.1-0.1-0.3 0-0.5 0-0.7 0-0.6-0.2-1.1-0.2-1.6-0.3q-0.9-0.1-1.8-0.2-0.5-0.1-1-0.1c-0.1-0.1-0.2-0.1-0.2-0.2 0-0.1 0.1-0.1 0.2-0.1 0.5-0.1 1-0.2 1.4-0.3q0.8-0.1 1.5-0.2 1-0.1 1.9-0.2c0.3 0 0.5 0 0.7-0.1q0.1 0 0.1-0.1c0-0.1 0-0.1-0.1-0.1q-0.1-0.1-0.3-0.2-2.4-1.3-4.1-3.4-0.8-1.1-1.5-2.3c0 0 0-0.1-0.1-0.1 0 0.1 0 0.1 0 0.2-0.2 0.7-0.2 1.4-0.3 2.1-0.2 1.1-0.3 2.2-0.4 3.3 0 0.1 0 0.2-0.1 0.2-0.2 0-0.2-0.1-0.2-0.2 0-0.2 0-0.4-0.1-0.6-0.1-0.8-0.1-1.6-0.2-2.3-0.1-0.9-0.2-1.7-0.3-2.6 0 0 0.1-0.1-0.1-0.2-0.1 0-0.1 0.1-0.1 0.2q-0.9 1.6-2.2 3-1.6 1.8-3.7 2.9c-0.1 0-0.2 0-0.2 0.1 0 0.1 0.1 0.1 0.2 0.1 0.3 0.1 0.6 0.1 0.9 0.1z"/>
</svg>