<svg version="1.2" xmlns="http://www.w3.org/2000/svg" viewBox="0 0 24 28" width="24" height="28"><style></style><path  d="m16.7 11q0 1.9 0 3.8c0 0.2 0 0.2-0.2 0.2q-0.7 0-1.4 0c-0.1 0-0.1 0-0.2-0.2 0-1.4 0-2.8 0-4.1q0-1.2 0-2.4 0-0.1 0.1-0.3 0-0.2-0.2-0.2-0.2 0-0.2 0.2 0 0.4 0 0.8 0 3 0 6c0 0.2 0 0.2-0.2 0.2h-5.4c-0.3 0-0.3 0-0.3-0.2q0-3.3 0-6.5 0-0.2 0-0.3 0-0.2-0.1-0.2c-0.2 0-0.2 0.1-0.2 0.2q0 0.1 0 0.3 0 3.2 0 6.5c0 0.2 0 0.2-0.2 0.2q-0.7 0-1.4 0c-0.1 0-0.2 0-0.2-0.2q0-0.4 0-0.9 0-3.3 0-6.6c0-0.5 0.1-0.9 0.4-1.3q0.3-0.5 0.8-0.7c0.3-0.1 0.7-0.2 1.1-0.2q2.8 0 5.6 0c0.5 0 0.9 0.1 1.3 0.3q0.5 0.3 0.7 0.9 0.2 0.5 0.2 1 0 1.6 0 3.3c0 0 0 0.4 0 0.4z"/><path  d="m11.8 16.2h-7.2c-0.3 0-0.3 0-0.3 0.3q0 1.6 0 3.1 0 0.1 0 0.2c0 0.1 0 0.1-0.2 0.1q0 0 0 0h-3.3c-0.2 0-0.2 0-0.2-0.2v-7.6q0-0.1 0-0.1c0-0.2 0-0.2 0.2-0.2q0.7 0 1.3 0 1 0 2 0c0.2 0 0.2 0 0.2 0.3q0 1.5 0 3 0 0 0 0.1c0 0.2 0 0.2 0.2 0.2q1.2 0 2.4 0 6 0 12.1 0c0.3 0 0.3 0 0.3-0.3q0-1.5 0-3 0-0.1 0-0.2 0-0.1 0.1-0.1 0.1 0 0.1 0h3.3q0 0 0.1 0 0.1 0 0.1 0.2 0 0.2 0 0.4 0 0.7 0 1.4 0 0.7 0 1.4 0 0.2 0 0.5 0 0.7 0 1.4 0 0.7 0 1.4 0 0.6 0 1.2c0 0.2 0 0.2-0.2 0.2q-1.6 0-3.3 0c-0.2 0-0.2 0-0.2-0.2q0-1.6 0-3.2c0-0.3 0-0.3-0.3-0.3z"/><path fill-rule="evenodd" d="m14.6 21.9v5.1c0 0.2 0 0.2-0.2 0.2q-1.1 0-2.2 0c-0.2 0-0.2 0-0.2-0.2q0-4.4 0-8.8 0-0.6 0-1.2 0-0.2 0-0.3-0.1-0.1 0-0.1 0.3 0 0.6 0 0.9 0 1.8 0c0.2 0 0.2 0 0.2 0.2q0 2.5 0 5.1zm-5.9 0v-5.1q0 0 0-0.1 0-0.1 0.2-0.1 1.2 0 2.4 0 0.2 0 0.1 0.1-0.1 0.1-0.1 0.2 0 5.1 0 10.1c0 0.2 0 0.2-0.2 0.2q-1.1 0-2.2 0c-0.1 0-0.2 0-0.2-0.2q0-2.6 0-5.1zm3.1-21.9c1.1 0 2.1 0.9 2.1 2.2 0 1.2-0.9 2.1-2.2 2.1-1.2 0-2.1-0.9-2.1-2.1 0-1.3 1-2.2 2.2-2.2z"/></svg>