<svg version="1.2" xmlns="http://www.w3.org/2000/svg" viewBox="0 0 29 28" width="29" height="28"><style></style><path  d="m20.5 7.3h-12.3-3.9v3.8 16.5h3.9v-16.5h12.6v16.5h3.8v-16.5-3.8z"/><path fill-rule="evenodd" d="m17.3 20.7c0 0.1 0 0.1-0.1 0.1q-0.4 0-0.8 0c-0.1 0-0.1 0-0.1-0.1q0-1.2 0-2.4 0-0.7 0-1.3 0-0.1 0-0.2 0-0.1-0.1-0.1-0.1 0-0.1 0.1 0 0.2 0 0.5c0 1.1 0 3.3 0 4.4q0 0.1 0 0.1 0 0 0 0 0 1.4 0 2.9 0 1.4 0 2.9c0 0.1 0 0.1-0.1 0.1q-0.6 0-1.3 0c-0.1 0-0.1 0-0.1-0.1q0-2.5 0-5 0-0.3 0-0.7 0 0 0 0h-0.3q0 0 0 0 0 2.8 0 5.7c0 0.1 0 0.1-0.2 0.1q-0.6 0-1.2 0c-0.1 0-0.1 0-0.1-0.1q0-1.5 0-2.9c0 0 0-2.9 0-2.9q0 0 0-0.1c0-1.2 0-3.5 0-4.7q0-0.1 0-0.2 0-0.1-0.1-0.1-0.1 0-0.1 0.1 0 0.1 0 0.2 0 1.8 0 3.6v0.1c0 0.1 0 0.1-0.1 0.1q-0.4 0-0.8 0c-0.1 0-0.1 0-0.1-0.1q0-0.3 0-0.5 0-1.9 0-3.8 0-0.4 0.2-0.7 0.2-0.3 0.4-0.4 0.3-0.1 0.7-0.1 1.6 0 3.2 0 0.3 0 0.7 0.2 0.3 0.1 0.4 0.5 0.1 0.2 0.1 0.5c0 0.6 0 1.5 0 2.1q0 1.1 0 2.2zm-2.8-8.4c0.6 0 1.2 0.5 1.2 1.2 0 0.7-0.5 1.2-1.2 1.2-0.7 0-1.3-0.5-1.3-1.2 0-0.7 0.6-1.2 1.3-1.2zm-11.7 15.3h-1.9v-14.4h1.9zm25.3 0h-1.9v-14.4h1.9zm-17.8-21q0 0 0-0.1 0-1.7 0-3.4 0 0 0-0.1 0 0.1-0.1 0.1-0.6 0.6-1.2 1.3-0.1 0-0.2 0-0.4-0.4-0.8-0.9-0.1 0 0-0.1 1.5-1.4 2.9-2.9 0.1-0.1 0.1 0 1.5 1.5 2.9 2.9 0.1 0.1 0 0.1-0.4 0.5-0.8 0.9-0.1 0-0.1 0-0.7-0.7-1.3-1.3 0 0-0.1-0.1 0 0 0 0v3.6z"/><path  d="m18.6 0.5q0 0 0 0.1 0 1.7 0 3.3 0 0.1 0 0.1 0 0 0.1 0 0.6-0.6 1.2-1.3 0.1-0.1 0.2 0 0.4 0.4 0.8 0.8 0.1 0.1 0 0.2-1.5 1.4-2.9 2.9-0.1 0-0.1 0-1.5-1.5-2.9-2.9-0.1-0.1 0-0.2 0.4-0.4 0.8-0.8 0.1-0.1 0.1 0 0.7 0.6 1.3 1.3 0 0 0.1 0.1 0 0 0-0.1v-3.5z"/></svg>