<svg version="1.2" xmlns="http://www.w3.org/2000/svg" viewBox="0 0 41 28" width="41" height="28"><style></style><path  d="m3 22.7q-0.2 0.2-0.5 0.1-0.9 0.1-1.7 0c-0.5 0-0.6-0.2-0.6-0.5 0.1-0.6 0.2-1.2 0.2-1.8 0-0.5 0.1-1 0.2-1.5 0.1-1.1 0.4-2.1 0.7-3.1q0.6-1.9 1.4-3.6 0.8-1.6 1.9-3 0.5-0.9 1.2-1.7 1.5-1.7 3.3-3.1c1.5-1 3-1.9 4.8-2.6q1.6-0.5 3.3-0.8c1-0.2 2-0.2 2.9-0.2 1.1-0.1 2.2 0 3.3 0.3 1.1 0.2 2.2 0.5 3.2 0.9q2 0.8 3.8 2c1.1 0.8 2.1 1.6 3.1 2.5 0.6 0.7 1.2 1.3 1.8 2.1 0.9 1.1 1.7 2.3 2.4 3.6 0.2 0.6 0.5 1.1 0.7 1.6 0.3 0.7 0.7 1.5 0.9 2.3 0.2 0.6 0.4 1.3 0.6 1.9 0.1 0.2 0.1 0.4 0.1 0.5q0.2 1 0.4 1.9 0.1 0.5 0.1 1c0 0.4 0 0.7 0.1 1 0 0.2 0 0.4-0.1 0.6-0.1 0.1-0.2 0.1-0.4 0.1q-0.8 0-1.6 0-0.7-0.1-0.7-0.6c0-0.9-0.2-1.7-0.4-2.6q0-0.5-0.2-1.1c-0.1-0.5-0.3-1.1-0.5-1.6q-0.2-0.7-0.5-1.4c-0.3-0.6-0.5-1.2-0.8-1.8q-0.2-0.5-0.5-1c-0.6-0.9-1.2-1.9-2-2.7-0.5-0.6-1-1.2-1.5-1.7q-1.4-1.3-3-2.3c-1.1-0.6-2.3-1.2-3.5-1.6q-1-0.3-2-0.5c-1.1-0.3-2.2-0.3-3.3-0.3q-1.9 0-3.6 0.5-1.9 0.6-3.5 1.5c-1.6 0.9-2.9 2-4.1 3.2q-1.1 1.2-2 2.6-0.9 1.4-1.6 2.9c-0.3 0.6-0.5 1.2-0.7 1.9-0.2 0.8-0.5 1.5-0.6 2.3q-0.3 1.3-0.4 2.6c-0.1 0.3 0 0.5-0.1 0.8 0 0.1 0.1 0.2 0 0.4z"/><path  d="m20.1 6.2c0.8 0 1.7 0.1 2.6 0.3q1.7 0.3 3.1 1c2.3 1 4.1 2.5 5.7 4.3q1 1.2 1.8 2.5 0.9 1.7 1.5 3.4 0.4 1.1 0.6 2.1c0.2 0.7 0.4 1.4 0.4 2 0 0.3 0.1 0.6 0.1 0.8q0 0.6-0.7 0.5c-0.5 0-1 0-1.5 0-0.5 0-0.6-0.1-0.6-0.5 0-0.7-0.3-1.4-0.4-2.1 0-0.4-0.2-0.8-0.3-1.2-0.2-0.7-0.5-1.4-0.8-2.1q-0.2-0.4-0.5-0.9c-0.3-0.6-0.7-1.3-1.2-1.9-1-1.2-2.2-2.3-3.6-3.3q-1.4-0.8-2.9-1.3c-1-0.2-2-0.4-3-0.4q-0.5 0-1 0c-0.6 0-1.2 0.2-1.8 0.3-0.9 0.2-1.7 0.5-2.6 0.9-0.5 0.3-1 0.6-1.5 1q-1.4 1-2.4 2.2c-0.7 1-1.4 2-1.9 3q-0.5 1.1-0.8 2.2c-0.2 0.5-0.4 1-0.4 1.5 0 0.3-0.1 0.6-0.2 0.9q0 0.5 0 1c0 0.4-0.2 0.5-0.7 0.5-0.6 0-1.1 0-1.7-0.1q-0.5 0-0.5-0.3 0.1-0.5 0.1-1 0.1-0.1 0.1-0.1c-0.1-0.8 0.2-1.5 0.3-2.2 0-0.3 0.1-0.6 0.2-0.9 0.2-0.7 0.4-1.4 0.7-2.1q0.7-1.6 1.7-3.1 0.6-0.9 1.2-1.7c0.3-0.4 0.7-0.7 1-1 0.7-0.6 1.4-1.3 2.2-1.8 0.9-0.5 1.7-1 2.7-1.4 0.4-0.1 0.8-0.3 1.3-0.4 1.2-0.3 2.4-0.6 3.7-0.6z"/><path  d="m30.7 22.9q-0.2 0.2-0.5 0.2c-0.7-0.1-1.4 0-2.1-0.1-0.1-0.3-0.2-0.6-0.3-0.9-0.3-1.6-1-3.1-2.1-4.4-0.8-0.9-1.9-1.7-3.2-2.1q-1.4-0.5-2.8-0.4c-0.9 0.1-1.7 0.3-2.4 0.7-0.6 0.3-1.2 0.7-1.7 1.1-0.9 0.8-1.6 1.9-2.1 3-0.3 0.8-0.5 1.6-0.6 2.4-0.1 0.2-0.1 0.3-0.3 0.5-0.7 0.1-1.6 0-2.3 0-0.2-0.1-0.2-0.2-0.2-0.3 0-0.4-0.1-0.8 0.1-1.2q0.1-0.1 0.1-0.2c0-0.8 0.3-1.6 0.6-2.4q0.3-0.8 0.8-1.6c0.5-0.8 1.2-1.7 2-2.4q1-1.1 2.4-1.8c0.6-0.3 1.3-0.5 2.1-0.7 0.7-0.2 1.4-0.2 2.2-0.2 1.2 0 2.4 0.3 3.5 0.7 1.3 0.6 2.3 1.3 3.3 2.3 1.1 1.1 1.9 2.4 2.6 3.7q0.4 1 0.7 2.1c0.1 0.5 0.3 1 0.3 1.5 0 0.2 0 0.4-0.1 0.5z"/><path  d="m15.3 22.8c0-3.1 2.5-5.1 5.1-5.2 3 0.2 5.3 2.2 5.3 5.3-0.1 3-2.4 5-5.3 5.2-2.8-0.2-5.1-2.3-5.1-5.3z"/></svg>