<svg version="1.2" xmlns="http://www.w3.org/2000/svg" viewBox="0 0 24 28" width="24" height="28"><style></style><path  d="m7.5 16.8q0-0.3 0-0.6c0-0.1 0.1-0.2 0-0.2-0.1 0-0.1 0.1-0.2 0.1-0.3 0.5-0.5 1-0.8 1.5-0.2 0.5-0.2 0.5 0.3 0.8q2.1 1.5 4.2 2.9c0.4 0.3 0.4 0.3 0.1 0.7q-0.5 0.6-1.1 1.3-0.1 0.2-0.4 0.1c-2.5-1.4-5-2.8-7.4-4.3-0.4-0.2-0.4-0.2-0.2-0.6 0.7-1.7 1.5-3.3 2.3-4.9 0.5-1 1-1.9 1.3-2.9 0.3-0.8 0.9-1.3 1.6-1.7q0.2 0 0.3-0.1c0.8-0.1 1.6-0.1 2.4 0.1q2.1 0.4 4.1-0.1c0.8-0.2 1.7-0.2 2.5 0.2q0.8 0.5 1.2 1.3c0.8 2 1.8 3.8 2.7 5.8 0.4 0.8 0.7 1.5 1.1 2.3 0.1 0.2 0 0.3-0.1 0.4q-3.6 2.1-7.2 4.2-0.1 0.1-0.2 0.2c-0.4 0.2-0.4 0.2-0.6-0.1q-0.4-0.7-0.7-1.3c-0.3-0.4-0.3-0.5 0.1-0.8q2.2-1.4 4.5-2.8c0.2-0.1 0.2-0.2 0-0.4q-0.5-0.8-1-1.7c-0.1-0.1-0.2-0.3-0.3-0.2-0.2 0-0.1 0.2-0.1 0.3q0 0.5 0 0.9c0 0.4-0.1 0.6-0.4 0.7q-0.9 0.5-1.8 0.9-0.8 0.4-1.6 0.8c-0.3 0.2-0.4 0.2-0.7 0q-1.8-0.9-3.6-1.8c-0.2-0.1-0.3-0.2-0.3-0.5q0-0.2 0-0.5z"/><path fill-rule="evenodd" d="m14.1 27.6q-3 0-6 0-0.1 0-0.2 0c-0.1 0-0.2 0-0.2-0.1-0.1-0.1 0-0.1 0.1-0.2q1.9-2.2 3.8-4.4c0.2-0.3 0.2-0.2 0.4 0q0.5 0.8 1 1.7c0.1 0.2 0.2 0.2 0.4 0.1q2.5-1.4 5-2.7 0.4-0.2 0.9-0.4 0.1-0.1 0.3 0c1.1 0.6 2.2 1.2 3.3 1.9 0.2 0.1 0.3 0.3 0.3 0.6q-0.1 0.8 0 1.7c0 0.3-0.1 0.5-0.4 0.6-0.4 0.3-1 0.5-1.5 0.8-0.5 0.3-1.1 0.4-1.7 0.4q-2.7 0-5.5 0zm-2.3-19.5c-2.1 0-3.9-1.7-3.9-3.8 0-2.2 1.7-3.9 3.8-3.9 2.2 0 3.9 1.7 3.9 3.8 0 2.2-1.7 3.9-3.8 3.9z"/><path  d="m4.1 27.5c-0.9 0.2-1.8-0.1-2.6-0.7q-0.4-0.2-0.9-0.4-0.2-0.1-0.2-0.4 0-1 0-2.1c0-0.2 0.1-0.3 0.2-0.4 0.6-0.5 1.4-0.9 2.1-1.2q0.6-0.3 1.1-0.7c0.2-0.1 0.3-0.1 0.5 0q2.2 1.2 4.3 2.4c0.3 0.1 0.3 0.2 0.1 0.4-0.9 1-1.7 2-2.7 2.9q-0.2 0.2-0.5 0.2c-0.4 0-0.8 0-1.4 0z"/></svg>