<svg version="1.2" xmlns="http://www.w3.org/2000/svg" viewBox="0 0 27 28" width="27" height="28"><style></style><path fill-rule="evenodd" d="m9.7 5.1q3.5 0 6.9 0c0.4 0 0.4 0 0.4 0.3q0 0.6 0 1.2c0 0.3 0 0.3-0.4 0.3q-2.6 0-5.2 0c-0.7 0-1.5 0.1-2.2 0.1q-0.4 0-0.4 0.5c-0.1 1.3-0.1 2.6-0.1 3.9q0 7.8 0 15.5c0 0.2 0 0.3-0.2 0.3q-1.1 0-2.1 0c-0.3 0-0.3 0-0.3-0.4q0-3.4 0-6.8 0-1.4 0-2.8 0-0.1 0-0.3 0-0.4-0.5-0.3-0.1 0-0.1 0.2 0 0.1 0 0.3 0 4.8 0 9.7c0 0.4-0.1 0.4-0.4 0.4q-0.9 0-1.9 0c-0.4 0-0.4 0-0.4-0.4q0-6.5 0-13 0-2.8 0-5.5 0-0.1 0-0.3c0-0.1 0-0.2-0.1-0.2-0.2 0-0.2 0.1-0.2 0.2q0 0.1 0 0.3 0 3.2 0 6.4c0 0.4 0 0.4-0.4 0.4q-0.5 0-1.1 0c-0.2 0-0.3 0-0.3-0.3q0-1.9 0-3.8 0-1.8 0-3.6 0-0.6 0.2-1.1c0.3-0.7 0.8-1 1.4-1.1q0.5-0.1 0.9-0.1 3.3 0 6.5 0zm12.1-3.3q2 0 3.9 0c0.5 0 0.6 0.1 0.6 0.6q0 0.2 0 0.5 0 0.3-0.4 0.3-0.9 0-1.7 0c-0.3 0-0.3 0.1-0.3 0.3q0 0.2 0 0.4c0 0.3 0 0.3-0.3 0.3q-1.8 0-3.5 0-0.3 0-0.5 0c-0.3 0-0.3 0.1-0.2 0.3q0.2 1.2 0.5 2.5c0.1 0.5 0.1 0.5-0.4 0.6q-0.9 0.3-1.8 0.5c-0.3 0.1-0.3 0-0.3-0.3q0-2.7 0-5.5c0-0.4 0.1-0.5 0.5-0.5q2 0 3.9 0z"/><path  d="m3.6 2.2c0.1-1.3 1.1-2.2 2.2-2.2 1.1 0 2.2 0.8 2.2 2.2 0 1.2-1 2.2-2.2 2.1-1.2 0-2.2-0.9-2.2-2.1z"/></svg>