<svg version="1.2" xmlns="http://www.w3.org/2000/svg" viewBox="0 0 23 28" width="23" height="28"><style>.a{fill:#fff}</style><path  d="m16.4 0.8h-10c-2.4 2.3-3.7 5.4-6.1 7.8v15.6c0 2.1 1.7 3.8 3.8 3.8h14.5c2.1 0 3.8-1.7 3.8-3.8v-15.6c-2.3-2.4-3.7-5.5-6-7.8z"/><path class="a" d="m21.1 15l-1.9-1.9v-4.5l-0.1-0.4-4.7-4.7-0.4-0.1h-2.4-0.2-2.5l-0.3 0.1-4.7 4.7-0.2 0.4v4.5l-1.8 1.9-0.2 0.4v7.9l0.2 0.3 2.8 2.9 0.4 0.2h2.6l0.4-0.2 1.1-1.1h2.2 0.2 2.1l1.1 1.1 0.4 0.2h2.6l0.4-0.2 2.9-2.9 0.1-0.3v-7.9zm-0.9 8l-2.5 2.6h-2.2l-1.1-1.1-0.4-0.2h-2.4-0.2-2.4l-0.3 0.2-1.1 1.1h-2.2l-2.6-2.6v-7.4l1.9-1.9 0.1-0.4v-4.5l4.4-4.4h2.2 0.2 2.2l4.4 4.4v4.5l0.2 0.4 1.8 1.9z"/></svg>