<svg version="1.2" xmlns="http://www.w3.org/2000/svg" viewBox="0 0 28 28" width="28" height="28"><style>.a{fill:#fff}</style><path  d="m2.2 0.6l-1.7 1.7v23.9l1.7 1.6h23.9l1.7-1.6v-23.9l-1.7-1.7z"/><path fill-rule="evenodd" class="a" d="m13.1 22.9c0 0-12.5-2-5.7-13.7 0 0-0.9 4.2 2.5 5.3 0 0-3.8-8.1 5.5-12.5 0 0-1.3 4.4 5.1 10.8 6.3 6.5-4.1 10.3-4.1 10.3 0 0 3.4-1.9 1.5-5.6-0.4-0.8-1-1.4-1.6-1.9-0.7-0.6-1.9-1.8-2.4-2.8 0 0-2.5 3.8-0.8 6.1 0 0-1.4 1.1-2.6-0.3-1.5-1.6-0.5 2.6 2.6 4.3zm10.6 3.6h-19.5v-2.6h19.5z"/></svg>