<svg version="1.2" xmlns="http://www.w3.org/2000/svg" viewBox="0 0 40 28" width="40" height="28"><style>.a{fill:#fff}</style><path  d="m9.2 0.6l-8.7 8.6v9.9l8.7 8.7h21.5l8.7-8.7v-9.9l-8.7-8.6z"/><path class="a" d="m20 3.1c0 0.1 0.1 0.1 0.2 0.1 0.4 0.1 0.7 0.4 0.9 0.8 0.1 0.3 0 0.6-0.2 0.9-0.6 0.5-1.3 0.6-2.1 0.6 0 0-0.1-0.1-0.1-0.1 0-0.1 0-0.1 0.1-0.2q0.2-0.1 0.5-0.2 0.3 0 0.6-0.3c0.1-0.1 0.1-0.2 0.1-0.3-0.1-0.1-0.2-0.1-0.3-0.1-0.5 0-1 0.1-1.5 0.5-0.3 0.2-0.7 0.5-1 0.8q-0.9 0.8-0.8 1.9 0.1 0.4 0.1 0.7-0.1 0.4 0.1 0.6 0.1 0.3 0.3 0.5c0 0.2 0.1 0.2 0.2 0.1 0.5-0.6 1.2-0.8 1.9-1 0.4-0.1 0.9-0.1 1.3 0 0.6 0 1.1-0.1 1.7-0.3q0.3-0.1 0.7-0.3c0 0 0.1-0.1 0.2 0 0 0.1 0 0.1-0.1 0.2-0.5 0.7-1.3 1.1-2.1 1.2-0.7 0.1-1.4 0.2-2.1 0.4q-0.4 0.2-0.6 0.5c-0.1 0.1-0.1 0.2 0.1 0.3q0.7 0.4 1.5 0.5c1 0.2 2 0.3 2.9 0.4 0.6 0.1 1.2 0.3 1.7 0.6 1 0.6 1.8 1.4 2.3 2.4 0.2 0.4 0.3 0.9 0.3 1.4q0.1 0.3 0 0.7-0.2 0.4-0.2 0.8-0.1 0.4-0.2 0.8-0.1 0.4-0.1 0.7 0 0.1 0 0.3-0.3 0.7-0.2 1.5c0 0.2 0.2 0.3 0.2 0.6 0.1 0.3 0.2 0.6 0.4 0.9q0.1 0.2 0.3 0.4c0.1 0.1 0.1 0.1 0.1 0.2-0.1 0.1-0.2 0.1-0.3 0-0.6-0.2-1.1-0.6-1.5-1.1q-0.2-0.4-0.3-1c-0.1 0 0-0.1-0.1-0.1-0.1-0.1-0.2 0-0.2 0-0.4 0.4-0.6 0.8-0.9 1.1q-0.3 0.5-0.2 1 0.2 0.6 0.4 1.2 0.1 0.4 0.2 0.7 0.1 0 0.1 0.1 0.1 0.3 0.2 0.5 0.1 0.1 0.1 0.2 0 0.2-0.1 0.1-0.1 0-0.2 0c-0.3-0.4-0.8-0.7-1.1-1.2-0.5-0.7-0.8-1.4-0.7-2.3q0.1-0.6 0.5-1.1c0.4-0.3 0.7-0.7 1.1-1.1 0.3-0.4 0.6-0.8 0.8-1.2q0.3-0.5 0.5-1.1c0.3-0.6 0.4-1.3 0.2-2-0.1-0.5-0.4-0.9-0.6-1.3-0.2-0.2-0.4-0.4-0.6-0.7-0.1 0-0.1-0.1-0.2 0 0 0 0 0 0 0.1 0 0.9-0.5 1.4-1.1 1.9-0.5 0.4-1.1 0.6-1.6 0.9-0.5 0.3-1.1 0.5-1.6 0.8-0.5 0.4-1 0.7-1.4 1.1-0.2 0.2-0.4 0.5-0.6 0.7-0.1 0.1-0.1 0.2-0.3 0.1-0.1 0 0-0.1 0-0.2 0-0.3 0.1-0.5 0.2-0.7q0.2-0.7 0.8-1.3 0.3-0.3 0.7-0.5c0.5-0.3 0.9-0.8 1.2-1.3q0.3-0.9 0-1.8-0.3-0.5-0.8-0.8-0.1 0-0.1-0.1-0.2-0.3-0.6-0.3c-0.1 0-0.1 0-0.2-0.1-0.1 0-0.3 0-0.2 0.2 0 0.3-0.2 0.6-0.2 0.9-0.1 0.4-0.4 0.6-0.7 0.8-1 0.7-2.1 1-3.4 0.6-0.5-0.2-0.9-0.6-1.2-1q-0.4-0.3-0.6-0.7-0.1-0.2-0.1-0.3 0-0.1 0.1-0.2 0.1 0 0.1 0.1c0.4 0.5 0.9 0.7 1.4 0.9q0.2 0.1 0.5 0.2c0.7 0.3 1.5 0.1 2.2-0.2 0.5-0.2 0.7-0.7 0.8-1.1 0-0.3-0.1-0.5-0.2-0.7-0.1-0.2-0.3-0.4-0.5-0.6-0.5-0.4-0.9-0.8-1.1-1.3-0.3-1-0.5-2-0.3-3 0.1-0.5 0.3-0.9 0.7-1.3 0.5-0.6 1.2-1.1 2-1.5q0.5-0.3 1.2-0.4c0 0 0.1 0 0.1-0.1zm1.6 11.6q-0.1 0.3 0.1 0.2c0.5-0.3 0.9-0.6 1.2-1 0.3-0.4 0.2-0.6-0.1-1-0.2-0.3-0.5-0.6-1-0.6q-0.1 0-0.2 0c-0.3 0-0.3 0-0.3 0.3 0.1 0.2 0.3 0.5 0.3 0.8q0 0.7 0 1.3z"/></svg>