<svg version="1.2" xmlns="http://www.w3.org/2000/svg" viewBox="0 0 28 19" width="28" height="19"><style>.a{stroke:#000;stroke-width:1.8}.b{fill:#fff}</style><path class="a" d="m26.5 6.5l-5-5.1h-20.5v15.9h20.5l5-5z"/><path fill-rule="evenodd" class="b" d="m16.8 1.9c0 0.1 0 0.1 0 0.2q0.6 1 1.2 1.9c0.2 0.3 0.4 0.6 0.6 0.9 0 0.1 0.1 0.2 0.2 0.2h1.4v1.6h-2.4q-1-1.5-2-3.1h-1.5v-1.7zm-5.6 0v1.7h-1.6q-1 1.6-1.9 3.2h-2.5v-1.7h1.5q0.2-0.3 0.5-0.7 0.1-0.2 0.3-0.5c0.4-0.6 0.7-1.2 1.1-1.8q0-0.1 0-0.2zm-6.9 6.2c0.5 0.1 1 0.3 1.4 0.5q0.7 0.3 1.4 0.6 0.1 0 0.3 0.1c-0.1 0.1-0.1 0.1-0.2 0.1q-1.4 0.5-2.8 1.1 0 0-0.1 0z"/><path fill-rule="evenodd" class="b" d="m12.7 11.4q-0.3 0-0.7 0-0.2 0-0.3-0.1c-0.3-0.4-0.7-0.7-1-1q-0.1-0.1-0.1-0.3 0-0.7 0-1.4 0-0.1 0.1-0.2c0.4-0.4 0.7-0.7 1-1q0.1-0.2 0.3-0.2 0.7 0 1.4 0 0.2 0 0.3 0.2c0.3 0.3 0.7 0.6 1 0.9q0.1 0.2 0.1 0.3 0 0.7 0 1.4 0 0.2-0.1 0.3c-0.3 0.3-0.7 0.6-1 1q-0.1 0.1-0.2 0.1-0.4 0-0.8 0zm-7.4 2.1v-1.6c0-0.1 0.1 0 0.2 0q1 0 2-0.1 0.2 0 0.3 0.2 0.7 1.3 1.6 2.6c0.2 0.5 0.1 0.4 0.7 0.4q0.5 0 1 0v1.7h-2.4c-0.3-0.4-0.5-0.8-0.7-1.2q-0.1-0.1-0.1-0.1c-0.4-0.6-0.7-1.2-1.1-1.7q-0.1-0.2-0.3-0.2-0.6 0-1.2 0z"/><path fill-rule="evenodd" class="b" d="m14.3 16.7v-1.6c0.1-0.1 0.2-0.1 0.3-0.1q0.5 0 1.1 0 0.2 0.1 0.3-0.1 0.7-1.3 1.4-2.5 0.2-0.2 0.3-0.4 0.1-0.2 0.2-0.2 1.1 0.1 2.2 0.1 0 0 0.1 0v1.6c-0.1 0-0.2 0-0.3 0q-0.5 0-1 0-0.2 0-0.3 0.1-0.5 1-1.1 2-0.4 0.5-0.7 1.1zm6.8-8.6v2.4q-1.5-0.6-2.9-1.2 0 0 0 0 1.4-0.6 2.9-1.2z"/></svg>