<svg version="1.2" xmlns="http://www.w3.org/2000/svg" viewBox="0 0 23 23" width="23" height="23"><style>.a{fill:#e30d18}</style><path class="a" d="m0.4 2.8q0.1-1 0.2-2c0.2-0.1 0.4-0.1 0.7-0.1 0.6 0.1 1 0.3 1.1 0.4 1.4 0.9 4.4 1.4 4.8 2.3 0.1 0 0.1 0.1 0.2 0.3 0.3 0.3 0.7 0.3 0.9 0.4 0.2 0 0.6 0.3 1.3 0.8 1.6 1.2 2.4 1.7 2.4 2.3 0 0.1 0 0.4 0.2 0.6 0.2 0.2 0.5 0.1 0.5 0.1 1 0.1 7.8 8.7 9.7 13.3 0.1 0.3 0.3 0.9 0.1 1.2-0.1 0.1-0.2 0.2-0.9 0.2-0.6 0-0.5 0-1 0-0.6 0-0.9 0.2-1.4 0q-0.2 0-0.3 0-0.1-0.1-0.3-0.2c-0.3-0.4-0.4-0.7-0.7-1.4 0 0 0 0-0.4-0.6q-0.2-0.3-0.6-1c-0.3-0.6-0.5-0.9-0.9-1.5-0.1-0.2-0.3-0.5-0.4-0.8-1.1-1.7-2.5-3.1-2.9-3.6 0 0-0.1-0.2-0.3-0.4 0 0-0.1-0.1-0.2-0.2-0.6-0.7-1.2-1.2-1.2-1.2-1.2-1-2.3-2.4-3.1-3-0.1 0-0.3-0.2-0.6-0.4-0.3-0.2-0.5-0.3-0.6-0.4-0.9-0.8-3.2-1.7-3.9-2.1 0 0-0.1-0.1-0.3-0.1-0.3-0.1-0.5-0.1-0.6-0.1-0.4 0-0.7-0.4-0.9-0.7-0.8-0.8-0.6-2-0.6-2.1z"/></svg>