<svg version="1.2" xmlns="http://www.w3.org/2000/svg" viewBox="0 0 24 23" width="24" height="23"><style>.a{fill:#fff}</style><path class="a" d="m19.6 22.1q-0.2 0-0.5-0.1-0.2 0-0.3-0.1h-0.1l-0.1-0.1q-0.2-0.1-0.3-0.2c-0.4-0.4-0.5-0.7-0.6-1q-0.1-0.2-0.2-0.4l-1-1.7c-0.3-0.4-0.4-0.7-0.7-1.1l-0.4-0.7c-0.6-0.9-1.3-1.8-1.9-2.4-0.3-0.3-0.5-0.6-0.6-0.8q-0.1-0.1-0.2-0.3-0.1-0.1-0.2-0.2c-0.5-0.5-1-0.9-1-0.9-0.6-0.5-1.1-1.1-1.6-1.6-0.4-0.4-0.8-0.9-1.2-1.1 0 0-0.2-0.2-0.5-0.4-0.3-0.2-0.5-0.3-0.5-0.4-0.5-0.3-1.6-0.8-2.3-1.2-0.5-0.2-1-0.4-1.2-0.6-0.2-0.1-0.3-0.1-0.4-0.1-0.7 0-1.2-0.5-1.4-0.8-0.8-1-0.8-2.2-0.7-2.6l0.2-2.3 0.5-0.1q0.4-0.1 0.7-0.1 0.1 0 0.2 0.1c0.7 0 1.2 0.3 1.3 0.4 0.5 0.4 1.3 0.6 2 0.9 1.2 0.4 2.3 0.7 2.6 1.4 0.2 0.2 0.3 0.2 0.4 0.3 0.5 0.1 0.8 0.3 1.6 0.9 1.6 1.2 2.4 1.7 2.4 2.6 2 0.5 7.9 9 9.3 12.3q0.5 1.3-0.1 1.9c-0.3 0.3-0.7 0.4-1.3 0.4h-0.3-0.3l-0.3-0.8v0.8q-0.2 0-0.4 0-0.3 0.1-0.6 0.1z"/><path  d="m3.1 0.1q-0.4 0-0.8 0.1l-1.1 0.3-0.1 1v0.7l-0.2 1.1c0 0.4-0.1 1.9 0.9 3.1 0.3 0.3 0.9 1 1.9 1.1h0.1q0.4 0.2 1.3 0.6c0.6 0.3 1.7 0.8 2.1 1.1 0.1 0.1 0.3 0.2 0.5 0.4 0.3 0.2 0.6 0.4 0.6 0.4 0.3 0.2 0.7 0.6 1.1 1 0.5 0.6 1 1.1 1.6 1.6 0 0 0.5 0.4 1 0.9q0.1 0.1 0.1 0.2 0.1 0.1 0.1 0.2c0.2 0.2 0.4 0.5 0.8 0.9 0.5 0.6 1.2 1.4 1.8 2.3 0.1 0.2 0.3 0.5 0.4 0.7 0.2 0.4 0.4 0.7 0.6 1.1l0.2 0.2q0.3 0.6 0.5 1l0.3 0.4q0.1 0.3 0.2 0.4c0.1 0.4 0.3 0.8 0.7 1.2q0.3 0.2 0.5 0.4l0.2 0.1h0.2q0.1 0.1 0.4 0.1 0.3 0.1 0.6 0.1 0.3 0 0.7 0 0.1-0.1 0.4-0.1h0.1 0.1q0.1 0 0.3 0 0.1 0 0.3 0c0.7 0 1.3-0.1 1.8-0.6 0.4-0.4 0.8-1.2 0.3-2.6-0.8-2-2.6-4.9-4.9-7.9-2.5-3.3-3.7-4.5-4.5-4.8-0.3-0.9-1.2-1.6-2.6-2.6-0.9-0.7-1.2-0.9-1.8-1v-0.1c-0.6-0.8-1.7-1.2-2.9-1.6-0.7-0.3-1.4-0.5-1.8-0.8-0.3-0.1-0.8-0.5-1.7-0.6q-0.2 0-0.3 0zm0 1.5q0.1 0 0.2 0c0.5 0 0.8 0.3 0.9 0.4 1.3 0.8 3.9 1.2 4.4 2 0 0 0 0.1 0.1 0.3 0.3 0.2 0.7 0.3 0.8 0.3 0.2 0.1 0.6 0.3 1.2 0.8 1.4 1 2.1 1.5 2.2 2.1 0 0 0 0.3 0.1 0.4 0.2 0.2 0.4 0.2 0.5 0.2 0.9 0 7 7.8 8.7 11.9 0.1 0.2 0.3 0.8 0 1.1 0 0-0.1 0.1-0.8 0.1q-0.1 0-0.2 0c-0.2 0-0.3 0-0.4 0q-0.1 0-0.2 0c-0.4 0.1-0.7 0.1-1 0.1q-0.1 0-0.3 0-0.2-0.1-0.3-0.1-0.1 0-0.2-0.2c-0.3-0.3-0.4-0.6-0.7-1.2 0 0 0 0-0.3-0.5q-0.2-0.3-0.5-0.9c-0.3-0.5-0.5-0.9-0.8-1.4-0.2-0.2-0.3-0.5-0.5-0.7-1-1.5-2.2-2.8-2.5-3.2 0-0.1-0.1-0.2-0.3-0.4 0 0-0.1-0.1-0.2-0.2-0.5-0.6-1.1-1-1.1-1-1.1-0.9-2-2.2-2.8-2.7 0 0-0.2-0.2-0.5-0.4-0.3-0.2-0.4-0.3-0.5-0.3-0.9-0.7-2.9-1.5-3.5-1.9q-0.1 0-0.3-0.1c-0.2-0.1-0.4-0.1-0.5-0.1-0.4 0-0.7-0.4-0.9-0.6-0.6-0.8-0.5-1.8-0.5-2q0.1-0.9 0.2-1.8 0.2 0 0.5 0z"/></svg>