<svg version="1.2" xmlns="http://www.w3.org/2000/svg" viewBox="0 0 29 29" width="29" height="29"><style>.a{fill:#fff;stroke:#000;paint-order:stroke fill markers;stroke-linejoin:round;stroke-width:4}.b{fill:#8f2e26}</style><path class="a" d="m8.9 17.8q-0.2-0.1-0.3-0.3-0.3-0.4-0.6-0.7c-0.2-0.3-0.1-0.6 0-0.9q0.2-0.3 0.3-0.6c0.2-0.5 0.1-0.6-0.1-1.1 0-0.2-0.1-0.4-0.2-0.6-0.1-0.1-0.1-0.2-0.1-0.3-0.1-0.2 0-0.3 0-0.5 0-0.2 0-0.4-0.1-0.6 0-0.4 0-1-0.1-1.5 0-0.6 0.2-1.7 0.6-2.4 0.5-1 0.9-1.6 1.7-2.4 0.7-0.6 1.5-0.8 2.3-1 2.5-0.5 5.6-0.1 7.7 1.9 0.3 0.2 0.4 0.6 0.6 1 0.2 0.4 0.4 0.8 0.5 1.3 0.1 0.6 0.2 1.2 0.2 1.8-0.1 0.5 0 1.1-0.1 1.6-0.1 0.4-0.2 0.7-0.3 1.1q0 0.3 0 0.6c-0.1 0.5-0.2 0.4 0.1 0.9 0.2 0.6 0.4 0.7-0.1 1.3-0.2 0.3-0.4 0.6-0.6 0.9-0.2 0.2-0.5 0.2-0.8 0.2-0.1 0-0.4 0-0.4 0.1 0.1 0.3 0.4 0.1 0.6 0.2 0.1 0.2 0.1 0.4 0.1 0.6 0.1 0.2 0.1 0.4 0 0.6 0 0.4-0.2 0.7-0.2 1.1 0 0.3 0 0.6-0.2 0.9-0.3 0.5-0.8 1-1.3 1.5-0.2 0.1-0.4 0.3-0.5 0.5-0.3 0.3-0.4 0.6-0.6 0.9-0.1 0.2-0.2 0.3-0.3 0.4-0.3 0.4-0.5 0.4-0.9 0.5-0.4 0.1-0.8 0.1-1.2 0.1-0.3 0-0.6 0-0.9 0.1-0.1 0-0.3 0-0.5-0.1-0.4-0.2-0.7-0.5-0.9-0.9-0.1-0.2-0.3-0.4-0.5-0.6-0.2-0.3-0.4-0.6-0.7-0.9-0.2-0.2-0.4-0.3-0.6-0.5-0.2-0.2-0.3-0.4-0.5-0.6-0.1-0.1-0.2-0.2-0.3-0.3-0.4-0.5-0.4-1.1-0.4-1.7q0-0.2 0-0.4c0-0.3-0.1-0.7 0.2-0.8 0.2 0 0.7 0 0.6-0.3-0.2-0.2-0.9 0-1.2-0.1z"/><path fill-rule="evenodd" d="m17.4 18.3c-0.1 0.1-0.1 0.2-0.2 0.3-0.1 0-0.1 0.2-0.2 0.3q-0.2-0.2-0.1-0.3c0.1-0.1 0.1-0.2 0.1-0.2 0-0.3 0.2-0.4 0.3-0.6q0.1 0 0.1 0c0.2-0.3 0.5-0.3 0.8-0.4q0.1-0.1 0.3 0 0.3 0.1 0.6 0.1 0.1 0 0.1 0.2c0 0.3 0 0.7 0 1q0 0.1 0 0.2c-0.2 0.4-0.2 0.7-0.4 1-0.1 0.2-0.2 0.5-0.3 0.7-0.1 0.1-0.2 0.2-0.3 0.4q-0.1 0.1-0.2 0c0 0 0-0.1 0-0.1 0.1-0.2 0-0.3 0-0.4-0.1-0.1-0.2-0.1-0.3 0-0.1 0.1-0.3 0.3-0.3 0.6q0 0 0 0.1 0 0-0.1 0c0 0.1 0 0 0 0-0.2-0.3-0.2-0.3-0.5-0.2-0.3 0.2-0.3 0.5-0.3 0.7q0.1 0.1 0.1 0.1 0 0.1-0.1 0.1c0 0 0 0 0-0.1q0-0.1 0-0.3-0.1-0.2-0.3-0.1-0.1 0.1-0.2 0.1-0.3 0.1-0.2 0.4c0 0.1-0.1 0.2 0 0.4q0 0-0.1 0.1-0.1 0.1-0.1-0.1 0-0.2-0.1-0.4 0-0.2-0.1-0.2-0.2 0-0.4 0.1-0.2 0-0.1 0.1c0 0.2-0.1 0.4 0 0.6 0 0.1 0 0.1-0.1 0.1-0.2 0-0.2-0.1-0.2-0.3q0-0.1 0-0.2 0.1-0.3-0.2-0.3-0.2 0-0.4-0.1-0.2 0-0.2 0.1c0.1 0.2 0 0.4 0 0.6q0.1 0.1-0.1 0.1-0.1 0-0.1-0.1 0-0.3 0-0.5c0-0.2-0.1-0.4-0.3-0.4q-0.3-0.1-0.4 0.2 0 0.1 0 0.2c0 0 0.1 0.1-0.1 0.1-0.1 0-0.2-0.1-0.2-0.2q0.1-0.1 0.1-0.2c0.1-0.3-0.1-0.4-0.4-0.6q-0.2 0-0.3 0.2 0 0.1 0 0.1c0 0.1 0 0.2-0.1 0.2 0 0 0-0.1 0-0.2q0-0.1 0-0.2c0-0.2-0.1-0.4-0.4-0.4q-0.1 0-0.1 0-0.1 0.2-0.1 0.4 0 0.2-0.2 0.1-0.1 0-0.2-0.1c-0.2-0.2-0.3-0.3-0.4-0.4-0.1 0-0.1-0.1-0.1-0.2q-0.1-0.5-0.3-0.9-0.1-0.1-0.1-0.2 0-0.4-0.1-0.7 0-0.1 0-0.2c-0.2-0.4 0-0.6 0.3-0.6q0.2-0.1 0.4-0.1c0.2-0.2 0.4 0 0.6 0 0.1 0 0.1 0.1 0.1 0.1 0.2 0.2 0.4 0.4 0.6 0.5 0.1 0.1 0.1 0.2 0.2 0.3 0.1 0.1 0 0.1 0 0.2q-0.1 0.2-0.1 0.3-0.2-0.1-0.1-0.2 0.1-0.2 0-0.4 0 0-0.1 0c0 0 0 0 0 0q-0.1 0.3-0.3 0.5c-0.1 0.1 0 0.2 0 0.3q0 0.3 0.3 0.5c0.1 0.1 0.2 0 0.2-0.1q0-0.1 0.1-0.1 0-0.1 0.1-0.1 0 0 0 0.1 0 0.1 0 0.1 0 0.5 0.4 0.4c0.2 0 0.3 0 0.3-0.2q0 0 0-0.1 0.1 0 0.1 0.1 0 0.1 0 0.1c0 0.4 0.4 0.6 0.7 0.4q0.1 0 0.1-0.1 0-0.1 0-0.1c0-0.1 0-0.2 0.1-0.2 0.1 0 0 0.1 0 0.2 0 0.3 0.2 0.4 0.4 0.4 0.3 0.1 0.4 0 0.3-0.3q0 0 0-0.1c0 0 0-0.1 0.1-0.1 0.1 0 0.1 0 0.1 0.1q0 0.1 0 0.2c0 0.2 0.1 0.3 0.3 0.3q0.2 0 0.4-0.2 0.1 0 0-0.1 0-0.2 0-0.3c0 0 0-0.1 0.1-0.1 0 0 0 0.1 0 0.1q0.1 0.1 0.1 0.3 0 0.1 0.2 0.1 0.2 0 0.4-0.2c0.1-0.1 0-0.2 0-0.3q0-0.1 0-0.1 0-0.1 0.1-0.1c0-0.1 0 0 0.1 0 0 0.1 0 0.3 0.1 0.3 0.2 0 0.3-0.1 0.4-0.2q0.2-0.1 0.1-0.4-0.1-0.1-0.1-0.2 0-0.1 0-0.1 0.1 0 0.1 0.1 0.1 0.1 0.1 0.2 0.1 0.1 0.2 0 0.1-0.1 0.1-0.2c0.2-0.2 0.2-0.4 0.1-0.6-0.1-0.1-0.2-0.3-0.2-0.5zm-5.6-1.8q-0.3 0-0.5 0c-0.2 0-0.4-0.1-0.6-0.1-0.3-0.1-0.5-0.4-0.8-0.5q-0.2-0.2-0.4-0.3-0.2-0.1-0.2-0.2c0.1-0.4 0-0.8 0.2-1.2q0 0 0-0.1c0-0.3 0.2-0.4 0.4-0.5 0.2-0.1 0.4-0.3 0.6-0.3 0.2-0.1 0.4 0 0.6 0 0.3 0 0.6 0.1 0.9 0.1 0.2 0 0.3 0.1 0.5 0.1q0.1 0 0.1 0.1c0.3 0.4 0.7 0.6 1.1 0.9 0.1 0.1 0.1 0.2 0.1 0.3-0.3 0.5-0.6 1-1.1 1.4q-0.4 0.3-0.9 0.3z"/><path  d="m15.7 14.7c0-0.1 0.1-0.2 0.1-0.3q0.5-0.4 0.8-0.9c0.2-0.1 0.4-0.2 0.6-0.3 0.4-0.1 0.8-0.1 1.2-0.2 0.3 0 0.5 0 0.7 0.3q0.2 0.2 0.5 0.4 0.2 0.1 0.2 0.3c-0.1 0.2 0 0.5 0 0.7 0.1 0.3 0 0.5-0.2 0.7-0.1 0.2-0.2 0.3-0.3 0.4 0 0.2-0.2 0.3-0.3 0.4q-0.1 0-0.1 0c-0.3 0-0.6 0-0.9 0.1-0.4 0-0.7-0.1-1-0.2q-0.4-0.2-0.7-0.4-0.5-0.4-0.6-1z"/><path fill-rule="evenodd" d="m14.3 18.5c-0.4 0.1-0.4-0.2-0.6-0.4-0.2-0.2-0.2-0.4-0.1-0.6q0-0.2 0.1-0.4c0.1-0.1 0.1-0.3 0.2-0.5 0-0.3 0.2-0.5 0.3-0.8q0.1-0.1 0.2-0.3c0.1-0.1 0.1-0.1 0.3 0 0 0 0.1 0.1 0.1 0 0.1-0.1 0.2-0.1 0.3 0 0.2 0 0.2 0.2 0.3 0.4q0.1 0.5 0.3 0.9c0 0.1 0 0.3 0.1 0.4q0.1 0.1 0.1 0.2c0.1 0.2 0.1 0.3 0 0.5q-0.2 0.2-0.4 0.5c-0.1 0.2-0.3 0.1-0.4 0.1-0.1 0-0.2-0.1-0.2-0.2q0-0.3 0-0.5c0-0.1 0-0.1-0.1-0.1q-0.1 0-0.1 0.1 0 0.1 0 0.2c0.1 0.1 0 0.3 0 0.4-0.1 0.1-0.3 0.1-0.4 0.1zm6.6-4.1c-0.2-0.2-0.4-0.4-0.4-0.7q0 0 0 0c0.1-0.4-0.2-0.6-0.4-0.8-0.3-0.3-0.3-0.4-0.1-0.7q0.1-0.4 0.3-0.8 0.2-0.4 0.3-0.8c0-0.2 0.1-0.3 0.3-0.4q0 0 0.1 0.1c0 0 0 0 0 0q-0.2 0.4-0.2 0.7-0.1 0.3-0.2 0.5c-0.1 0.2-0.1 0.4-0.1 0.6q-0.1 0.2 0 0.3c0.2 0.2 0.2 0.4 0.3 0.6q0 0.1 0.1 0.1c0.1 0.1 0.1 0.2 0.1 0.4-0.1 0.2-0.1 0.5-0.1 0.9zm-11.2-2q0 0.2-0.2 0.3c-0.2 0.1-0.4 0.3-0.4 0.5 0 0.1-0.1 0.1-0.1 0.2-0.2 0.2-0.2 0.5-0.2 0.7 0 0.1 0 0.1 0 0.2-0.1 0-0.1-0.1-0.1-0.1q-0.1-0.3-0.2-0.6c-0.1-0.2 0-0.4 0-0.6 0.1-0.2 0.2-0.2 0.3-0.4 0.1-0.1 0.2-0.3 0.1-0.5 0-0.4 0-0.7-0.2-1.1 0 0 0-0.1 0-0.1 0.1-0.1 0.2-0.1 0.3 0q0.1 0.2 0.2 0.3 0.1 0.3 0.2 0.7 0.1 0.1 0.2 0.2c0 0.1 0.1 0.2 0.1 0.3z"/><path class="b" d="m28.7 17.1q-0.4 2.4-1.6 4.5-2.1 3.9-6 5.9-2 1.1-4.3 1.4v-3.7c0.1-0.1 0.2-0.1 0.3-0.2q6-1.7 7.7-7.6c0.1-0.4 0.1-0.4 0.4-0.4q1.6 0 3.1 0c0.1 0 0.2 0 0.4 0.1z"/></svg>