<svg version="1.2" xmlns="http://www.w3.org/2000/svg" viewBox="0 0 4 20" width="4" height="20"><style></style><path  d="m1.7 17.6c-0.1 0.2-0.2 0.3-0.3 0.5-0.2 0.4-0.1 1.2-0.9 1-0.7-0.2-0.4-0.9-0.3-1.3 0.1-0.5 0-0.9 0-1.4-0.1-0.8 0.1-1.6 0.2-2.4 0.2-1.3 0.5-2.7-0.1-4.2-0.5-1.4-0.4-3.1 0.1-4.6 0.3-0.7 0.7-1.5 0.1-2.3-0.4-0.5-0.1-1.4 0.3-1.9 0.4-0.5 1.2-0.2 1.8-0.2 0.3 0 0.5 0.3 0.5 0.6 0.2 1.3 0.5 2.6 0.5 4 0 0.4 0 0.9-0.3 1.2-0.2 0.2-0.4 0.5-0.1 0.7 1.1 0.9 0.6 2.2 0.4 3-0.2 1.2 0.2 2.2 0.2 3.2 0 1.6 0 3.2 0.1 4.8 0.1 0.6-0.1 0.9-0.9 1-0.7 0.1-0.8-0.1-0.8-0.6 0-0.4-0.1-0.8-0.5-1.1z"/></svg>