<svg version="1.2" xmlns="http://www.w3.org/2000/svg" viewBox="0 0 29 29" width="29" height="29"><style>.a{fill:#a11f1d}.b{fill:none;stroke:#e30f13;stroke-width:.6}.c{fill:#fff}.d{fill:none;stroke:#ac1616;stroke-width:.8;stroke-dasharray:2.4820001125335693,1.6660000085830688}.e{fill:none;stroke:#ac1616;stroke-width:.8}</style><path class="a" d="m14.5 23.5c5 0 9-4 9-8.9 0-5-4-9-9-9-4.9 0-8.9 4-8.9 9 0 4.9 4 8.9 8.9 8.9z"/><path fill-rule="evenodd" class="b" d="m14.5 23.5c5 0 9-4 9-8.9 0-5-4-9-9-9-4.9 0-8.9 4-8.9 9 0 4.9 4 8.9 8.9 8.9z"/><path class="c" d="m14.7 8c0 0 0 0 0.1 0 0.3 0.1 0.5 0.3 0.6 0.6 0.1 0.1 0 0.3-0.2 0.5-0.3 0.3-0.8 0.4-1.3 0.4 0 0-0.1 0-0.1-0.1 0 0 0.1-0.1 0.1-0.1q0.2-0.1 0.3-0.1 0.3-0.1 0.4-0.2 0.1-0.1 0.1-0.2-0.1-0.1-0.2-0.1c-0.4 0-0.7 0.1-1 0.3q-0.3 0.3-0.6 0.5-0.6 0.5-0.5 1.3 0.1 0.2 0 0.4 0 0.2 0.1 0.4 0.1 0.2 0.2 0.3 0.1 0.2 0.2 0.1c0.3-0.4 0.7-0.6 1.1-0.7 0.3-0.1 0.6 0 0.9 0 0.3 0 0.7-0.1 1-0.2q0.2 0 0.4-0.2c0.1 0 0.1 0 0.2 0 0 0.1 0 0.1 0 0.2q-0.6 0.6-1.4 0.7c-0.4 0.1-0.9 0.2-1.3 0.3q-0.2 0.1-0.4 0.3-0.1 0.1 0.1 0.2 0.4 0.3 0.9 0.3 1 0.2 1.9 0.3c0.3 0.1 0.7 0.2 1 0.3q1 0.6 1.4 1.6c0.2 0.3 0.2 0.6 0.3 0.9q0 0.2-0.1 0.4 0 0.3-0.1 0.5 0 0.3-0.1 0.6 0 0.2-0.1 0.4 0 0.1 0 0.2-0.1 0.4-0.1 0.9c0 0.2 0.1 0.3 0.2 0.4 0 0.2 0.1 0.4 0.2 0.6q0.1 0.1 0.2 0.2c0 0.1 0.1 0.1 0 0.2 0 0.1-0.1 0-0.1 0q-0.6-0.2-1-0.7-0.1-0.3-0.2-0.6c0-0.1 0-0.1-0.1-0.2 0 0 0 0.1-0.1 0.1-0.2 0.2-0.4 0.5-0.5 0.7q-0.2 0.3-0.1 0.6 0.1 0.4 0.2 0.8 0 0.2 0.1 0.4 0.1 0 0.1 0.1 0 0.2 0.1 0.3 0.1 0.1 0.1 0.1 0 0.1-0.1 0.1-0.1 0-0.1 0c-0.2-0.3-0.5-0.5-0.7-0.8-0.3-0.4-0.5-0.9-0.5-1.4q0.1-0.4 0.4-0.7c0.2-0.3 0.4-0.5 0.6-0.8 0.2-0.2 0.4-0.5 0.6-0.7q0.1-0.3 0.3-0.7c0.1-0.4 0.2-0.9 0.1-1.3-0.1-0.3-0.2-0.5-0.4-0.8q-0.2-0.2-0.4-0.4 0-0.1-0.1-0.1 0 0.1 0 0.1c0 0.6-0.3 0.9-0.7 1.2-0.3 0.3-0.7 0.4-1 0.6-0.3 0.2-0.7 0.3-1 0.5q-0.4 0.3-0.9 0.7c-0.1 0.1-0.2 0.3-0.4 0.5 0 0 0 0.1-0.1 0-0.1 0-0.1-0.1-0.1-0.1 0-0.2 0.1-0.3 0.2-0.5q0.1-0.4 0.5-0.8 0.2-0.2 0.4-0.3c0.3-0.2 0.6-0.5 0.8-0.8q0.2-0.6 0-1.2-0.2-0.3-0.5-0.5 0 0-0.1-0.1-0.1-0.1-0.3-0.1-0.1 0-0.2-0.1-0.1 0-0.1 0.1c0 0.2-0.1 0.4-0.2 0.6 0 0.2-0.2 0.4-0.4 0.5-0.6 0.5-1.3 0.6-2.1 0.4-0.3-0.1-0.6-0.4-0.8-0.6q-0.2-0.2-0.3-0.5-0.1-0.1-0.1-0.2 0-0.1 0-0.1 0.1 0 0.1 0c0.3 0.3 0.6 0.5 0.9 0.6q0.1 0.1 0.3 0.1c0.5 0.2 1 0.1 1.4-0.1 0.3-0.1 0.4-0.4 0.5-0.7 0-0.1-0.1-0.3-0.1-0.4q-0.2-0.2-0.4-0.4c-0.2-0.2-0.5-0.5-0.6-0.8-0.3-0.7-0.4-1.3-0.2-1.9 0-0.3 0.2-0.6 0.4-0.9q0.5-0.5 1.2-0.9 0.4-0.2 0.8-0.3c0.1 0 0.1 0 0.1 0zm1 7.4q0 0.1 0.1 0.1c0.3-0.2 0.5-0.4 0.7-0.7 0.2-0.2 0.2-0.3 0-0.6-0.2-0.2-0.4-0.4-0.6-0.4q-0.1 0-0.2 0c-0.2 0-0.2 0-0.2 0.2 0.1 0.2 0.2 0.3 0.2 0.5q0 0.4 0 0.9z"/><path class="d" d="m17.4 27.4c5.2-1.1 9.3-5.4 10.2-10.8m-0.2-4.9c-1.2-5.3-5.5-9.3-10.8-10.2m-5 0.2c-5.2 1.1-9.3 5.4-10.1 10.8m0.1 4.9c1.2 5.3 5.5 9.3 10.9 10.2"/><path fill-rule="evenodd" class="e" d="m27.7 15.8q0-0.6 0-1.2 0-0.7 0-1.3m-11.9-11.9q-0.7 0-1.3 0-0.6 0-1.2 0m-11.9 11.9q-0.1 0.6-0.1 1.3 0 0.6 0.1 1.2m11.9 11.9q0.6 0.1 1.2 0.1 0.6 0 1.3-0.1"/></svg>