<svg version="1.2" xmlns="http://www.w3.org/2000/svg" viewBox="0 0 37 19" width="37" height="19"><style></style><path fill-rule="evenodd" d="m13.6 5.5q0-2.2 0-4.4c0-0.1-0.1-0.2 0.1-0.3 0.1 0 0.2 0.1 0.2 0.3q1.6 2.7 3.2 5.5 0.5 1 1.1 1.9 0.1 0.3 0.3 0 0.8-1.3 1.5-2.6 1.2-2.1 2.4-4.2 0.2-0.3 0.4-0.7c0.1-0.1 0.1-0.2 0.2-0.2 0.2 0 0.1 0.2 0.1 0.3q0 1.6 0.1 3.1 0 2.7 0.1 5.3 0 0.1 0 0.2c0 0.2 0.1 0.3 0.3 0.2q1.8-1.1 3.5-2.2 1.9-1.1 3.7-2.2c0.1-0.1 0.2-0.2 0.3-0.1 0.1 0.1 0 0.2 0 0.3q-1.3 2.5-2.6 5-0.7 1.3-1.4 2.7c-0.1 0.3-0.2 0.3-0.5 0.1q-1.6-1.6-3.1-3.1-0.3-0.2-0.5-0.3-1.4-0.4-2.8-0.7-0.8-0.2-1.6-0.4-0.2-0.1-0.4-0.1-1 0.3-2 0.6-1.2 0.3-2.4 0.6c-0.3 0.1-0.4 0-0.4-0.3q0.1-2.2 0.1-4.3 0 0 0.1 0zm-8.6 8.1q2.1 0.1 4.1 0.2c0.4 0 0.5-0.1 0.3-0.5q-1.1-2.1-2.3-4.3-0.8-1.5-1.6-3 0-0.1-0.1-0.2c0-0.1 0-0.1 0-0.2 0.1-0.1 0.2 0 0.2 0q0.3 0.2 0.6 0.3 1.8 1.1 3.6 2.1 1.5 1 3.1 1.9 0.1 0.1 0.1 0.1c0.4 0.2 0.4 0.2 0 0.6-0.9 0.9-1.8 1.8-2.7 2.6-0.5 0.5-0.7 1.1-0.9 1.7q-0.5 1.7-1 3.4c-0.2 0.4-0.2 0.4-0.6 0.2q-1.9-1.3-3.9-2.6-1.6-1-3.1-2c-0.1-0.1-0.3-0.1-0.3-0.3 0.1-0.1 0.2-0.1 0.4-0.1q1.6 0.1 3.3 0.1 0.4 0 0.8 0z"/><path  d="m27 14c0-0.2 0.2-0.2 0.3-0.2q1.2-0.1 2.4-0.1 3-0.1 6.1-0.2 0.1 0 0.1 0.1c0.1 0 0.2 0 0.3 0.1 0 0.1-0.1 0.1-0.2 0.1q-2 1.3-3.9 2.6-1.6 1.1-3.3 2.1c-0.3 0.2-0.3 0.2-0.5-0.2q-0.5-1.7-1-3.4-0.1-0.5-0.3-0.9z"/></svg>