<svg version="1.2" xmlns="http://www.w3.org/2000/svg" viewBox="0 0 28 29" width="28" height="29"><style>.a{fill:#fff}</style><path class="a" d="m17.7 25h-6.3v-20.4h6.3z"/><path  d="m27.8 14.5q0 2.6 0.1 5.2c0 0.3-0.1 0.5-0.3 0.7q-3.8 3.7-7.5 7.5-0.3 0.3-0.8 0.3-5.1 0-10.2 0-0.5 0-0.8-0.4-3.7-3.7-7.4-7.4-0.3-0.3-0.3-0.7 0-5.2 0-10.4c-0.1-0.6 0.4-0.9 0.7-1.2q3.5-3.5 7-7c0.2-0.3 0.5-0.4 0.9-0.4q5 0.1 10 0c0.4 0 0.7 0.2 1 0.4q3.6 3.7 7.2 7.3c0.3 0.3 0.5 0.6 0.5 1.1q-0.1 2.5-0.1 5zm-11.8-5.7c0-1.1 0-2 0-2.9 0-0.4-0.1-0.5-0.6-0.5q-1.2 0-2.4 0c-0.4 0-0.6 0.1-0.6 0.5-0.1 3.2 0.1 6.4 0.6 9.5 0.2 1.7 0.2 1.7 1.8 1.6q0.1 0 0.1 0 0.3 0 0.4-0.3c0.3-2.7 0.8-5.4 0.7-7.9zm-1.8 11.1h-0.2c-1.6 0-1.6 0-1.6 1.6 0 1.8 0 1.8 1.9 1.8 1.7 0 1.7 0 1.7-1.7 0-1.7 0-1.7-1.8-1.7z"/></svg>