<svg version="1.2" xmlns="http://www.w3.org/2000/svg" viewBox="0 0 28 28" width="28" height="28"><defs><clipPath clipPathUnits="userSpaceOnUse" id="cp1"><path d="m0.39 27.1h28.85v-27.21h-28.85z"/></clipPath></defs><style>.a{fill:#fff;stroke:#fff;stroke-width:3.1}.b{fill:#12110c}</style><g clip-path="url(#cp1)"><path class="a" d="m-0.5 54c14.5 0 26.3-11.7 26.3-26.1 0-14.3-11.8-26-26.3-26-14.5 0-26.3 11.7-26.3 26 0 14.4 11.8 26.1 26.3 26.1z"/><path class="b" d="m12.8 17.3c0 0.9-0.8 1.6-1.7 1.6-0.9 0-1.6-0.7-1.6-1.6 0-1 0.7-1.7 1.6-1.7 0.9 0 1.7 0.7 1.7 1.7z"/></g><path class="b" d="m0.4 17.5h10.7v-0.5h-10.7z"/><path class="b" d="m10.9 27.1h0.4v-9.8h-0.4z"/></svg>