<svg version="1.2" xmlns="http://www.w3.org/2000/svg" viewBox="0 0 27 28" width="27" height="28"><style>.a{fill:#fff}.b{fill:#8a2f2c}</style><path  d="m13.2 26.4c6.8 0 12.3-5.5 12.3-12.3 0-6.8-5.5-12.3-12.3-12.3-6.8 0-12.3 5.5-12.3 12.3 0 6.8 5.5 12.3 12.3 12.3z"/><path class="a" d="m13.3 1.2c-7.1 0-12.9 5.8-12.9 12.9 0 7.1 5.8 12.9 12.9 12.9 7.2 0 12.9-5.8 12.9-12.9 0-7.1-5.7-12.9-12.9-12.9zm0 24.1c-6.1 0-11.1-5.1-11.1-11.2 0-6.2 5-11.2 11.1-11.2 6.2 0 11.2 5 11.2 11.2 0 6.1-5 11.2-11.2 11.2z"/><path class="a" d="m13.4 4.6c-5.2 0-9.5 4.3-9.5 9.5 0 5.2 4.3 9.4 9.5 9.4 5.2 0 9.4-4.2 9.4-9.4 0-5.2-4.2-9.5-9.4-9.5zm0 17.2c-4.3 0-7.8-3.5-7.8-7.7 0-4.3 3.5-7.7 7.8-7.7 4.2 0 7.7 3.4 7.7 7.7 0 4.2-3.5 7.7-7.7 7.7z"/><path class="a" d="m13.3 8.1c-3.3 0-6 2.7-6 6 0 3.3 2.7 6 6 6 3.3 0 6-2.7 6-6 0-3.3-2.7-6-6-6zm0 10.3c-2.4 0-4.3-1.9-4.3-4.3 0-2.4 1.9-4.3 4.3-4.3 2.4 0 4.3 1.9 4.3 4.3 0 2.4-1.9 4.3-4.3 4.3z"/><path class="b" d="m0.1 27.8h4.4l21.3-27.3h-4.5z"/></svg>