<svg version="1.2" xmlns="http://www.w3.org/2000/svg" viewBox="0 0 28 28" width="28" height="28"><style></style><path  d="m18.4 23.2c-0.2 0.3-0.5 0.5-0.7 0.8q-1.6 1.9-3.3 3.9c-0.2 0.2-0.3 0.2-0.4 0-0.6-0.9-1.4-1.7-2.1-2.5q-0.5-0.7-1.1-1.3c-0.2-0.3-0.1-0.4 0-0.5 1.6-1.4 3.1-2.8 4.7-4.1q0.9-0.7 1.6-1.4c0-0.2-0.1-0.2-0.1-0.3q-0.6-0.5-1.2-1.1c-0.1-0.1-0.2-0.1-0.3 0q-0.5 0.5-0.9 0.9c-0.3 0.3-0.5 0.3-0.8 0-0.9-0.9-1.9-1.8-2.7-2.8-0.3-0.3-0.3-0.4 0-0.6q3.8-2.8 7.6-5.5 2-1.5 3.9-2.9c0.1-0.1 0.2-0.2 0.4-0.2 0 0.2-0.1 0.2-0.1 0.3-1.1 1.9-2.2 3.9-3.3 5.8-0.7 1.1-1.2 2.2-1.9 3.2-0.1 0.1 0 0.3 0.1 0.4q0.9 1.5 1.9 2.9 1.6 2.4 3.1 4.8c0.1 0.1 0.2 0.1 0.1 0.2-0.1 0.1-0.2 0-0.3 0q-2.3-1-4.5-2.4c-0.6-0.4-0.6-0.4-1.1 0.1q-0.4 0.3-0.8 0.7c-0.2 0.2-0.2 0.4 0.1 0.5q0.9 0.5 1.7 0.9c0.1 0 0.2 0.1 0.4 0.2z"/><path  d="m5.5 10.4q3.4 4.3 6.8 8.6c0.1 0.2 0.1 0.3-0.1 0.4q-2.7 1.6-5.4 3.1-0.6 0.3-1.3 0.7c0-0.2 0.1-0.3 0.1-0.3q1.2-2.4 2.3-4.7c0.3-0.4 0.3-0.5-0.1-0.9q-0.4-0.4-0.8-0.9c-0.2-0.2-0.3-0.2-0.5 0.1q-0.4 0.9-0.8 1.8c-0.1 0.1-0.1 0.2-0.2 0.3-0.2 0-0.2-0.1-0.3-0.2q-2.2-1.8-4.4-3.7c-0.3-0.2-0.3-0.3 0-0.5 1.5-1.1 2.9-2.4 4.3-3.6 0.1-0.1 0.2-0.2 0.4-0.2z"/><path fill-rule="evenodd" d="m5.4 5.6c0.2 0 0.4 0.1 0.5 0.2q2.1 1.2 4.1 2.4c0.5 0.3 0.4 0.3 0.8-0.1q0.5-0.5 1.1-1c0.1-0.1 0.2-0.1 0.2-0.3-0.6-0.4-1.2-0.8-1.8-1.2 0-0.2 0.1-0.3 0.2-0.4q1.5-1.8 3-3.6 0.3-0.2 0.4-0.5c0.2-0.3 0.3-0.3 0.6-0.1q1.3 1.6 2.7 3.2 0.3 0.5 0.7 0.9c0.2 0.2 0.2 0.3 0 0.5q-1.7 1.3-3.3 2.6-2.5 2-5 4c-0.3 0.3-0.4 0.3-0.5 0q-1.8-3.1-3.6-6.2c0-0.1-0.1-0.2-0.1-0.4zm22.4 8.9c0 0.1-0.1 0.1-0.1 0.2q-2.1 1.7-4.1 3.4c-0.2 0.2-0.3 0.1-0.4 0-0.9-1.1-1.8-2.2-2.6-3.3-0.1-0.3-0.1-0.4 0-0.7q1.3-1.6 2.5-3.3c0.1-0.2 0.3-0.2 0.5 0q1.8 1.6 3.6 3.1 0.2 0.2 0.4 0.3c0.1 0.1 0.2 0.1 0.2 0.3z"/></svg>