<svg version="1.2" xmlns="http://www.w3.org/2000/svg" viewBox="0 0 20 28" width="20" height="28"><style></style><path fill-rule="evenodd" d="m19.7 19.1q-0.1 1.5-0.1 3.1c0 0.5-0.2 0.9-0.7 1.1q-0.4 0.3-0.8 0.2-1.4-0.2-2.7-0.4-1-0.1-2-0.3-0.4-0.1-0.4 0.3c0 1.3 0 2.6 0 3.9q0 0.2-0.1 0.2-0.1 0-0.2 0-2.9 0-5.7 0-0.1 0-0.2 0-0.1 0-0.1-0.2 0-1.8 0-3.6c0-0.2 0-0.4-0.1-0.5q0-0.1-0.1-0.1-0.2 0-0.3 0-0.7 0.1-1.3 0.2-1.1 0.2-2.2 0.3-0.6 0.1-1.1 0.2c-0.7 0.1-1.4-0.4-1.5-1q-0.1-0.1-0.1-0.2 0-3 0-6 0-0.2 0-0.4 0-0.2 0.1-0.4 0.1-0.3 0.3-0.3 0.8 0.1 1.6 0c0.4 0 0.5 0.3 0.5 0.5q0.1 0.2 0.1 0.4 0 2.2 0 4.3 0 0.1 0 0.2 0 0.2 0.1 0.1 0.7-0.1 1.5-0.3 0.8-0.1 1.5-0.3c0.4-0.1 0.7-0.1 1-0.2q0.2 0 0.4 0 2.7 0 5.5 0c0.3 0 0.5 0.1 0.8 0.1q1.1 0.2 2.1 0.4 0.7 0.2 1.4 0.3c0.2 0.1 0.2 0 0.2-0.2q0-2.2 0-4.5 0-0.3 0.2-0.6 0.1-0.2 0.3-0.2 0.8 0 1.7 0c0.2 0 0.3 0.2 0.3 0.4q0.1 0.1 0.1 0.2c-0.1 1.1 0 2.2 0 3.3zm-4.7-15c0 0.9-0.2 1.6-0.6 2.3q-0.6 0.9-1.5 1.4-0.4 0.2-0.9 0.4-0.5 0.2-1 0.6-0.4 0.3-0.6 0.7-0.1 0.2-0.3 0.1-0.5-0.2-0.9-0.4c-0.1-0.1-0.1-0.2-0.1-0.3q0.3-0.7 0.7-1.4 0.3-0.8 0.7-1.6 0.1-0.2 0.3-0.3 0.6-0.1 1.1-0.3 0.3-0.1 0.6-0.2c0.2-0.1 0.2-0.1 0.1-0.3q-0.1-0.3-0.2-0.5 0-0.2-0.2-0.1-0.7 0.3-1.4 0.5c-0.3 0.1-0.3 0.1-0.4-0.2q-0.2-0.6-0.5-1.3c-0.1-0.2-0.1-0.2-0.3-0.2q-0.2 0.1-0.5 0.2-0.1 0.1 0 0.2 0.3 0.9 0.7 1.8 0 0.1 0 0.3-0.6 1.2-1.1 2.4-0.2 0.3-0.4 0.7 0 0.2-0.2 0.1-0.5-0.3-0.9-0.5-0.2 0-0.2-0.2 0.3-1 0.1-1.9-0.1-0.3-0.2-0.7-0.2-0.5-0.2-1.1-0.1-1.2 0.5-2.2 0.4-0.8 1.1-1.3 0.5-0.4 1.2-0.6 0.7-0.2 1.5-0.2 0.4 0 0.9 0.1 0.5 0.1 0.9 0.4 0.7 0.4 1.3 1 0.8 1 0.9 2.4 0 0 0 0.1 0 0.1 0 0.1z"/><path fill-rule="evenodd" d="m7.5 16.6c0-1.3 0.7-2.2 1.8-2.5 0.6-0.2 1.2-0.1 1.7 0.2 1.2 0.8 1.5 2.4 0.7 3.6q-0.6 1-1.8 1c-0.4 0.1-0.8-0.1-1.1-0.2-0.8-0.5-1.3-1.3-1.3-2.1zm2.4-6c-0.1 0.2-0.1 0.4-0.3 0.5q-0.1 0-0.1 0-0.2 0.2-0.3 0.1-1-0.5-1.9-0.9-0.4-0.1-0.7-0.3c-0.2-0.1-0.3-0.2-0.2-0.4q0.1-0.2 0.2-0.4c0.1-0.1 0.1-0.2 0.2-0.1q0.8 0.4 1.6 0.7 0.7 0.3 1.4 0.6c0 0.1 0.1 0.1 0.1 0.2z"/><path  d="m8.3 11.7c0 0.2-0.1 0.4-0.2 0.6q-0.1 0-0.2 0-0.7-0.3-1.4-0.7-0.1 0 0-0.1 0.1-0.3 0.2-0.5 0-0.1 0.2-0.1 0.7 0.3 1.4 0.7 0 0 0 0.1z"/></svg>