<svg version="1.2" xmlns="http://www.w3.org/2000/svg" viewBox="0 0 28 28" width="28" height="28"><style></style><path  d="m10.2 0q4.6 0 9.2 0c0.5 0 0.5 0 0.3 0.4-0.8 1.5-1.6 2.9-2.5 4.4-0.7 1.2-1.3 2.4-2 3.6q-0.4 0.7-0.8 1.4c-0.1 0.2-0.1 0.2 0.1 0.2q0.8 0 1.5 0 1.7 0 3.4 0 0.1 0 0.2 0 0.3 0.1 0.2 0.3-0.6 1-1.1 1.9-0.8 1.4-1.6 2.8c0 0 0 0.1-0.1 0.1-0.1 0-0.1-0.1-0.1-0.2q0-0.2 0.1-0.4c0.2-0.8 0.3-1.5 0.4-2.3q0-0.2 0-0.4 0-0.3-0.3-0.3c-0.2 0-0.5 0-0.7 0q-1.3 0-2.6 0-0.2 0-0.4 0.2-0.8 1.3-1.5 2.6-0.8 1.3-1.5 2.7c-0.2 0.2-0.3 0.2-0.4 0q-0.8-1.5-1.7-2.9-0.4-0.8-0.8-1.6 0 0-0.1 0 0-0.1 0-0.2 0.1 0 0.2 0 0.1 0.1 0.3 0.2 1 0.8 2 1.6c0.2 0.1 0.3 0.1 0.4-0.1q0.5-0.9 1.1-1.8c0.4-0.7 0.8-1.5 1.2-2.2 0.3-0.6 0.7-1.2 1-1.8q0.3-0.6 0.7-1.2c0.1-0.2 0-0.3-0.2-0.3q-1.5 0-3.1 0-0.3 0-0.3 0.3 0 0 0 0.1 0.2 0.8 0.3 1.6 0.1 0.4 0.2 0.9 0 0.1 0 0.2 0 0.1-0.1 0.1c-0.1 0-0.2 0-0.2-0.1q-0.5-0.8-0.9-1.7-0.7-1.2-1.4-2.4c-0.1-0.1-0.2-0.2-0.1-0.4 0-0.1 0.2-0.1 0.4-0.1q3 0 5.9 0c0.4 0 0.5-0.1 0.7-0.4q0.8-1.5 1.7-3c0.1-0.2 0.1-0.3-0.2-0.3q-0.1 0-0.2 0-6.6 0-13.3 0c-0.1 0-0.3-0.1-0.4 0-0.1 0.2 0.1 0.3 0.1 0.4q0.7 1.2 1.4 2.4 0.7 1.3 1.5 2.7 0.8 1.5 1.7 3 0.3 0.6 0.6 1.1c0.2 0.3 0.1 0.4-0.2 0.4q-1.3 0-2.6 0-1.2 0-2.3 0c-0.3 0-0.3 0.1-0.2 0.3q0.5 0.9 1.1 1.8 1 1.8 2 3.6 0.8 1.5 1.6 2.9 0.9 1.5 1.7 3.1 0.3 0.4 0.5 0.8c0.1 0.3 0.2 0.3 0.3 0q0.6-1 1.2-2.1 0.9-1.5 1.7-3 0.7-1.1 1.3-2.3c0.2-0.3 0.2-0.5 0.1-0.8q0-0.2 0-0.3c-0.1-0.7-0.2-1.5-0.3-2.2 0-0.1-0.1-0.3 0-0.3 0.1-0.1 0.2 0.1 0.2 0.2q0.9 1.5 1.7 2.9 0.8 1.6 1.7 3.1 0.2 0.3 0.3 0 1-1.6 1.9-3.3 0.8-1.4 1.5-2.7 0.8-1.4 1.5-2.7 1-1.6 1.9-3.3 0-0.1 0.1-0.2c0.1-0.2 0.1-0.3-0.2-0.3q-3.3 0-6.6 0c-0.5 0-0.5 0-0.3-0.4q0.3-0.5 0.6-0.9 0.1-0.2 0.3-0.2 0.1 0 0.2 0 4.1 0 8.2 0c0.5 0 0.5 0.1 0.3 0.5q-1.1 2-2.2 3.9-1.1 1.9-2.2 3.8-1.2 2.2-2.5 4.4-1.2 2.3-2.5 4.5-0.1 0.2-0.3 0-0.2-0.4-0.5-0.9-0.9-1.6-1.8-3.2-0.1-0.3-0.3 0-0.8 1.5-1.7 3.1-0.8 1.4-1.7 2.9-0.7 1.4-1.5 2.7 0 0.1 0 0.1c-0.1 0.1-0.1 0.2-0.2 0.2-0.1 0-0.2-0.1-0.2-0.2q-0.9-1.5-1.7-3-0.8-1.4-1.6-2.7-0.7-1.3-1.4-2.7-0.7-1.1-1.4-2.3-1-1.8-2-3.7-0.5-0.9-1-1.8c-0.1-0.2-0.3-0.3-0.3-0.5q-0.1-0.3 0.1-0.3 0.1 0 0.3 0 2.3 0 4.6 0 0.1 0 0.2 0 0.3 0 0.1-0.2-0.3-0.6-0.6-1.2-0.8-1.3-1.5-2.7-0.7-1.2-1.4-2.4-0.7-1.2-1.4-2.4-0.2-0.4-0.4-0.7c-0.1-0.3-0.1-0.4 0.3-0.4q4.3 0 8.6 0z"/></svg>