<svg version="1.2" xmlns="http://www.w3.org/2000/svg" viewBox="0 0 43 18" width="43" height="18"><style></style><path  d="m43 8.9c0-5.1-3.7-9-9-9-5.1 0-8.5 3.3-12 6.8-3.3-3.5-6.9-6.8-11.6-6.8-5.6 0-9.5 4-9.5 9.1 0 4.8 4 8.8 9 8.8 5.3 0 8.8-3.5 12-6.6 4.6 4.5 7.8 6.6 11.5 6.6 5.2 0 9.6-3.4 9.6-8.9zm-32.4 6c-3.5 0-6.1-2.5-6.2-5.9-0.1-3.2 2.1-6.2 5.7-6.2 4.1 0 7.3 3.4 10 6.3-2.3 2.3-5.8 5.8-9.5 5.8zm23-12.1c3.3 0 6.1 2.2 5.9 6.3-0.1 3.1-2.5 5.8-6.1 5.8-3.6-0.3-5.7-2.4-9.5-6.1 2-1.9 5.8-6 9.7-6z"/></svg>