<svg version="1.2" xmlns="http://www.w3.org/2000/svg" viewBox="0 0 28 28" width="28" height="28"><style></style><path  d="m0.3 27.5c0.1-0.3 0.2-0.5 0.3-0.7 0.5-1.6 1.4-3.1 2.1-4.6q1-1.9 2-3.9 1-2 2.1-4.1 0.9-1.8 1.8-3.6 1-2 2.1-4.1 0.9-1.9 1.9-3.8 0.5-1.1 1.1-2.1c0-0.1 0-0.2 0.1-0.2 0.1 0 0.1 0.1 0.2 0.2q0.6 1.2 1.2 2.4 0.9 1.8 1.9 3.7 0.3 0.7 0.7 1.4 0.1 0.2-0.1 0.4c-0.7 0.8-1.3 1.6-2 2.5-0.2 0.3-0.3 0.3-0.4 0q-0.6-1.3-1.3-2.5c0-0.1-0.1-0.3-0.2-0.3-0.1 0-0.1 0.2-0.2 0.3q-0.8 1.6-1.7 3.3c0 0.1-0.1 0.2 0.1 0.3 0.6 0.4 1.1 0.9 1.7 1.4q0.6 0.4 1.2 0.9c0.2 0.2 0.4 0.2 0.6-0.1 0.6-0.6 1.2-1.3 1.7-2q1.6-1.7 3.1-3.5 1-1.1 1.9-2.2c0.3-0.4 0.3-0.5 0-0.8q-0.5-0.3-0.9-0.7-0.3-0.3 0.1-0.5 1.1-0.4 2.2-0.8 1.5-0.6 3.1-1.2 0.2-0.1 0.4-0.1 0.4-0.1 0.3 0.2-0.2 1.1-0.3 2.2-0.2 1.1-0.4 2.3-0.1 0.9-0.2 1.9c-0.1 0.3-0.2 0.3-0.4 0.1q-0.5-0.4-0.9-0.7c-0.2-0.2-0.4-0.2-0.5 0q-1.3 1.4-2.5 2.8-1.4 1.7-2.9 3.4-1.6 1.8-3.2 3.6c-0.4 0.6-0.5 0.6-1 0.1q-1.2-0.8-2.3-1.7c-0.1-0.2-0.3-0.1-0.4 0-1.2 0.9-2.3 2-3.4 3-0.9 0.9-1.9 1.7-2.9 2.6q-1 0.9-2 1.9c-0.8 0.7-1.6 1.4-2.4 2.1q-0.5 0.5-1.1 1c0 0.1-0.1 0.2-0.3 0.2z"/><path  d="m16.2 27.6q-5.4 0-10.8 0-0.2 0-0.5 0c0 0-0.1 0-0.1-0.1 0-0.1 0-0.1 0.1-0.2q0.4-0.4 0.8-0.9 1-1.1 2-2.2c0.2-0.1 0.3-0.2 0.6-0.2q1.9 0 3.7 0 4.7 0 9.3 0c0.6 0 0.6 0 0.3-0.5q-1.1-2.2-2.2-4.5-0.2-0.4-0.4-0.8-0.2-0.2 0-0.4 1-1.3 2.1-2.5c0.2-0.2 0.3-0.2 0.4 0.1q1.4 2.8 2.8 5.6 1.4 2.7 2.7 5.4 0.2 0.3 0.4 0.7c0.1 0.1 0.2 0.2 0.1 0.4 0 0.1-0.2 0.1-0.3 0.1q-5.5 0-11 0z"/></svg>