<svg version="1.2" xmlns="http://www.w3.org/2000/svg" viewBox="0 0 44 26" width="44" height="26"><style>.a{fill:none;stroke:#000;stroke-miterlimit:10;stroke-width:4.4}.b{fill:none;stroke:#f7f6f7;stroke-miterlimit:10;stroke-width:1.1}</style><path fill-rule="evenodd" class="a" d="m17.2 16.9c1.6 1.7 2.5 2.6 4.2 4.3h-14.1c-1.6-1.7-2.5-2.6-4.2-4.3v-7.1c1.7-1.6 2.6-2.6 4.2-4.2h14.1c-1.1 1.1-1.9 1.9-2.8 2.7-0.4 0.5-0.9 1-1.4 1.5zm10.3-7.1v7.1l-4.2 4.2h-1.9c-1.7-1.6-2.6-2.6-4.2-4.2v-7.1c0.5-0.6 1-1.1 1.4-1.5 0.9-0.9 1.7-1.6 2.8-2.7h1.9c1.6 1.6 2.6 2.5 4.2 4.2zm14.1 0v7.1c-1.7 1.6-2.6 2.6-4.2 4.2h-14.1l4.2-4.2v-7.1c-1.6-1.7-2.6-2.6-4.2-4.2h14.1c1.6 1.6 2.5 2.5 4.2 4.2z"/><path fill-rule="evenodd" class="b" d="m21.9 0.3l10.1 10.2m-19.6 5l10.2 10.1m-13.6-17.3h13.4m-0.1 10.2h14"/></svg>