<svg version="1.2" xmlns="http://www.w3.org/2000/svg" viewBox="0 0 60 40" width="60" height="40"><defs><clipPath clipPathUnits="userSpaceOnUse" id="cp1"><path d="m13.9 0.28l-12.97 12.96v13.07l12.97 12.96h41.49l4-4v-30.99l-4-4z"/></clipPath></defs><style>.a{fill:#8f2e26}.b{fill:#fff}</style><path  d="m13.9 0.3l-13 12.9v13.1l13 13h41.5l4-4v-31l-4-4z"/><g clip-path="url(#cp1)"><path class="a" d="m59.4 38.1c-10.2 0-20-8.6-20-18.8 0-10.1 9.8-17.9 20-17.9"/><path fill-rule="evenodd" class="b" d="m59.4 3.1c-0.2 0-0.6 0-0.7-0.1q0-0.1-0.1 0-0.2 0-0.4 0-0.1 0-0.2 0-0.1 0.1-0.3 0.1-0.6 0-1.2 0c-0.2 0-0.3 0-0.4 0.1 0 0.1-0.1 0.1-0.1 0.1-0.3-0.1-0.5 0-0.7 0q0 0-0.1 0.1c-0.1 0.1-0.2 0-0.4 0.1-0.1 0-0.1 0-0.2 0-0.1 0.1-0.2 0-0.3 0-0.1 0-0.2 0-0.3 0.1q-0.1 0.1-0.2 0.1c-0.1 0-0.2 0-0.3 0-0.2 0.2-0.4 0.1-0.6 0.2q-0.2 0.1-0.3 0.2c-0.1 0-0.2 0-0.3 0.1-0.1 0.1-0.2 0.1-0.3 0.1q-0.1 0-0.1 0c-0.1 0.2-0.3 0.1-0.4 0.3-0.1 0-0.2 0.1-0.2 0.1q-0.2 0-0.3 0.1c-0.1 0.1-0.3 0.1-0.3 0.2-0.1 0-0.2 0-0.3 0-0.1 0.1-0.1 0.2-0.3 0.2q-0.2 0.1-0.4 0.3 0 0 0 0.1-0.3 0.1-0.5 0.3c-0.1 0-0.1 0-0.2 0 0 0.1-0.1 0.1-0.2 0.2 0 0 0 0-0.1 0.1-0.1 0-0.2 0.1-0.3 0.2q0 0.1-0.1 0.1c-0.1 0-0.3 0.2-0.4 0.3q-0.1 0.1-0.2 0.2c-0.1 0.1-0.3 0.2-0.4 0.3-0.2 0.1-0.3 0.2-0.4 0.4q-0.3 0.2-0.5 0.4c-0.2 0.1-0.3 0.3-0.4 0.4q0 0.1 0 0.1c0 0.1-0.1 0.1-0.2 0.1-0.1 0.1-0.1 0.1-0.2 0-0.2-0.1-0.4-0.2-0.5-0.4-0.2-0.1-0.5-0.1-0.7 0 0.3 0 0.4 0.2 0.5 0.3 0.2 0.1 0.2 0.3 0.4 0.3 0.1 0 0.1 0.1 0.2 0.1 0 0.1 0 0.2 0 0.2q-0.2 0.1-0.2 0.3c0 0.1-0.2 0.2-0.2 0.3-0.1 0-0.2 0.1-0.2 0.2q-0.1 0-0.1 0.1 0 0.1-0.1 0.1c-0.1 0.1-0.2 0.2-0.2 0.3 0 0.2-0.1 0.1-0.2 0.2q0 0.1-0.1 0c-0.1-0.1-0.1-0.1-0.2-0.1q-0.1 0-0.3 0c-0.1 0-0.2 0-0.2-0.1q0.1-0.2-0.1-0.3c0-0.1-0.1-0.2-0.2-0.3 0-0.2-0.2-0.3-0.3-0.4q0-0.1-0.1-0.1-0.1-0.3-0.2-0.5-0.1-0.1 0.1-0.2 0.1-0.1 0.1-0.2 0.1-0.2 0.3-0.4c0.1 0 0.1-0.1 0.1-0.1 0-0.2 0.2-0.3 0.3-0.4q0.2-0.2 0.3-0.4c0-0.1 0.1-0.2 0.2-0.2q0.1-0.2 0.3-0.3 0.1-0.2 0.2-0.3c0.1-0.1 0.2-0.2 0.4-0.2q0.2 0 0.2-0.2 0-0.2 0.1-0.3 0.2-0.1 0.3-0.3c0.1-0.2 0.3-0.3 0.5-0.4 0.1 0 0.2-0.1 0.2-0.2 0.1-0.1 0.2-0.1 0.3-0.3 0 0 0-0.1 0.1-0.1 0.2 0.1 0.3-0.1 0.4-0.2q0.2-0.2 0.4-0.3 0 0 0.1 0c0-0.2 0.2-0.2 0.3-0.2q0.2-0.2 0.4-0.3c0.2-0.1 0.3-0.3 0.5-0.3 0.3-0.2 0.6-0.2 0.8-0.5 0 0 0.1 0 0.1-0.1 0.2-0.1 0.5-0.2 0.7-0.3 0.1 0 0.2 0 0.3-0.1 0.1 0 0.1-0.1 0.3-0.1 0.1 0 0.2-0.1 0.2-0.2q0.1 0 0.1 0 0.3 0 0.5-0.2c0.1 0 0.3 0 0.4-0.1 0 0 0.1 0 0.1-0.1q0 0 0.1 0c0.2 0 0.3-0.1 0.5-0.1q0.1 0 0.2-0.1c0.1 0 0.2 0 0.2 0 0.2-0.1 0.4-0.2 0.6-0.2 0.1-0.1 0.2 0 0.3-0.1 0.1 0 0.2 0.1 0.3 0 0-0.1 0.1-0.1 0.1-0.1 0.2 0 0.4 0 0.5-0.1 0.1-0.1 0.1-0.1 0.2-0.1q0.2 0 0.4 0c0.1 0 0.3 0.1 0.4 0 0-0.1 0.1 0 0.2 0q0.5 0 1 0c0.1 0 0.2-0.1 0.3-0.1 0.1-0.2 0.3-0.2 0.5-0.1 0.3 0 0.5 0.1 0.8 0q0.1 0 0.2 0c0.2 0 0.2-0.1 0.4-0.1m0 39c-0.7 0-1.3-0.1-1.9-0.1 0-0.1 0-0.1-0.1-0.1q-0.1 0-0.1 0-0.5 0-1 0-0.3 0-0.4-0.1-0.1-0.1-0.2-0.1-0.2 0-0.4 0c-0.2 0-0.3 0-0.4-0.1-0.1 0-0.3 0-0.4 0-0.1 0-0.2 0-0.3-0.1-0.1-0.1-0.2-0.1-0.2-0.1-0.2 0-0.4 0.1-0.5-0.1q0 0 0 0-0.2 0-0.4-0.1c-0.1 0-0.2-0.1-0.3-0.1q-0.1 0-0.3-0.1c0 0-0.1 0-0.1 0 0 0-0.1 0-0.1 0-0.1-0.1-0.2-0.1-0.3-0.1-0.2-0.1-0.4-0.2-0.6-0.3q-0.3-0.1-0.6-0.2 0 0-0.1 0c0-0.1-0.1-0.1-0.1-0.2-0.2-0.1-0.5 0-0.6-0.2-0.2 0-0.3-0.1-0.4-0.2q-0.1-0.1-0.1-0.1c-0.2 0-0.3-0.2-0.5-0.2-0.1-0.1-0.2-0.2-0.4-0.2-0.2-0.1-0.3-0.3-0.5-0.3-0.1 0-0.1-0.1-0.1-0.1-0.1-0.1-0.2-0.2-0.4-0.3 0 0-0.1 0-0.1-0.1q-0.1-0.1-0.2-0.1c-0.2 0-0.3-0.2-0.4-0.3q-0.1-0.1-0.1-0.1c-0.2-0.1-0.5-0.2-0.6-0.4q0-0.1 0-0.1c-0.2-0.1-0.3-0.2-0.4-0.2q0 0 0 0-0.4-0.4-0.7-0.7-0.1-0.2-0.2-0.3c-0.2-0.1-0.3-0.3-0.5-0.4-0.1-0.1-0.2-0.2-0.3-0.3 0-0.1-0.1-0.1-0.2-0.2-0.1-0.1-0.2-0.3-0.3-0.5-0.1-0.1-0.2-0.2-0.3-0.3q-0.2-0.2-0.3-0.4c0-0.1-0.2-0.2-0.3-0.3q0 0-0.1-0.2 0-0.1-0.1-0.2 0 0-0.1-0.1c0-0.1-0.1-0.2-0.2-0.3-0.1-0.1-0.2-0.3-0.2-0.4q-0.1-0.2-0.3-0.4c0 0-0.1-0.1-0.1-0.2-0.1-0.1-0.1-0.2-0.1-0.3q0-0.1-0.1-0.1-0.1-0.1-0.1-0.3c-0.1-0.1-0.1-0.1-0.2-0.2 0-0.3-0.2-0.4-0.2-0.6 0-0.1-0.1-0.1-0.1-0.2-0.2-0.2-0.2-0.4-0.3-0.7 0 0 0-0.1-0.1-0.1q0 0-0.1-0.1 0-0.1 0-0.3c0-0.1-0.1-0.1-0.1-0.2q0-0.2-0.2-0.4 0 0 0-0.1c0.1-0.2-0.1-0.3-0.1-0.5q0-0.1 0-0.1c-0.1-0.1-0.1-0.2-0.1-0.3 0-0.1 0-0.3-0.2-0.4q0 0 0-0.1 0-0.1 0-0.2 0-0.3-0.1-0.5-0.1 0 0-0.1 0.1-0.2-0.1-0.4-0.1-0.1-0.1-0.3 0.1-0.2 0-0.4c0-0.1 0.1-0.3-0.1-0.4 0 0 0-0.1 0-0.2q0-0.3 0-0.6 0-0.2-0.1-0.4-0.1-0.1-0.1-0.2-0.1-0.1-0.1-0.1-0.3-0.2-0.6-0.2-3.5 0-7 0-0.3 0-0.5-0.2-0.2-0.1-0.4-0.1-0.6 0-1.2 0c-0.1 0-0.2 0-0.3-0.1 0 0-0.1 0-0.2 0q-0.6 0-1.2 0c0 0-0.1 0-0.1 0.1-0.1 0-0.1 0-0.2 0-0.1 0-0.3 0-0.4 0.1q-0.1 0-0.1 0c-0.1 0-0.2 0-0.3 0.1-0.1 0-0.2 0.1-0.4 0.1q-0.6 0-1.3 0c-0.2 0-0.3-0.1-0.4-0.1-0.1 0-0.2-0.1-0.1-0.2q0-0.1 0.1-0.1c0.1 0 0.1-0.1 0.1-0.2 0 0-0.1 0-0.2 0q0 0-0.1 0c-0.2 0.2-0.3 0.4-0.6 0.4-0.1 0-0.2 0.1-0.3 0.1q-0.1 0.1-0.2 0.1-1.9 0-3.9 0c-0.1 0-0.2 0-0.2-0.1q0-0.1 0-0.2c0.1-0.1 0.3-0.2 0.3-0.3q0.1 0 0.1-0.1c0-0.1 0.1-0.2 0.2-0.2q1.3 0 2.6 0 0.1 0 0.2 0c0.1 0 0.1 0 0.1 0 0.1-0.1 0.2-0.1 0.3-0.1q0.2 0 0.4 0 7.6 0 15.2 0c0.3 0 0.4-0.1 0.6-0.2q0.1-0.1 0.1-0.1c0-0.1 0-0.2 0.1-0.3q0.1-0.1 0.1-0.2c0-0.2 0.1-0.5 0-0.8-0.1-0.1 0-0.2 0.1-0.3q0-0.1 0-0.2 0.1-0.3 0-0.6 0-0.1 0.1-0.3 0.2-0.1 0.1-0.3c-0.1-0.1-0.1-0.1 0-0.2 0.1-0.1 0.1-0.3 0.1-0.4 0-0.1 0-0.2 0.1-0.3 0 0 0 0 0-0.1q0-0.2 0.1-0.4c0 0 0-0.1 0.1-0.2 0 0 0-0.1 0-0.1 0-0.2 0.1-0.3 0.1-0.5 0.1-0.2 0.2-0.4 0.2-0.6 0-0.1 0.1-0.1 0.1-0.2 0.1-0.1 0.2-0.3 0.2-0.4q0-0.1 0.1-0.1 0.1 0 0.1 0c0.2 0 0.2 0 0.1-0.1-0.1-0.2-0.1-0.5 0.1-0.6q0 0 0-0.1 0-0.2 0.2-0.3c0 0 0-0.1 0-0.2q0.1-0.1 0.2-0.3 0.1-0.2 0.2-0.5c0.1-0.1 0.1-0.2 0.2-0.3 0-0.1 0.1-0.2 0.2-0.3q0.1 0 0.1-0.1c0-0.2 0.1-0.3 0.2-0.4q0.1-0.1 0.1-0.1 0.1 0.1 0.1 0.1c0 0.1 0 0.2 0.1 0.2q0.1 0.4 0.4 0.6 0 0 0 0c0.1 0.2 0.1 0.3 0.2 0.3 0.1 0.1 0.1 0.1 0.1 0.1 0 0.3 0.2 0.5 0.2 0.7 0.2 0.1 0.1 0.3 0.2 0.5 0.1 0.2 0 0.5-0.1 0.6-0.1 0.1-0.1 0.1-0.1 0.2q-0.1 0.3-0.3 0.5c0 0.2-0.1 0.3-0.3 0.4q-0.2 0.2-0.4-0.1-0.1-0.1-0.2-0.1c-0.1 0-0.1 0-0.2 0.1-0.1 0 0 0.1 0 0.2 0.1 0.2 0.1 0.2-0.1 0.2-0.3 0-0.5 0-0.7-0.2-0.1-0.1-0.3-0.1-0.5 0.1 0 0-0.1 0-0.1 0-0.1 0.1-0.1 0.1-0.1 0.2q0 0.1 0.2 0.2 0.1 0.1 0.3 0.1c0.1 0 0.2 0.1 0.3 0.1q0.2 0.1 0.3 0.1 0.5 0 0.9 0c0.1 0 0.1 0 0.1 0.1-0.1 0.3-0.3 0.5-0.2 0.8q0 0.1 0 0.1c-0.2 0.2-0.1 0.5-0.3 0.6-0.1 0.1 0 0.2 0 0.2 0 0.2 0 0.4-0.1 0.5-0.1 0.2 0 0.3 0 0.5 0 0.1 0 0.2-0.1 0.3-0.1 0.1-0.1 0.2-0.1 0.3q0 0.5 0 0.9c0 0.1 0 0.3-0.1 0.3 0 0.1 0 0.1 0 0.2q0 0.7 0 1.4c0 0.1 0 0.1 0 0.1 0.1 0.1 0.1 0.3 0.1 0.4 0 0.3 0 0.6 0 0.8q0 0.3 0.1 0.5 0.1 0 0.1 0.1 0 0.2 0 0.4 0 0.1 0 0.3c0.1 0.1 0.1 0.2 0.1 0.3 0 0.1-0.1 0.2 0.1 0.3 0 0.1 0 0.2 0 0.3 0 0.2 0 0.3 0.1 0.4q0.1 0 0.1 0.1c-0.1 0.2 0.1 0.3 0.1 0.5 0 0.1 0 0.1 0.1 0.1q0 0.2 0.1 0.4c0.1 0.1 0.1 0.4 0.2 0.5q0.1 0 0.1 0.1 0 0.3 0.2 0.5 0 0.1 0 0.1 0 0.2 0.1 0.2 0.2 0.3 0.3 0.6c0.1 0.2 0.2 0.4 0.3 0.6q0 0 0 0.1c0.1 0.1 0.1 0.1 0.2 0.2 0.1 0.1 0.1 0.2 0.2 0.3q0 0.1 0.1 0.2 0.3 0.4 0.5 0.8 0.1 0.1 0.1 0.1c0.1 0.1 0.2 0.2 0.3 0.3q0 0.2 0.2 0.3 0.2 0.2 0.3 0.4 0.1 0.1 0.2 0.3c0.2 0.2 0.4 0.4 0.6 0.6q0.1 0.2 0.3 0.4c0.1 0.1 0.2 0.2 0.4 0.2q0.1 0 0.1 0.1c0.2 0.1 0.4 0.2 0.5 0.4q0 0.1 0.1 0.1 0.2 0.1 0.3 0.2 0.1 0.1 0.1 0.1 0.1 0.2 0.4 0.3 0.1 0 0.2 0.1c0.1 0.1 0.3 0.2 0.4 0.3 0.1 0.1 0.3 0.1 0.4 0.3 0 0 0.1 0 0.1 0q0.3 0.2 0.6 0.3c0.1 0.1 0.3 0.1 0.4 0.3 0.1 0 0.1 0 0.2 0 0.2 0.1 0.3 0.3 0.6 0.3 0 0 0 0.1 0.1 0.1q0.2 0.1 0.4 0.1 0 0 0.1 0c0 0.1 0.1 0.1 0.2 0.2 0.1 0 0.1 0 0.2 0.1 0 0 0.1 0 0.1 0q0.1 0 0.2 0c0.2 0.1 0.4 0.1 0.5 0.2 0.1 0.1 0.1 0.1 0.2 0.1q0.1 0 0.3 0c0.1 0.1 0.3 0.2 0.4 0.1q0.1 0 0.2 0.1c0.1 0.1 0.1 0.1 0.2 0.1q0.1 0 0.2 0 0.3 0 0.5 0.1c0.1 0.1 0.2 0.1 0.4 0q0 0 0.1 0c0.2 0.1 0.4 0.2 0.6 0.1q0.6 0 1.1 0c0.1 0 0.2 0 0.3 0.1 0 0.1 0 0.1 0.1 0.1 0.2-0.1 0.3 0 0.5 0.1 0.2 0.1 0.6-0.3 0.8-0.2m-55.3-17q0.1-0.1 0.2-0.1 1.9 0 3.8 0c0.2 0 0.3 0.1 0.4-0.1 0 0 0.1 0 0.2 0q1.8 0 3.6 0c0.1 0 0.3 0 0.4 0.1 0 0 0.1 0 0.2 0q1.1 0 2.2 0c0.1 0 0.2 0.1 0.3-0.1 0 0 0.1 0 0.1 0q0.8 0 1.5 0c0.1 0 0.3 0.2 0.4 0.2 0 0 0 0.1 0 0.1 0 0-0.1 0.1-0.1 0.1q-0.2-0.1-0.4 0 0 0-0.1 0c-0.1 0-0.2 0-0.3 0.1q0 0.1-0.2 0.1c0 0-0.1 0-0.1 0.1-0.1 0-0.1 0-0.2 0-0.1 0-0.2 0-0.3 0.2q0 0-0.1 0c-0.1 0-0.3 0.1-0.5 0.1q-0.2 0-0.3 0-0.3 0-0.5-0.2c0 0-0.1 0-0.1 0q0-0.1 0-0.1 0.1-0.1-0.1-0.1-0.3 0-0.7 0 0 0 0 0c-0.1 0.1-0.3 0.1-0.4 0.1q-0.2 0-0.3 0.1-0.1 0.1-0.2 0.1-0.1 0-0.3 0 0 0-0.1 0c-0.1 0-0.2-0.2-0.3-0.1-0.1 0.1-0.3 0.1-0.4 0.2q0 0 0 0-0.5 0-1.1 0-0.1 0-0.1-0.1 0-0.2-0.2-0.2-0.2 0-0.3 0-0.2 0-0.3 0.1 0 0.1-0.1 0.1-0.3 0-0.5 0c-0.1 0-0.2-0.1-0.2-0.2 0-0.1-0.1-0.1-0.2-0.1q1.5 0-1.6 0c-0.2 0-0.4 0-0.6-0.2 0 0-0.1 0-0.1 0q-0.7 0-1.3 0-0.2 0-0.4-0.1-0.1-0.1-0.2-0.1c-0.1 0.1-0.1 0.1-0.1 0zm4.3 0.4q0 0 0 0 0 0 0 0zm0 0q0 0 0 0 0 0 0 0z"/><path fill-rule="evenodd" class="b" d="m16.7 19.3c0.2 0 0.3 0 0.4 0.1 0 0.1 0.1 0 0.2 0 0 0 0.1 0.1 0.1 0.1 0 0.1 0.1 0.2 0 0.3 0 0-0.1 0-0.1 0-0.1-0.1-0.2-0.1-0.2-0.1q-0.3 0-0.5-0.1-0.1 0-0.1-0.2 0-0.1 0-0.1 0.1 0 0.2 0zm-1.3 1q-0.1 0-0.1 0c-0.1 0-0.1-0.1-0.1-0.2 0.1-0.1 0.4-0.1 0.5 0 0 0.1 0 0.2-0.1 0.2q-0.1 0-0.2 0zm14.8 0h-1.2c0.2-0.1 0.9-0.1 1.2 0z"/></g></svg>