<svg version="1.2" xmlns="http://www.w3.org/2000/svg" viewBox="0 0 26 28" width="26" height="28"><style></style><path  d="m14.3 0.4c4-0.1 7.7 3 8.1 7.2 0.5 5.5-4.7 9.9-10.1 8.5q-1.6-0.5-3-1.6c-0.3-0.2-0.5-0.2-0.8 0q-2.7 1.8-5.4 3.5c-0.6 0.4-0.6 0.4-1.1-0.2q-0.6-1-1.3-1.9c-0.2-0.3-0.1-0.5 0.2-0.7q2.8-1.8 5.6-3.6c0.3-0.2 0.4-0.4 0.3-0.7-1.4-4.2 0.8-8.8 5.3-10.2 0.7-0.2 1.5-0.4 2.2-0.3zm0.4 14.6c2.6-0.1 4.7-1.4 5.9-4.1 0.1-0.3 0.2-0.7 0.3-1.1 0.1-0.2 0.2-0.4 0-0.5-0.1-0.2-0.3 0.1-0.4 0.2q-0.3 0.2-0.5 0.5c-0.8 1-1.9 1.6-3.1 2.1-0.5 0.2-0.9 0.3-1.4 0.3q-1.2 0-2.4 0-0.6 0-1.2-0.3-0.8-0.4-1.6-0.7-0.2-0.2-0.4-0.3-0.9-0.9-1.7-1.7c-0.1 0-0.2-0.2-0.4-0.1-0.1 0 0 0.2 0 0.3 0.5 3 3.5 5.5 6.9 5.4zm-0.3-10.6q0.6 0 1.2 0 0.6 0 1.2 0.2 0.7 0.3 1.4 0.7 0.5 0.2 0.9 0.6c0.5 0.5 1.1 1 1.6 1.6 0.1 0 0.2 0.2 0.3 0.1 0.1-0.1 0-0.2 0-0.3q0-0.2-0.1-0.4-0.5-2.4-2.5-3.9c-2.8-2.1-6.9-1.6-9.2 1.1q-1.1 1.4-1.4 3.1c0 0.1 0 0.2 0 0.3 0.1 0.1 0.2 0 0.3-0.1 0.2-0.2 0.5-0.5 0.8-0.7 0.7-0.9 1.6-1.4 2.6-1.9 0.7-0.3 1.4-0.5 2.1-0.4q0.4 0 0.8 0zm3.5 4c0-1.9-1.6-3.5-3.5-3.5-1.8 0-3.4 1.5-3.5 3.3-0.1 2.2 1.8 3.7 3.4 3.7 2-0.1 3.6-1.6 3.6-3.5z"/><path fill-rule="evenodd" d="m25.2 16.7q0 1.7 0 3.4c0 1-0.8 1.7-1.8 1.5q-2.4-0.3-4.8-0.7c-0.7-0.1-0.8 0-0.8 0.7q0 2.7 0.1 5.4c0 0.5-0.1 0.6-0.6 0.6q-2.9 0-5.9 0c-0.5 0-0.5-0.1-0.5-0.6q0-2.7 0-5.3c0-0.8-0.1-0.9-0.9-0.8q-2.3 0.4-4.7 0.8c-0.9 0.1-1.7-0.6-1.8-1.5 0-1.3 0-1.3 1.1-2q0.6-0.5 1.3-0.9c0.2-0.2 0.3-0.2 0.3 0.1q0 0.4 0 0.7c0.1 0.5 0.1 0.5 0.6 0.5 0.8-0.2 1.7-0.3 2.5-0.6 1.7-0.4 3.4-0.3 5.1-0.3 0.5 0 0.9 0 1.4 0 1.4-0.1 2.7 0.1 4 0.4q1.1 0.3 2.2 0.5c0.4 0 0.5 0 0.5-0.4q0-2.3 0-4.5 0-0.3 0-0.6c0.1-0.4 0.2-0.5 0.7-0.6q0.5 0 1 0c0.9 0 1 0.1 1 1q0 1.6 0 3.2zm-8.7-8.3c0 1.2-0.9 2.1-2.1 2.1-1.2 0-2.2-1-2.2-2.1 0-1.2 1-2.1 2.2-2.1 1.2 0 2.1 0.9 2.1 2.1z"/></svg>