<svg version="1.2" xmlns="http://www.w3.org/2000/svg" viewBox="0 0 28 28" width="28" height="28"><style></style><path  d="m27.5 6.9c0-1.4-0.6-2-1.9-2q-4 0-7.9 0v-4.5h-1.6v4.5c-1.4 0-2 0.6-2 2q0 8.2 0 16.4c0 1.4 0.6 2 2.1 2q4.6 0 9.2 0c1.5 0 2.1-0.6 2.1-2.1q0-4.1 0-8.2 0-4 0-8.1zm-8 10.5c1.1 0 1.5 0 2.7 0 0.2 0 0.7 0.8 0.6 1.2h-4c-0.2-0.4 0.4-1.2 0.7-1.2zm-2.3 3.3c-0.1-0.4 0.2-1.1 0.4-1.1q0.3-0.1 0.6-0.1 2.8 0 5.6 0c0.3 0 0.6 0.4 0.8 1.2-2.6 0-5 0-7.4 0zm2.4 2c-0.3 0-1.3-0.4-1.5-1.1 1.7 0 3.7 0.1 5.4 0-0.4 0.5 0.4 1.3-3.9 1.1zm1.1-6.4c-2.2 0-4.6-1.9-4.6-4.7 0-2.8 2.5-4.8 4.8-4.7 2.6 0.1 4.7 2.1 4.6 4.8 0.1 2.6-2.4 4.7-4.8 4.6z"/><path fill-rule="evenodd" d="m18.4 12c0.2 0.4 0.2 0.8 0.1 1.1-1.4 0.4-1.7 0.2-1.5-1.1 0.4-0.1 0.9-0.1 1.4 0zm0.9-2.7c-0.3-1.4-0.1-1.7 1.1-1.5q0.2 0.7 0 1.5-0.6 0.1-1.1 0zm1.8-0.8c0-0.2 0-0.5 0.1-0.7 1.2-0.2 1.4 0.1 1.2 1.5q-0.6 0.1-1.1 0c-0.2-0.3-0.2-0.6-0.2-0.8zm3.6 3.5c0.1 1.3-0.1 1.4-1.5 1.2-0.2-0.4-0.1-0.7 0-1.2 0.5-0.1 1-0.1 1.5 0zm-4.3 2q0.3 0.7 0 1.5c-1.3 0-1.4-0.1-1.1-1.5 0.4-0.1 0.7-0.1 1.1 0z"/><path fill-rule="evenodd" d="m22.3 13.9c0.4 1.3 0.2 1.6-1.1 1.6-0.1-0.5-0.1-1 0-1.4 0.3-0.3 0.7-0.2 1.1-0.2zm-5.3-2.6c-0.2-1.2 0-1.4 1.4-1.1q0.2 0.5 0 1c-0.4 0.2-0.9 0.1-1.4 0.1zm7.7-0.1c-0.5 0.2-0.9 0.1-1.4 0.1-0.3-0.4-0.2-0.8-0.1-1.1 1.4-0.3 1.6-0.2 1.5 1z"/><path fill-rule="evenodd" d="m20.4 12c0.2 0.4 0.1 0.7 0 1.1-1.2 0.4-1.3 0.2-1.2-1 0.4-0.2 0.8-0.2 1.2-0.1zm1.9 0c0.3 0.4 0.3 0.8 0.1 1.1-0.3 0.3-0.7 0.2-1.2 0.1-0.1-0.5-0.1-0.8 0-1.1 0.4-0.2 0.7-0.2 1.1-0.1zm-3-0.7c-0.2-0.4-0.2-0.8 0-1.1 0.3-0.2 0.7-0.2 1.1-0.1 0.2 0.4 0.2 0.8 0 1.1q-0.6 0.2-1.1 0.1z"/><path fill-rule="evenodd" d="m21.2 10.2c-0.1 0.3-0.1 0.7 0 1 0.4 0.2 0.8 0.2 1.2 0.1 0.1-0.5 0.2-0.8-0.1-1.2-0.3-0.1-0.7-0.1-1.1 0.1zm-9 0.2c-0.1-0.6 0.1-1.2-0.1-1.8-0.5-0.1-1 0.1-1.4-0.1v-8.1h-2.3v8.2h-8.2v1.9h8.1c0.2 0.8 0.2 5.3 0 6.9h-8.1v2.2h8.2v8h2.3q-0.1-2-0.1-4 0-2 0-3.9c0.6-0.2 1.1 0 1.6-0.2 0-0.7 0-1.4 0-2-0.6-0.2-1.1 0.1-1.6-0.2v-2.2q0-1.2 0-2.3c0-0.8 0-1.5 0.1-2.2 0.5-0.2 1 0 1.5-0.2z"/></svg>