<svg version="1.2" xmlns="http://www.w3.org/2000/svg" viewBox="0 0 19 27" width="19" height="27"><style></style><path  d="m9.9-0.1c0 0.1 0.1 0.1 0.2 0.1 0.5 0.2 0.8 0.5 1.1 1 0.1 0.4 0 0.7-0.3 1-0.7 0.7-1.6 0.8-2.5 0.7-0.1 0-0.2 0-0.2-0.1 0-0.1 0.1-0.1 0.2-0.1q0.3-0.2 0.6-0.3 0.4-0.1 0.7-0.4c0.1-0.1 0.2-0.2 0.1-0.4-0.1-0.1-0.2-0.1-0.3-0.1-0.7 0.1-1.3 0.2-1.8 0.6-0.5 0.3-0.9 0.6-1.3 1q-1.1 1-0.9 2.4 0 0.4 0 0.9 0 0.3 0.2 0.7 0.2 0.3 0.3 0.6c0.1 0.2 0.2 0.2 0.4 0 0.5-0.6 1.3-1 2.2-1.2 0.5-0.1 1.1-0.1 1.6 0 0.7 0.1 1.4-0.1 2-0.3q0.4-0.2 0.8-0.4c0.1 0 0.2-0.1 0.3 0 0.1 0.1 0 0.2-0.1 0.3-0.6 0.8-1.5 1.3-2.5 1.4-0.9 0.1-1.8 0.3-2.6 0.5-0.3 0.1-0.5 0.4-0.7 0.6-0.1 0.1-0.1 0.3 0.1 0.4q0.9 0.5 1.9 0.6c1.1 0.2 2.3 0.3 3.5 0.6 0.7 0.1 1.4 0.2 2 0.6 1.2 0.7 2.1 1.7 2.7 3 0.3 0.5 0.4 1.1 0.5 1.6q0.1 0.5-0.1 0.9-0.1 0.5-0.2 1 0 0.6-0.2 1.1-0.1 0.4-0.1 0.8 0 0.1-0.1 0.3c-0.2 0.6-0.2 1.2-0.2 1.8 0.1 0.3 0.2 0.5 0.3 0.7 0.1 0.5 0.2 0.9 0.4 1.2 0.1 0.2 0.3 0.3 0.4 0.5 0.1 0.1 0.2 0.2 0.1 0.3-0.1 0.1-0.2 0-0.3 0-0.8-0.3-1.4-0.7-1.8-1.4q-0.4-0.5-0.5-1.2c0-0.1 0-0.2-0.1-0.2-0.1 0-0.1 0-0.2 0.1-0.4 0.4-0.7 0.9-1.1 1.3q-0.4 0.5-0.2 1.2 0.2 0.8 0.4 1.5 0.1 0.4 0.4 0.8 0 0.1 0 0.1 0.1 0.4 0.3 0.7 0.1 0.1 0.1 0.2 0 0.2-0.2 0.2-0.1-0.1-0.1-0.1c-0.5-0.5-1-0.9-1.4-1.4-0.6-0.8-1-1.7-0.9-2.8q0.1-0.8 0.7-1.4c0.4-0.4 0.8-0.9 1.3-1.4 0.4-0.4 0.7-0.9 1-1.4q0.3-0.7 0.6-1.3c0.3-0.8 0.4-1.7 0.2-2.5-0.1-0.6-0.4-1.1-0.7-1.5-0.3-0.4-0.5-0.6-0.8-0.9 0-0.1-0.1-0.1-0.2-0.1 0 0 0 0.1 0 0.2 0 1-0.6 1.7-1.4 2.3-0.5 0.5-1.2 0.8-1.9 1.2-0.6 0.3-1.3 0.5-1.9 0.9-0.6 0.4-1.2 0.8-1.7 1.3-0.3 0.3-0.5 0.6-0.7 0.9-0.1 0.1-0.2 0.2-0.3 0.1-0.2 0-0.1-0.2-0.1-0.3 0-0.3 0.1-0.6 0.2-0.8q0.4-0.9 1-1.5c0.2-0.3 0.5-0.5 0.8-0.7 0.7-0.4 1.2-0.9 1.5-1.6 0.3-0.7 0.2-1.4 0-2.2q-0.3-0.6-0.9-1-0.1 0-0.2-0.1c-0.2-0.2-0.4-0.3-0.7-0.3-0.1 0-0.2-0.1-0.2-0.1-0.2-0.1-0.3 0-0.3 0.1 0 0.5-0.2 0.8-0.3 1.2-0.1 0.4-0.4 0.7-0.7 1-1.3 0.9-2.6 1.2-4.1 0.7-0.7-0.3-1.2-0.7-1.6-1.2q-0.4-0.4-0.7-0.9-0.1-0.2-0.1-0.4 0-0.1 0.1-0.2 0.1 0 0.2 0.1c0.4 0.6 1 0.8 1.7 1.1q0.2 0.1 0.5 0.2c1 0.4 1.9 0.1 2.8-0.2 0.5-0.3 0.8-0.8 0.9-1.4 0-0.3-0.1-0.5-0.2-0.7-0.2-0.3-0.5-0.6-0.7-0.8-0.5-0.5-1-1-1.3-1.6-0.4-1.2-0.6-2.4-0.4-3.7 0.1-0.6 0.5-1.1 0.9-1.6 0.7-0.7 1.5-1.3 2.4-1.8q0.7-0.4 1.4-0.5c0.1 0 0.2 0 0.2-0.1zm1.9 14.2q0 0.3 0.2 0.2c0.5-0.3 1-0.7 1.4-1.2 0.3-0.5 0.3-0.7-0.1-1.2-0.3-0.4-0.6-0.7-1.2-0.7q-0.1 0-0.3-0.1c-0.3 0-0.3 0-0.3 0.3 0.1 0.4 0.3 0.7 0.3 1q0.1 0.9 0 1.7z"/></svg>