<svg version="1.2" xmlns="http://www.w3.org/2000/svg" viewBox="0 0 22 28" width="22" height="28"><style>.a{fill:#010202}.b{fill:#fff}</style><path class="a" d="m19.2 28.1h-16.2l-2.4-2.3v-19.9c0.9-0.9 1.5-1.4 2.4-2.3h16.2c0.9 0.9 1.5 1.4 2.4 2.3v19.9c-0.9 0.9-1.5 1.4-2.4 2.3z"/><path fill-rule="evenodd" class="b" d="m15.5 25.6h-8.7l-1.8-1.9v-4.7l1.8-1.9h8.7l1.9 1.9v4.7zm-8.4-0.9h8l1.4-1.3v-4l-1.4-1.4h-8l-1.3 1.4v4zm14.4-11.9l-1 1.1h-7.8v0.8h-3.2v-0.8h-7.8l-1.2-1.2v-1.2l1.5 1.5h7.5v-0.4h3.2v0.4h7.4l1.4-1.4v0.4z"/><path fill-rule="evenodd" class="a" d="m7.8 2.9h-4.9v-2h4.9zm11.6 0h-4.9v-2h4.9z"/></svg>