<svg version="1.2" xmlns="http://www.w3.org/2000/svg" viewBox="0 0 20 28" width="20" height="28">
	<title>Path 117</title>
	<style>
		.s0 { fill: #000000 } 
	</style>
	<path id="Path 117" class="s0" d="m17.9 10c-0.5 0.1-1.1 0.1-1.6 0.2-0.4 0.1-0.7 0.1-1.1 0.2-0.5 0.1-0.9 0.2-1.2 0.5-0.3 0.3-0.7 0.5-1 0.8-0.6 0.5-1.2 0.9-1.7 1.5-0.1 0.2-0.3 0.3-0.4 0.4-0.2 0.2-0.2 0.3 0 0.5q0.3 0.4 0.7 0.7 0.7 0.4 1.3 1.1c0.4 0.3 0.8 0.7 1.1 1.1 0.3 0.5 0.7 0.9 1 1.3q0.1 0 0.1 0.1c0.1 0.1 0.2 0.1 0.1 0.2q0 0.2-0.2 0.2-0.3 0.1-0.5 0c-0.6-0.1-1.2-0.3-1.8-0.5-0.5-0.1-1-0.2-1.5-0.2-0.3 0-0.6 0-0.9-0.1q-0.2 0-0.4 0.2-0.1 0.1-0.2 0.3c-0.2 0.3-0.5 0.7-0.7 1.1q-0.1 0.2 0 0.5c0 0.4 0.1 0.9 0.1 1.3q0 0.2 0.1 0.3 0.1 0.3-0.1 0.5c0 0.2-0.1 0.4-0.1 0.5-0.1 0.2-0.1 0.3-0.2 0.5q0 0 0 0.1 0 0.1 0 0.1c0.1 0 0.1 0 0.1-0.1q0.2-0.3 0.4-0.6 0 0 0.1-0.1c0.3-0.3 0.3-0.8 0.3-1.2q-0.1-0.6 0-1.2c0-0.4 0.2-0.7 0.5-1q0.5-0.4 1-0.3c0.2 0.1 0.4 0.1 0.6 0.1q0.7 0.1 1.5 0.3c0.4 0.2 0.8 0.3 1.2 0.4q0.1 0 0.2 0.1 0.1 0.1 0.2 0c0.4 0 0.8-0.1 1.2-0.4q0.2-0.1 0.3-0.3c0.1 0 0.2-0.1 0.3-0.1q0.2 0.2 0.2 0.4-0.1 0.2-0.1 0.4-0.4 1.3-0.9 2.5-0.2 0.4-0.4 0.8c-0.1 0.4-0.3 0.8-0.6 1.1-0.5 0.3-0.8 0.8-1.2 1.2-0.7 0.7-1.4 1.4-2.2 1.9q-0.6 0.4-1.3 0.7c-0.3 0.1-0.6 0.1-0.9-0.1-0.1-0.1-0.3-0.1-0.5-0.1-0.4-0.1-0.7-0.3-1-0.4-0.5-0.2-1-0.6-1.5-0.8q-0.7-0.4-1.3-0.8-0.1-0.1-0.3-0.2-0.4-0.2-0.6-0.7c-0.3-0.6-0.7-1.2-1-1.9-0.2-0.3-0.3-0.6-0.4-1q-0.2-0.4-0.4-0.8c-0.2-0.4-0.3-0.7-0.5-1.1-0.2-0.5-0.4-1-0.6-1.5-0.2-0.4-0.4-0.8-0.6-1.3q-0.1-0.2-0.1-0.4 0-0.1 0-0.2c0-0.4 0.2-0.5 0.4-0.7 0.3-0.2 0.5-0.3 0.7-0.5q0.3-0.3 0.7-0.4c0.4-0.2 0.8-0.5 1.2-0.8 0.6-0.4 1.1-0.7 1.6-1.1 0.4-0.4 0.9-0.6 1.3-0.9 0.4-0.4 0.8-0.7 1.2-1.2q0.2-0.2 0.4-0.3c0.3-0.2 0.6-0.5 0.9-0.7 0.4-0.4 0.9-0.7 1.4-1.1q0.4-0.4 0.8-0.8c0.5-0.4 1-0.6 1.5-0.9 0.7-0.5 1.5-0.6 2.3-0.6 0.3 0 0.6 0.1 0.8 0.2q0.5 0.1 0.9 0.2c0.4 0.1 0.8 0.3 1.2 0.5q0.6 0.3 1.1 0.7c0.3 0.1 0.3 0.2 0.2 0.4-0.1 0.4-0.2 0.8-0.4 1.1q-0.1 0.2-0.3 0.2-0.2 0-0.5 0z"/>
	<path id="Path 118" class="s0" d="m5.8 9.3c0-0.4 0-0.8 0.1-1.2q0-0.3 0.2-0.6c0.3-0.3 0.4-0.6 0.5-0.8q0.1-0.2 0.3-0.3c0.4-0.5 0.9-0.8 1.3-1.2q0.2-0.2 0.5-0.4 0.3-0.1 0.5-0.4c0.1-0.2 0-0.4 0-0.6q-0.2-0.4-0.3-0.8 0-0.3 0.3-0.4 0.3-0.1 0.5-0.3 0.1 0 0.2-0.1 0.2 0 0.3 0.2c0 0.2 0.2 0.3 0.2 0.5 0.1 0.3 0.2 0.3 0.4 0.1q0.2-0.1 0.5-0.2 0.2-0.1 0.2-0.3 0-0.5 0-1.1c0-0.2 0.1-0.2 0.3-0.3 0.2 0 0.4-0.1 0.7-0.2 0.2-0.1 0.3-0.1 0.4 0.1 0.1 0.3 0.1 0.6 0.1 0.8q0 0.4 0 0.7 0 0.3 0.2 0.3c0.2 0.1 0.4 0 0.5-0.2q0.2-0.2 0.3-0.4c0.1-0.3 0.2-0.3 0.4-0.1q0.4 0.3 0.8 0.5c0.4 0.1 0.4 0.3 0.2 0.6q-0.1 0.2-0.2 0.4-0.1 0.2 0 0.3 0.3 0.4 0.6 0.7c0.4 0.4 0.7 0.9 1.1 1.4q0.1 0.2 0 0.3c-0.1 0.1-0.2 0.1-0.3 0.1q-0.3-0.1-0.5-0.2c-0.5-0.2-0.9-0.3-1.4-0.4-0.3-0.1-0.7-0.1-1-0.1-0.6 0-1.1 0.1-1.5 0.3q-0.6 0.2-1.1 0.5-0.1 0-0.1 0c-0.4 0.1-0.7 0.4-0.9 0.7q-0.5 0.8-1 1.6c-0.2 0.4-0.5 0.7-0.9 1q-0.7 0.6-1.4 1.1-0.2 0.2-0.4 0.2-0.1 0-0.2-0.1-0.1-0.2-0.3-0.5-0.1-0.3-0.1-0.5 0-0.4 0-0.7z"/>
	<path id="Path 119" fill-rule="evenodd" class="s0" d="m0.4 14.3q0-0.4 0.1-0.8 0.1-0.7 0.3-1.5 0.1-0.3 0.2-0.5c0.1-0.3 0.4-0.5 0.6-0.6q0.2-0.2 0.4-0.4 0.2-0.1 0.2-0.3c0.2-0.4 0.3-0.8 0.3-1.2 0-0.4 0.1-0.8 0.1-1.2 0-0.2 0.2-0.4 0.3-0.5q0.6-0.7 1.2-1.3c0.3-0.4 0.3-0.8 0.2-1.2-0.1-0.4-0.2-0.7-0.4-1q-0.1-0.2 0.1-0.4 0.4-0.2 0.8-0.5 0.2-0.1 0.3 0 0.1 0.1 0.1 0.3 0.2 0.5 0.4 1.1 0.1 0.4 0.5 0.2 0.4-0.3 0.9-0.5 0.3-0.1 0.5-0.1 0.2-0.1 0.3 0.1 0.1 0.3 0.1 0.6 0.1 0.1-0.1 0.2-0.7 0.6-1.6 1-0.5 0.3-0.8 0.8-0.3 0.4-0.6 0.8 0 0.1 0 0.2c0 0.6-0.1 1.2 0 1.8q0 0.3 0.1 0.6 0.1 0.2 0.1 0.4 0 0.4 0 0.8c0 0.4-0.2 0.7-0.5 0.9q-0.3 0.3-0.6 0.6c-0.3 0.2-0.6 0.3-0.9 0.4-0.2 0.1-0.5 0.3-0.7 0.4-0.3 0.1-0.5 0.2-0.7 0.4-0.1 0.1-0.2 0.2-0.2 0.4-0.2 0.2-0.4 0.5-0.5 0.7 0 0.2-0.2 0.2-0.3 0q-0.2-0.3-0.2-0.7zm16.8 2.7c0 0.3 0 0.5 0 0.8q0 0.3-0.2 0.4c-0.4 0.2-0.5 0.2-0.8 0-0.3-0.3-0.6-0.7-0.9-1-0.3-0.3-0.5-0.7-0.9-1-0.5-0.6-1-1.2-1.6-1.8-0.2-0.1-0.4-0.3-0.5-0.5-0.1-0.2-0.1-0.3 0-0.5q0.7-0.7 1.5-1.3 0.7-0.4 1.3-0.9 0.2-0.2 0.5-0.2 0.6-0.1 1.2-0.3 0.2 0 0.4 0c0.2 0 0.2 0 0.3 0.1q0.3 0.4 0.6 0.7 0 0.1 0.1 0.2 0.1 0.2-0.1 0.3-0.3 0.1-0.6 0.3c-0.1 0-0.2 0-0.2 0.1 0 0.1 0.1 0.1 0.2 0.1q0.2 0.2 0.5 0.4c0.2 0.1 0.2 0.2 0 0.4q-0.1 0.2-0.2 0.4c-0.1 0.4-0.3 0.4-0.7 0.2q-0.1 0-0.2-0.1-0.3 0-0.2 0.2 0 0.4 0.1 0.7 0.3 0.6 0.3 1.2 0 0.5 0.1 0.9 0 0.1 0 0.2z"/>
</svg>