<svg version="1.2" xmlns="http://www.w3.org/2000/svg" viewBox="0 0 28 28" width="28" height="28"><style>.a{fill:#fff}</style><path  d="m2 27.1c-0.4 0-0.7-0.3-0.7-0.6v-18.4c0-0.4 0.3-0.7 0.7-0.7h18.4c0.3 0 0.6 0.3 0.6 0.7v18.4c0 0.3-0.3 0.6-0.6 0.6z"/><path class="a" d="m20.4 6.8h-18.4c-0.7 0-1.3 0.6-1.3 1.3v18.4c0 0.7 0.6 1.3 1.3 1.3h18.4c0.7 0 1.2-0.6 1.2-1.3v-18.4c0-0.7-0.5-1.3-1.2-1.3zm0 19.7h-18.4v-18.4h18.4z"/><path  d="m2 7.6c-0.3 0-0.5-0.1-0.6-0.3-0.1-0.3-0.1-0.6 0.1-0.7l5.2-5.2q0.2-0.2 0.5-0.2h18.6c0.2 0 0.5 0.1 0.6 0.4 0.1 0.2 0 0.5-0.2 0.7l-5.2 5.2q-0.1 0.1-0.4 0.1z"/><path class="a" d="m25.8 0.6h-18.6c-0.3 0-0.7 0.1-0.9 0.3l-5.2 5.2c-0.4 0.4-0.5 0.9-0.3 1.4 0.2 0.5 0.6 0.8 1.2 0.8h18.6c0.3 0 0.7-0.1 0.9-0.4l5.2-5.2c0.2-0.2 0.4-0.5 0.4-0.9 0-0.7-0.6-1.2-1.3-1.2zm0 2.5zm0-1.3l-5.2 5.2h-18.6l5.2-5.2zm0 0"/><path  d="m21.3 26.8q-0.1 0-0.2 0c-0.2-0.1-0.4-0.4-0.4-0.6v-18.4q0-0.3 0.2-0.5l5.2-5.2q0.2-0.2 0.4-0.2 0.2 0 0.3 0.1c0.2 0.1 0.4 0.3 0.4 0.6v18.4q0 0.2-0.2 0.4l-5.2 5.2q-0.2 0.2-0.5 0.2z"/><path fill-rule="evenodd" class="a" d="m27 1.4c0.5 0.2 0.8 0.7 0.8 1.2v18.4c0 0.3-0.1 0.6-0.4 0.9l-5.2 5.2c-0.2 0.2-0.5 0.3-0.9 0.3q-0.2 0-0.5-0.1c-0.4-0.1-0.7-0.6-0.7-1.1v-18.4c0-0.3 0.1-0.7 0.3-0.9l5.2-5.2c0.3-0.3 0.6-0.4 0.9-0.4q0.3 0 0.5 0.1zm-5.7 6.4v18.4l5.2-5.2v-18.4zm-9.1 15.7c0 0.3-0.1 0.6 0.2 0.9 0.1 0.1-0.2 0.7-0.3 0.8-0.1 0-0.2-0.1-0.2-0.1-0.2-0.2-0.2-0.2-0.3 0-0.2 0.2-0.5 0.3-0.8 0.2-0.1 0-0.2-0.1-0.2-0.3 0.1-0.4-0.1-0.8-0.1-1.2-0.2 0-0.2 0.1-0.2 0.2q-0.1 0.5-0.2 0.9c0 0.1 0 0.1-0.1 0.1-0.1 0-0.1-0.1-0.1-0.1 0-1 0-2.1 0.3-3.1 0.1-0.2 0-0.5 0-0.7-0.1-0.7-0.3-1.3-0.2-2 0-0.7-0.1-1.3-0.1-2 0-0.2 0.1-0.3 0.2-0.4 0.4-0.4 0.5-0.9 0.5-1.3 0.1-0.9-0.1-1.7-0.2-2.5-0.1-0.7 0-1.3 0-2q0.5 0.2 0.4-0.2c0-0.1 0-0.1 0-0.2-0.3 0-0.4-0.2-0.5-0.4q0 0 0-0.1-0.1-0.2-0.2-0.4 0.2 0 0.4 0h1.8c0.1 0.2 0.1 0.5 0 0.8-0.1 0.4 0 0.8-0.1 1.1 0 0.2 0 0.3-0.2 0.2-0.1 0-0.2 0-0.2 0.1-0.1 0.2 0.1 0.2 0.1 0.2 0.1 0.1 0.2 0.1 0.2 0.3 0.1 0.4 0.2 0.9 0.2 1.4q0 0.3 0 0.5 0 1 0.1 1.9c0 0.6-0.1 1.2-0.2 1.8q-0.1 0.5 0.1 1 0.1 0.3 0.1 0.6c0 0.8 0 1.7 0 2.6-0.1 0.5-0.1 1-0.2 1.4zm-0.7-6.8c0 0.2 0.1 0.2 0.2 0.2q0.1 0 0.1-0.1 0-0.2-0.2-0.2c-0.1 0-0.1 0.1-0.1 0.1zm0.3 1c-0.1-0.1 0.1-0.3-0.2-0.3-0.1-0.1-0.1 0.1-0.1 0.2q0 0.2 0.2 0.3c0.1 0 0.1-0.1 0.1-0.2z"/></svg>