<svg version="1.2" xmlns="http://www.w3.org/2000/svg" viewBox="0 0 4 31" width="4" height="31"><style></style><path  d="m0.9 0.2h1.8v1.9c0 0.2 0 0.4 0.1 0.7q0 0.1-0.1 0.2c-0.9 0.6-0.8 1.5-0.6 2.4 0.1 0.2 0.2 0.4 0.3 0.6 0.5 0.4 0.4 1 0.6 1.5 0 0.2-0.1 0.4-0.2 0.6-0.1 0.1-0.1 0.2-0.1 0.4 0.1-0.1 0.3-0.2 0.3-0.1 0.1 0.2 0.1 0.5 0 0.7 0 0.1-0.2 0-0.3 0-0.1 0.7 0.2 1.4 0.2 2.1 0.1 0.5 0.2 1 0 1.6-0.1 0.4 0 0.9-0.1 1.3 0 0.2 0 0.3-0.2 0.3-0.1-0.1-0.3 0-0.3 0.1-0.1 0.1 0.1 0.1 0.2 0.2 0.1 0.1 0.2 0.2 0.2 0.3 0.1 0.6 0.3 1.2 0.3 1.8q0 0.3 0 0.6 0 1.2 0 2.3c0.1 0.8 0 1.5-0.2 2.2 0 0.4 0 0.8 0.2 1.2q0.1 0.4 0 0.7c0 1.1 0.1 2.2 0 3.2 0 0.6-0.1 1.2-0.1 1.8 0 0.3-0.2 0.7 0.1 1 0.2 0.1-0.1 0.9-0.3 1-0.2 0.1-0.2-0.1-0.3-0.2-0.1-0.1-0.2-0.1-0.4 0-0.2 0.3-0.5 0.5-0.8 0.4-0.2-0.1-0.3-0.2-0.3-0.4 0-0.5-0.2-1-0.2-1.5-0.2 0-0.2 0.2-0.2 0.3q-0.1 0.5-0.2 1c-0.1 0.1-0.1 0.2-0.2 0.2 0 0 0-0.1 0-0.2-0.1-1.2-0.1-2.5 0.3-3.7 0.1-0.3 0-0.6 0-0.9-0.2-0.8-0.4-1.6-0.3-2.5 0-0.8-0.1-1.5 0-2.3 0-0.3 0-0.5 0.2-0.6 0.4-0.4 0.5-1 0.6-1.6 0-1-0.1-2-0.3-3-0.1-0.8 0-1.6 0-2.4 0.5 0.1 0.6 0 0.6-0.4 0 0 0-0.1-0.1-0.1-0.3-0.1-0.5-0.2-0.6-0.5q0-0.1 0-0.1c-0.4-0.6-0.2-1.2-0.2-1.8 0-0.6-0.2-1.2-0.2-1.7 0-1.5 0-2.9 0-4.3 0-0.4 0-0.8 0-1.1-0.1-0.8 0.2-1.5 0.3-2.2 0-0.1 0-0.2 0.1-0.1 0.2 0.1 0.3 0 0.4-0.1 0-0.2-0.2-0.1-0.2-0.2-0.1-0.2 0-0.3 0.1-0.5m1.6 21.4c-0.2-0.1 0-0.4-0.3-0.5-0.1 0-0.2 0.2-0.2 0.3q0.1 0.3 0.3 0.4c0.2 0 0.1-0.1 0.2-0.2zm-0.3-1.4c-0.1 0-0.2 0.1-0.2 0.2 0 0.1 0.2 0.2 0.3 0.2q0.2 0 0.1-0.1 0-0.2-0.2-0.3z"/></svg>