<svg version="1.2" xmlns="http://www.w3.org/2000/svg" viewBox="0 0 28 28" width="28" height="28"><style>.a{fill:#fff}</style><path  d="m2.3 0l-1.7 1.7v23.8l1.7 1.7h23.8l1.7-1.7v-23.8l-1.7-1.7z"/><path fill-rule="evenodd" class="a" d="m21.2 17.8c0 0-0.1 0.1-0.1 0.1q0 0.1 0 0.1-0.2 0.5-0.3 1c0 0 0.3 0.7 0.3 0.7 0 0-0.2-0.7-0.2-0.7q0.1-0.4 0.2-0.7 0.1-0.2 0.2-0.4 0 0-0.1-0.1zm-11.1 3.6c0.1 0 0.3 0.1 0.5 0.1q0.3 0 0.5 0.3 0 0.1 0.2 0 0.1-0.1 0.3 0 0.5 0.2 0.9 0.3c0.3 0.1 0.6 0.1 0.8 0.1q-0.8-0.2-1.5-0.4c-0.4-0.1-0.8-0.2-1.2-0.5-0.1-0.1-0.3-0.2-0.4-0.3-0.1 0-0.2 0-0.1-0.1 0-0.1 0-0.1-0.1-0.1q-0.4-0.3-0.8-0.7c-0.1 0-0.2-0.1-0.3-0.1q-0.1 0-0.2 0c0 0.1-0.1 0.1-0.3 0.3-0.1 0.1-0.1 0.1-0.1 0.1 0 0.1 0.2 0 0.4 0.1 0.3 0 0.3 0.3 0.7 0.4 0.2 0.1 0.3 0.2 0.5 0.2q0.1 0 0.1 0.1 0 0 0 0.1 0 0 0.1 0.1z"/><path fill-rule="evenodd" class="a" d="m8 20.8c0.4 0.1 0.5 0.2 0.6 0.4 0 0.1 0 0.2 0.1 0.2 0.1 0.1 0.2 0.1 0.3 0.2 0.1 0 0.1 0.1 0.2 0q0 0 0 0 0.1 0 0.1-0.1c0-0.1-0.1-0.1-0.1-0.1-0.2-0.2-0.2-0.3-0.5-0.5-0.3-0.1-0.6-0.1-0.7-0.1zm2.4-4.3c0 0.2-0.1 0.3-0.1 0.3-0.1 0.1-0.1 0.2-0.1 0.2 0 0 0.2-0.1 0.3-0.4q0.1 0 0.1-0.1 0-0.3 0.2-0.6c-0.1 0-0.2 0-0.2-0.1 0-0.1-0.1-0.2-0.1-0.3 0.1-0.2 0.1-0.2-0.1-0.2q-0.1 0-0.1 0c-0.1-0.1-0.1 0 0 0.8 0.1 0.3 0.1 0.3 0.1 0.4zm2-2.5q0 0 0-0.1-0.1 0-0.1 0-0.1 0.1-0.1 0.1c-0.4 0.2-0.6 0.5-0.7 0.9 0 0.1 0 0.1-0.1 0.2q-0.1 0-0.1 0.2c0.1 0.2 0 0.4 0 0.6q0 0.2 0.1 0.5c0.1 0.3 0.2 0.5 0.3 0.8 0 0 0 0 0 0.1 0 0 0 0-0.1-0.1q0 0 0 0 0 0.1 0 0.1c0.1 0.1 0.1 0.3 0.3 0.3q0.1 0 0.2 0.1 0 0.1 0 0.1 0.5 0.5 1.1 0.6c0 0.1 0.1 0.1 0.2 0 0-0.2 0-0.2 0.2-0.1q0.1 0 0.2 0c0 0 0.1 0 0.1-0.1-0.1-0.1 0-0.1 0.1-0.1q0.3 0.1 0.7-0.1 0.2 0 0.4-0.1c0.1 0 0.2-0.1 0.2 0q0 0.1 0.1 0.1c0.3-0.1 0.6-0.2 0.8-0.4 0.3-0.4 0.5-0.8 0.7-1.2q0.1-0.2 0.1-0.3-0.1-0.4-0.1-0.8-0.1-0.7-0.6-1.2c-0.2-0.1-0.4-0.2-0.5-0.5-0.1-0.2-0.3-0.3-0.5-0.3-0.3-0.1-0.5-0.1-0.8-0.3q-0.1 0-0.3 0 0 0.1 0 0.1c0 0.1 0.1 0.1 0 0.2q-0.1 0-0.2-0.1c0-0.1 0-0.1 0-0.2q-0.2 0-0.4 0.1-0.3 0.2-0.7 0.2-0.2 0.1-0.3 0.2c0.3 0 0.5 0.1 0.8-0.1q0.1 0 0.2 0c0 0 0.1 0 0.1 0.1 0 0-0.1 0-0.1 0q-0.8 0.3-1.4 0.9c0 0 0 0.1-0.1 0.1 0-0.1 0-0.1 0.1-0.2q0.1-0.1 0.2-0.3zm0.2 1.5q0-0.5 0.4-0.8c0.2-0.1 0.3-0.2 0.4-0.3q0.1-0.1 0.3-0.2c0 0 0.1 0 0.1 0.1 0 0 0 0-0.1 0 0 0.1-0.1 0.1 0 0.1 0 0.1 0 0.1 0.1 0.1q0.2 0 0.4 0c0.4-0.1 0.7 0.1 1 0.3 0 0 0.1 0.1 0.1 0.1q0 0.2 0.1 0.4 0.2 0.5-0.1 1c0 0.1 0 0.2 0 0.3 0 0 0 0 0 0.1-0.4 0.5-0.9 0.6-1.5 0.5q-0.1 0-0.2-0.1-0.1 0-0.1-0.1-0.1-0.1-0.1-0.1c-0.7-0.3-0.8-0.8-0.8-1.4z"/><path fill-rule="evenodd" class="a" d="m13.6 21.4q-1.2 0-2.2-0.6c-0.9-0.6-1.2-1-1.2-1-0.1-0.1-0.2-0.2-0.4-0.2-0.1 0-0.2 0-0.2 0-0.1-0.1 0.1-0.2 0.3-0.3 0.1 0 0.1 0 0.2 0 0.4-0.1 0.8-0.5 1-0.7q0 0 0.1 0 0 0 0.1 0.1c0.5 0.4 1 0.8 1.7 1q0.1 0 0.2 0 0.2-0.1 0.4 0 0.1 0 0.1 0c0.2 0.2 0.4 0.1 0.7 0.1 0.2-0.1 0.4-0.1 0.7-0.2q-0.1 0-0.2-0.1c0 0 0 0 0 0q0-0.1 0-0.1c0.3-0.1 0.6-0.3 0.8-0.4 0.2-0.1 0.4-0.1 0.6-0.2q0-0.1 0.1 0c0.1 0.1 0.2 0.2 0.4 0.3q0.1 0 0.2 0.1c0 0 0.1 0 0.1 0.1q-0.1 0-0.1 0c0.1 0.1 0.1 0 0.1 0 0.1 0 0.5 0 0.7 0.1 0.2 0.1 0.3 0.2 0.3 0.2-0.1 0-0.2-0.1-0.3 0 0 0 0 0-0.1 0q-0.1 0.1-0.2 0.1c-0.5 0.3-0.6 0.3-0.6 0.4-0.1 0.1-0.2 0.3-0.3 0.4q0 0-0.1 0 0 0-0.1 0-0.1-0.1-0.1 0c-0.4 0.5-0.9 0.7-1.5 0.8q-0.6 0.1-1.2 0.1zm-8-6.3q0-0.4 0.1-0.9 0.1-0.2 0.1-0.3-0.1-0.3 0.1-0.4 0.1 0 0.1-0.2c0.1-0.6 0.4-1.1 0.6-1.7q0-0.1 0.1-0.1c0.2 0.1 0.3 0.1 0.3 0.2q0 0.1-0.1 0.2-0.1 0.2-0.2 0.4 0 0.2-0.2 0.4-0.2 0.1-0.2 0.3 0 0.3 0 0.6c0 0.1 0 0.2-0.1 0.2q-0.1 0.1-0.1 0.2c-0.1 0.4-0.2 0.9-0.3 1.3q-0.1 0.5 0 1c0 0.2 0.1 0.3 0 0.4-0.1 0.1 0 0.3 0.1 0.4q0 0 0.1 0.1c0 0.1-0.1 0.1-0.1 0.2 0 0-0.1-0.1-0.1-0.1q-0.5-0.6-0.5-1.3c0-0.1 0-0.1-0.1-0.2q-0.5-0.1-1-0.3 0 0-0.1 0 0.4-0.3 0.9-0.2 0.2 0 0.4 0c0.1 0.1 0.2 0 0.2-0.2zm15.9 2.2c0-0.3-0.1-0.6 0.1-0.9q0.1-0.2 0-0.4 0-0.3 0.2-0.3 0.2 0 0.1 0.2 0 0.6-0.1 1.1c0 0.1-0.1 0.2-0.2 0.2q0 0-0.1 0.1 0 0 0 0z"/><path fill-rule="evenodd" class="a" d="m12.2 10.8c0 0 0 0.1 0 0.2q0 0.1-0.1 0.1c-0.2 0-0.3 0-0.4 0.1q-0.2 0.1-0.3 0.3c-0.2 0.2-0.4 0.2-0.5 0.4-0.2 0.1-0.3 0.2-0.3 0.4 0 0.1-0.1 0.2-0.1 0.3q-0.3 0.5-0.7 0.9-0.1 0.2-0.1 0.4 0 0.2-0.2 0.4 0 0 0 0.1c-0.1 0.3-0.2 0.6-0.1 1 0 0 0 0.1 0.1 0 0.1 0 0.1 0.1 0.1 0.2 0.1 0.1 0.1 0.3 0 0.4q-0.1 0.3 0 0.5 0 0.1 0 0.2 0 0.1 0 0.2c-0.1 0.1-0.1 0.2-0.2 0.4-0.1 0.1-0.3 0.2-0.4 0.2 0-0.1 0.2-0.2 0.2-0.3 0 0 0-0.1-0.1-0.3-0.1-0.1-0.3-0.3-0.4-0.4q-0.1-0.1-0.2-0.1-0.1 0-0.2-0.1c0-0.1 0-0.1 0.1-0.2q0 0 0-0.1 0 0-0.1 0c-0.3-0.2-0.2-0.5-0.2-0.8q0.1-0.3 0.2-0.6c0.2-0.4 0.3-0.8 0.5-1.2q0-0.1 0.1-0.1 0-0.1 0-0.1c0-0.2 0.1-0.3 0.1-0.4q0-0.1 0-0.1c0.2-0.3 0.4-0.6 0.7-0.8q0.1 0 0.2 0 0.1 0 0.2-0.1c0.1-0.2 0.3-0.4 0.4-0.6q0-0.1 0 0 0.1 0 0.1 0.1c0.1 0 0.2 0 0.3 0 0-0.1 0-0.1 0-0.2q-0.2-0.1 0-0.2c0.3-0.1 0.3-0.1 0.3-0.3q0-0.1 0-0.3 0.3 0.2 0.4-0.1c0-0.1 0-0.3 0.1-0.4 0.1-0.1 0.1-0.2 0.1-0.2 0-0.2 0-0.4 0.2-0.7q-0.1 0.3-0.1 0.5c0 0.2 0 0.3 0 0.5 0 0.2 0 0.1 0 0.3q0 0.1 0.1 0.1c0 0 0 0 0.1 0 0.1-0.1 0.1-0.4 0.1-0.4 0.1-0.1 0.3 0.2 0.2 0.4 0 0.2-0.3 0.3-0.2 0.5zm-4 11.8q0-0.1-0.1-0.2-0.2-0.1-0.4-0.3-0.1-0.1-0.2 0-0.6 0.3-1.2 0.6-0.1 0-0.1 0c-0.1 0.1-0.2 0.1-0.2 0 0-0.1 0-0.2-0.1-0.3 0-0.1-0.1-0.1-0.2-0.1q-0.4 0.4-0.9 0.6-0.2 0.1-0.3 0.2c-0.2 0.2-0.3 0.2-0.5 0.2q-0.1 0-0.2 0c-0.4 0.3-0.8 0.4-1.2 0.5q-0.2 0.1-0.3 0.1 0 0 0 0 0.4-0.3 0.9-0.5 1.2-0.8 2.4-1.5 0.3-0.1 0.5-0.3c0.2-0.1 0.4-0.1 0.6-0.2q0.3-0.1 0.6-0.2 0.2 0 0.2 0.1 0.2 0.2 0.4 0.4c0.1 0 0.1 0.1 0 0.2 0 0 0.1 0.1 0.1 0.1q0.4 0.5 0.9 0.7 0.1 0.1 0.2 0.2c0.1 0.1 0.2 0.2 0.3 0.2q0.2 0 0.3 0c0 0 0.1 0.1 0.1 0.1 0 0.1-0.1 0.1-0.1 0.1q-0.6 0-1.1-0.3-0.1 0-0.3-0.1c-0.1-0.1-0.1-0.2-0.1-0.3z"/><path fill-rule="evenodd" class="a" d="m10.6 13.8c-0.1 0.2-0.3 0.4-0.4 0.6-0.1 0.2-0.1 0.4-0.1 0.6q0 0.1 0.1 0.1 0 0 0 0 0.1-0.1 0.1-0.3c0.1-0.3 0.3-0.6 0.3-1zm10.1-2.8c0 0.1 0.1 0.1 0.2 0.2q0.2 0.1 0.3 0.2 0-0.1 0-0.1c-0.5-0.6-1-1.2-1.7-1.6q0-0.1 0-0.1c-0.2 0.1-0.2 0-0.3-0.1q-1.1-0.9-2.5-1.2-0.2 0-0.2-0.1-0.3-0.4-0.6-0.9 0 0-0.1-0.1 0-0.5-0.1-0.9-0.3-1.2-0.5-2.4c-0.1-0.9-0.4-1.7-0.7-2.5 0-0.1 0-0.1 0-0.1q-0.1 0.2-0.1 0.4 0.2 0.6 0.2 1.3 0 0.2 0 0.4 0.1 0.2 0.1 0.4 0 0.6 0 1.1 0.1 0.7 0.1 1.4c0 0.4 0 0.8 0.2 1.1 0 0.2 0.1 0.4-0.1 0.5-0.1 0.1-0.1 0.3-0.1 0.4 0.1 0.4 0.2 0.5 0.6 0.5q0.2 0 0.4 0.1c0.3 0.1 0.6 0.2 0.9 0.1q0 0 0-0.1 0.1 0 0.2 0.1 0.2 0.2 0.5 0.3 0.3 0.1 0.6 0.2c0 0 0.1 0 0.1 0.1 0 0.1-0.1 0-0.2 0q-0.4 0-0.8-0.1c-0.2-0.1-0.7-0.2-1.7-0.3 0.4 0.3 0.7 0.4 0.9 0.5 0.1 0 0.9 0.1 1 0.2 0.1 0 0.1 0.1 0.1 0.1 0.1 0.1 0.1 0.1 0.2 0.2q0.2 0 0.4 0.1c0.2 0.1 0.2 0.3 0.1 0.5-0.1 0.1 0 0.1 0 0.1q0.2 0.1 0.4 0.2 0.1 0.1 0 0.2 0 0.1-0.1 0.1c-0.1 0-0.1 0-0.2 0.1q0.1 0.1 0.2 0.2c0.5 0.5 0.9 1.1 1.2 1.7q0.1 0.1 0.2 0.1 0.2 0 0.3 0.2 0.1 0.1 0.2 0.3c0.1 0.4 0 0.7-0.2 1q0 0.1 0.1 0.2c0.1 0.1 0.1 0.2 0.1 0.4q0.1 0.5 0 1.1 0 0.4-0.1 0.9c0 0.1 0 0.2-0.1 0.2-0.1 0-0.1 0-0.1 0q-0.1 0.2-0.1 0.4c0 0.3 0 0.4 0.3 0.5 0 0 0.6 0.9 0.6 0.9 0.1 0.1-0.5-0.9-0.4-1q0-0.2 0-0.4c0.1-0.5 0.3-1 0.4-1.5 0-0.1 0.1-0.1 0.2-0.1q0.1 0.1 0.1-0.1 0.2-0.6 0.1-1.3 0-0.1 0-0.2-0.1-0.1-0.2 0c0 0 0 0.1-0.1 0.1-0.1 0-0.1-0.1-0.1-0.2q0-0.1 0-0.1 0.1-0.3-0.1-0.4-0.1-0.1-0.1-0.3 0-0.1 0-0.3 0.1-0.3-0.1-0.6-0.2-0.2-0.3-0.5 0-0.1-0.1-0.2c-0.1-0.1-0.2-0.1-0.3 0q-0.1 0.2-0.2 0.1c-0.1-0.1-0.1-0.2-0.1-0.3 0.1-0.2 0-0.3-0.1-0.5q-0.1-0.1-0.2-0.3c-0.1 0-0.1 0-0.1-0.1 0.1 0 0.1 0 0.2 0.1q0.2 0.2 0.5 0.4 0.3 0.2 0.6 0.4 0-0.2-0.2-0.2 0-0.1-0.1-0.1c-0.3-0.3-0.6-0.6-0.9-0.9q-0.1-0.1 0-0.2c0 0 0.1 0 0.1 0q0.2 0.1 0.3 0.3 0.2 0.2 0.5 0.5c0 0 0.1 0.1 0.1 0q0.1 0 0.1-0.1 0-0.1-0.1-0.1-0.3-0.5-0.8-0.8-0.4-0.2-0.6-0.6c0-0.1-0.1-0.1 0-0.2q0 0 0.1 0 0.4 0.1 0.6 0.4 0.5 0.6 1 1.2 0.4 0.6 0.5 1.2c0.1 0.3 0.1 0.5 0.2 0.7 0.2 0.2 0.3 0.4 0.3 0.6q0 0 0.1 0.1 0 0.1 0.1 0c0 0 0 0 0-0.1 0-0.2 0.1-0.5 0-0.7q-0.1-0.3-0.3-0.5 0-0.1 0-0.1 0.1 0 0.1 0 0.1 0 0.1 0.1 0.2 0.4 0.3 0.8c0 0 0 0.1 0.1 0.1q0.1-0.1 0.1 0 0.1 0 0.1 0 0.2 0 0.3 0.2 0.2 0.4 0.3 0.8c0.1 0.1 0.1 0.2 0.1 0.3 0.1 0 0.2-0.1 0.3-0.2 0.4-0.3 0.9-0.5 1.4-0.7 0.1 0 0.1-0.1 0.2-0.1-0.3-0.2-0.7-0.2-1-0.1q-1 0.3-1.4-0.4c-0.1-0.1-0.1-0.2 0-0.3q0-0.1 0-0.2-0.5-0.6-0.9-1.3c-0.1-0.1-0.1-0.1-0.2 0-0.2 0.1-0.4 0.1-0.5-0.2q-0.3-0.5-0.7-1c0 0 0 0 0-0.1 0.2 0.1 0.4 0.2 0.5 0.3q0.1 0.1 0.1 0.1 0 0 0 0.1-0.1 0 0 0.1z"/><path fill-rule="evenodd" class="a" d="m15.1 11.8c0.1-0.1 0-0.1 0-0.2q0-0.1 0-0.2c-0.1-0.2-0.1-0.3-0.4-0.2-0.1 0-0.2-0.1-0.3-0.2 0.1 0 0.2 0 0.3 0 0 0 0.1 0.1 0.1 0q0 0 0 0c0-0.1-0.1-0.1-0.1-0.1-0.1-0.1-0.1-0.1-0.2-0.2-0.1 0-0.3-0.1-0.5-0.5 0.1 0.1 0.4 0.4 0.6 0.4 0.1 0 0.2 0.1 0.2 0 0.1 0 0.1 0 0.1-0.1 0.1-0.2 0.2-0.2 0.4-0.1 0.4 0.1 0.7 0.2 1.1 0.1q0.1 0 0.1 0.1c0.1 0.2 0.3 0.3 0.4 0.3q0.1 0 0.1 0 0.4 0.2 0.7 0.6 0.3 0.2 0.5 0.5 0.1 0.2 0.2 0.3c0.5 0.3 0.7 0.7 0.9 1.1q0.2 0.7 0.1 1.3 0 0.2-0.1 0.5 0 0.1 0 0.3 0 0.1-0.1 0.2c-0.1 0.3-0.1 0.5 0.1 0.7q0.1 0.2 0.2 0.2 0.2 0.1 0.1 0.2 0 0.1-0.1 0.1c0 0.1-0.1 0.2 0 0.3 0.1 0.1 0.1 0.2 0 0.4-0.1 0.2-0.1 0.2-0.1 0.4-0.1 0.3 0.2 0.6 0.1 0.6 0 0-0.4-0.2-0.4-0.5 0-0.1 0-0.1 0-0.2-0.1-0.2-0.3-0.2-0.3-0.4-0.2-0.3-0.1-0.6-0.1-0.9q0-0.3 0-0.6c0-0.3 0-0.6 0-0.6 0.1-0.9-0.5-2.1-0.5-2.1 0 0 0.5 1.7 0.3 1.7 0 0-0.1 0-0.1 0q-0.1 0-0.1 0.1 0 0 0 0-0.1 0.6-0.1 1.1c0 0.1 0 0.3 0 0.4 0.1 0.1 0 0.2 0 0.4 0 0 0 0.1 0 0.2 0 0.1 0 0.2 0 0.2 0 0.1 0.1 0.2 0.1 0.2-0.1 0-0.2-0.1-0.3-0.2 0-0.1 0-0.1 0-0.1-0.1-0.2-0.3-0.3-0.5-0.4q0 0 0-0.1 0 0 0-0.1 0.1-0.1 0.1-0.2c0.1-0.1 0.1-0.3 0.1-0.4q-0.1-0.1 0-0.1 0.3-0.1 0.3-0.4c0-0.5 0-1-0.2-1.4 0-0.2-0.2-0.4-0.3-0.6q-0.3-0.5-0.9-0.9-0.3-0.2-0.6-0.4-0.2-0.1-0.3 0.1-0.1 0.1-0.2 0-0.1-0.1-0.2-0.2c-0.1-0.2-0.3-0.2-0.4-0.1q-0.2 0.1-0.4 0.1c-0.4 0-0.8 0-1.1 0.1q-0.1 0.1-0.3 0.1c-0.5 0-0.8 0.2-1.2 0.4q-0.2 0.2-0.4 0.3-0.2 0.1-0.3 0.2-0.1 0.1-0.1 0.1c-0.1 0-0.1 0.1-0.2 0 0 0 0-0.1 0.1-0.1 0.1-0.2 0.2-0.4 0.1-0.6q0-0.1 0.1-0.1 0 0.1 0 0.1 0.2-0.1 0.3-0.3 0.4-0.4 0.7-0.8c0 0.1 0 0.2 0 0.4-0.1 0.2-0.2 0.3-0.2 0.3 0 0 0.1 0 0.2-0.1 0.6-0.2 0.8-0.1 0.9-0.3 0.2-0.2 0.1-0.5 0.2-0.5 0 0 0.1 0.2 0.1 0.3 0 0 0 0 0 0.1q0 0 0 0 0 0 0 0 0.5 0 0.9 0.1 0.1 0 0.1 0c0.2-0.1 0.3-0.1 0.5-0.1 0 0.1 0.1 0.1 0.2 0zm-2.7 13.3q-0.4 0-0.7-0.1c0.4 0.1 0.9 0 1.3-0.1q0.2 0 0.4 0c1.2 0.1 2.3-0.2 3.4-0.7q0.1 0 0.1-0.1c0.1-0.1 0.2-0.1 0.3-0.2 0.5-0.2 1.1-0.3 1.7-0.3 0.1 0 0.2 0 0.2 0.1 0.2 0.4 0.4 0.7 0.5 1q0.2 0.3 0.2 0.7 0 0.2-0.2 0.1-0.2 0-0.3-0.2-0.2-0.3-0.5-0.5-0.8-0.6-1.7-0.4c-0.5 0.1-0.9 0.3-1.3 0.4q-1.7 0.6-3.4 0.3zm-3.3-1c0.3 0 0.5 0 0.7 0-0.3 0.2-0.4 0.2-0.7 0z"/><path class="a" d="m11.3 23.1q0.1 0.1 0.1 0.1c0 0.1 0.1 0.1 0.2 0.1q0.1 0 0.2 0.1c0 0.1 0.1 0.1 0.3 0.2q0.2 0 0.3 0c0.2 0 0.3 0 0.5 0q0.2-0.1 0-0.3c0-0.1-0.2-0.1-0.3-0.2-0.3-0.1-0.7-0.1-1-0.3-0.4-0.1-0.6-0.3-1-0.5-0.3-0.1-0.6-0.3-0.9-0.6q0 0-0.1-0.1-0.1 0-0.1 0.1-0.1 0 0 0.1 0 0.1 0 0.1c0.2 0.1 0.3 0.3 0.2 0.6q-0.1 0.1 0.1 0.1 0.4 0.2 0.9 0.4c0.2 0.1 0.4 0.2 0.6 0.1z"/><path fill-rule="evenodd" class="a" d="m2.7 22.2c0 0-0.1 0-0.1 0.1q0.1 0 0.1 0 0.9-0.4 1.9-0.9 0 0 0-0.1-0.1-0.1 0-0.2 0.1 0 0.3-0.1 0.3 0 0.6-0.1 0 0 0.1-0.1c0-0.2 0.3-0.2 0.4-0.3q0.1 0 0.1 0c0.2 0 0.3 0 0.4-0.1 0.2-0.1 0.3-0.2 0.5-0.3 0.1-0.1 0.2-0.1 0.4-0.2 0.3-0.2 0.5-0.3 0.8-0.5 0.3-0.1 0.6-0.2 0.9-0.3q0.9-0.6 1.9-1.2c0-0.1 0.1-0.1 0.1-0.2 0 0-0.1-0.1-0.2-0.1q-0.1 0-0.1 0.1c-0.3 0.2-0.7 0.2-1 0.4-0.3 0.2-0.6 0.2-0.8 0.4-0.3 0.1-0.5 0.2-0.7 0.3-0.1 0-0.2 0-0.3 0.1q-0.2 0.1-0.5 0.3c-0.2 0.1-0.5 0.2-0.8 0.4-0.1 0.1-0.3 0.1-0.5 0.2q-0.3 0.2-0.6 0.3-0.1 0-0.1 0c-0.1-0.1-0.2 0-0.2 0q-0.3 0.2-0.7 0.5c-0.7 0.4-1.3 1-1.9 1.6zm22.7 0.1q0.1 0 0.1 0.1c0.1 0 0.3 0.1 0.4 0.1q0-0.1-0.1-0.1-0.4-0.4-0.8-0.8-0.3-0.3-0.6-0.6c-0.4-0.4-0.8-0.7-1.1-1 0-0.1 0-0.1 0-0.2q0-0.1-0.1-0.2c-0.3-0.2-0.6-0.5-0.9-0.8-0.1-0.1-0.2-0.2-0.1-0.4q0 0 0-0.1 0-0.3 0.2-0.5 0.1-0.2 0.2-0.4 0.3-0.7 0.4-1.4c0-0.2 0-0.5 0-0.8 0 0 0 0-0.1-0.1q-0.1 0-0.1 0.1-0.1 0.1-0.1 0.3c0 0.1-0.1 0.2-0.1 0.2-0.2 0.1-0.2 0.2-0.2 0.3q-0.2 0.5-0.3 0.9c0 0.2-0.1 0.3 0 0.5q0 0 0 0-0.3 0.6-0.5 1.2-0.2 0.4-0.3 0.7-0.1 0.3 0.1 0.4 0.3 0.2 0.6 0.4 0 0.1 0.1 0.1c0.1-0.1 0.1 0 0.2 0.1q0.1 0.1 0.1 0.1 0.5 0.3 0.9 0.6 0.6 0.4 1.1 0.7c0.3 0.2 0.6 0.5 1 0.6z"/><path fill-rule="evenodd" class="a" d="m20.2 22.5c-0.4-0.2-0.8-0.1-1.2 0.1-0.6 0.2-1.1 0.3-1.7 0.6q-0.2 0-0.4 0.2-0.1 0.1-0.3 0.1c-0.3 0-0.6 0.1-0.9 0.1-0.1 0-0.1 0.1-0.2 0.2q-0.1 0.2-0.3 0.2c-0.4 0.1-0.7 0.1-1.1 0.1q-0.4 0.1-0.8 0-0.1 0-0.1 0 0-0.1 0.1-0.1 0.1-0.1 0.2-0.1c0.3 0.2 0.6 0.1 0.8-0.2 0.2-0.2 0.4-0.3 0.6-0.4q0.2-0.1 0.4-0.1c0.4 0.1 0.9 0 1.3-0.1q0.1 0 0.2-0.1c0.1 0 0.2 0 0.2-0.1q-0.1-0.2-0.3-0.2-0.3 0.1-0.6 0.1-0.3 0-0.5 0.1-0.2 0-0.3-0.1-0.1-0.1-0.2-0.1c-0.4 0.1-0.7 0-1 0-0.1 0-0.2 0-0.2-0.1q0-0.1 0.2-0.1c0.3 0 0.5-0.1 0.8-0.2 0.1 0 0.1 0 0.1-0.1 0-0.1-0.1-0.1-0.1-0.1q-0.6 0.1-1-0.1-0.3-0.1-0.5-0.1-0.2 0-0.3-0.1-0.2-0.1-0.1-0.2 0.3-0.2 0.5-0.1 0.2 0 0.3 0c0.1 0 0.2 0 0.2 0.2q0 0.1 0.1 0.1 0.2 0.1 0.3 0.1 0.5 0 0.9 0 0.3 0 0.4 0.2 0 0 0.1 0 0.5-0.1 1-0.4 0 0 0-0.1 0-0.1-0.1-0.1-0.2 0.1-0.3 0.1-0.3 0.2-0.7 0.1c0-0.1-0.1-0.1-0.1-0.1q0-0.1 0.1-0.2 0.2-0.1 0.4-0.1c0.1-0.1 0.2-0.1 0.3-0.1 0.1 0 0.1 0 0.1-0.1q0.1-0.1 0.2-0.2c0.1 0 0.2-0.1 0.3-0.1q0.1 0 0.1 0 0.2-0.1 0.4-0.1 0 0 0.1 0c0.1-0.1 0.2-0.1 0.2-0.2 0 0-0.1 0-0.2 0q-0.1 0-0.1-0.1c0-0.1 0-0.1 0.1-0.1q0.2-0.2 0.4-0.3 0.1-0.1 0.2 0c0.5 0.4 1.1 0.8 1.8 1.1q0.9 0.6 1.9 1.1 1 0.6 2 1.1 0.1 0.1 0.2 0.1c-0.2 0-0.4-0.1-0.5-0.1-0.2-0.2-0.5-0.2-0.7-0.4q-0.1 0-0.2 0-0.2 0.1-0.4 0-0.5-0.1-1.1-0.3-0.2-0.1-0.3-0.2-0.1-0.1-0.3-0.1 0 0-0.1 0.1-0.1 0.2-0.3 0.1zm-2-0.6c0 0 0 0 0 0-0.4-0.2-0.4-0.2-0.7 0.1q0 0 0 0.1-0.1 0-0.1 0c-0.1-0.1-0.2-0.1-0.3 0q-0.3 0.1-0.6 0.2c-0.1 0-0.1 0-0.1 0.1 0 0 0 0 0.1 0 0.3 0 0.6 0 0.9-0.1q0.2 0 0.2-0.1 0.1-0.2 0.3-0.2 0.1 0 0.3 0 0 0 0-0.1zm-14.7-2.4c0.3-0.3 0.6-0.6 0.7-1q0.1-0.1 0.2-0.1 0.1-0.1 0.2-0.1c0.1 0 0.1 0 0.2 0 0 0.1 0.1 0 0.2 0q0.3-0.3 0.8-0.5 0 0 0 0c0.2-0.1 0.2-0.1 0.3 0.1q0 0.2 0.2 0.4c0.1 0.1 0 0.1-0.1 0.2-0.2 0.1-0.4 0.2-0.6 0.2-0.6 0.1-1 0.4-1.4 0.7q-0.5 0.5-0.9 1.1c0 0-0.1 0.1-0.1 0.1q-0.1-0.6 0.3-1.1zm4.6-1.9c0 0 0.1-0.1 0.1-0.2 0-0.1-0.2-0.2-0.3-0.3 0-0.1 0-0.2 0-0.4q0.1 0.1 0.2 0.3 0.2 0.1 0.3 0.3 0 0 0 0 0 0.1 0 0.1c-0.1 0.1-0.2 0.2-0.3 0.2z"/><path class="a" d="m7 15.8c0-0.5 0.1-0.9 0.3-1.3 0.1-0.1 0.1-0.2 0-0.2-0.1-0.1-0.2 0-0.2 0.1q-0.1 0.3-0.5 0.3-0.1 0-0.1 0.1 0 0.3 0 0.5c0 0.4-0.1 0.8 0 1.2q0 0 0 0c-0.1 0.2 0 0.4-0.1 0.6q0 0 0 0.1c0.3 0.2 0.3 0.3 0.4 0.5 0 0.1 0.1 0.2 0.1 0.4 0 0.2-0.1 0.3-0.1 0.4 0-0.1 0.3-0.2 0.3-0.4q0-0.1 0-0.1c-0.1-0.2-0.2-0.2-0.2-0.3q0-0.1 0-0.2c0-0.5 0-1.1 0.1-1.6q0-0.1 0-0.1z"/><path fill-rule="evenodd" class="a" d="m6.5 14.3q0.1-0.4 0.4-0.8-0.1 0.4-0.2 0.9c0 0.1-0.1 0.2-0.1 0.2-0.1 0-0.1-0.2-0.1-0.3zm1.4 0.4c-0.1 0 0 0.1 0 0.2 0 0.1 0 0.1-0.1 0.2 0 0 0-0.1 0-0.2-0.1-0.2-0.1-0.4-0.1-0.7 0-0.1 0-0.2-0.2-0.1-0.1 0.1-0.1 0-0.1-0.1q-0.1-0.4 0-0.8c0-0.1 0-0.2 0.1-0.3 0.1 0 0.1-0.1 0.1-0.2 0.1 0 0.1-0.1 0.2-0.1q0-0.1 0-0.2c0 0 0-0.1 0-0.1q0.1 0.2 0.2 0.5 0 0.2-0.1 0.5 0 0.1-0.1 0.3c0 0 0 0.1 0.1 0.1q0.1 0.1 0.1-0.1 0.1-0.1 0.2-0.3 0.1-0.4 0.3-0.6 0.1-0.1 0.1-0.3c0-0.1 0.1-0.2 0.2-0.2q0.1-0.1 0.2-0.1 0.1-0.2 0.2-0.3 0-0.1-0.1-0.2-0.2 0-0.3 0.1-0.1 0.1-0.2 0.1 0 0.1-0.1 0c0 0 0-0.2 0.1-0.3 0.2-0.1 0.3-0.3 0.4-0.6 0.2-0.2 0-0.4 0.1-0.7q0-0.1 0-0.1c0 0 0.1 0 0.1 0 0.2 0.1 0.2 0 0.4 0q0.1 0 0.5 0.4c0 0 0.1 0 0.1 0.1q0 0.1-0.1 0.1c-0.1 0.2-0.3 0.4-0.4 0.5-0.1 0.1-0.1 0.1-0.2 0.1-0.1 0-0.1 0.1-0.2 0.2q0 0 0 0c0 0.1 0.1 0 0.1 0q-0.1 0.4-0.3 0.7c-0.2 0.2-0.3 0.5-0.4 0.7-0.2 0.5-0.3 1.1-0.6 1.7 0 0 0-0.1-0.1-0.1q0 0 0 0c-0.1 0-0.1 0.1-0.1 0.2zm2.1-5c0-0.1 0-0.2 0.1-0.2 0.1 0 0.4 0 0.5-0.1 0.3 0 0.4-0.3 0.5-0.3 0 0-0.1 0.2-0.2 0.3q-0.1 0.1-0.2 0.1 0 0-0.1 0.1-0.2 0-0.4 0.1c-0.1 0-0.1 0.1-0.2 0z"/><path class="a" d="m11.8 5.6q-0.1-0.4-0.1-0.8-0.1 0.4-0.2 0.8c-0.2 0.7-0.4 1.4-0.8 2q-0.1 0.1-0.3 0.2-0.4 0.3-0.8 0.5c-0.3 0.2-0.7 0.4-0.9 0.8-0.1 0.1-0.2 0.2-0.3 0.2q-0.2 0-0.3 0.2-0.8 0.5-1.3 1.2-0.2 0.2-0.3 0.4c0 0.1-0.1 0.1 0 0.2 0 0 0.1 0 0.2 0 0.1-0.1 0.1-0.2 0.2-0.2q0.1-0.1 0.2-0.1c0.1 0 0.2-0.1 0.3-0.2q0.5-0.5 0.8-1 0.2-0.3 0.5-0.5 0.4-0.2 0.8-0.4 0.2 0 0.3-0.1c0-0.1 0.3-0.2 0.4-0.1q0.1 0.1 0.2 0 0.2 0 0.1-0.2c0-0.1 0-0.1 0.2-0.1q0 0 0 0 0.3 0 0.2-0.2-0.1-0.2 0.1-0.2c0.1-0.1 0 0.1 0.1 0.1q0 0 0.1 0c0.2-0.3 0.3-0.6 0.6-0.8q0-0.1 0-0.1-0.1-0.5 0-1 0 0 0 0 0-0.3 0-0.6z"/></svg>