<svg version="1.2" xmlns="http://www.w3.org/2000/svg" viewBox="0 0 46 28" width="46" height="28"><style>.a{fill:#fff;stroke:#020203;stroke-width:2}</style><path class="a" d="m32.9 27c7 0 11.7-5.8 11.7-13.1 0-8.4-4.9-12.1-10.2-12.1-5.8 0-8.9 3.9-11.3 7.8-3-5-5.8-7.8-11.1-7.8-7.9 0-11 6.9-11 13.1 0 4.7 2 12.1 10.1 12.1 5.3 0 7.9-3.9 10.4-7.9 3.1 5.1 5.9 7.9 11.4 7.9zm-21.8-5.3c-5.2 0-5.9-5.2-5.9-7.2 0-3.5 1.5-7.2 5.5-7.2 3.4 0 5.9 4.5 8.6 8.6-1.2 2.5-3.9 5.8-8.2 5.8zm23.2-1c-3.7 0-5.8-2.2-9-7.6 1.9-3.3 3.9-6.4 7.8-6.4 4.7 0 7.2 3.1 7.2 6.8 0 4.7-2.5 7.2-6 7.2z"/></svg>